<?xml version="1.0" encoding="utf-8"?>
<!-- Generator: Adobe Illustrator 24.1.2, SVG Export Plug-In . SVG Version: 6.00 Build 0)  -->
<svg version="1.1" id="Layer_1" xmlns="http://www.w3.org/2000/svg" xmlns:xlink="http://www.w3.org/1999/xlink" x="0px" y="0px"
	 viewBox="0 0 900 560" style="enable-background:new 0 0 900 560;" xml:space="preserve">
<style type="text/css">
	.st0{fill:#FFFFFF;}
</style>
<g>
	<path class="st0" d="M900,560c-300,0-600,0-900,0C0,373.33,0,186.67,0,0c300,0,600,0,900,0C900,186.67,900,373.33,900,560z
		 M598.51,317.11c39.24,0,78.15,0,116.94,0c9.79-16.91,19.37-33.45,28.64-49.47c-19.75-34.17-39.19-67.82-58.59-101.38
		c-19.59,0-39.03,0-58.14,0c-19.45,33.73-38.71,67.13-57.79,100.22c0.38,1.03,0.48,1.54,0.73,1.96
		C579.63,284.56,588.98,300.68,598.51,317.11z M321.07,289.03c-1.17-0.18-1.97-0.39-2.77-0.41c-10.31-0.23-20.64-0.93-30.93-0.53
		c-12.28,0.49-22.03,11.14-21.56,23.05c0.28,6.96,2.45,12.63,8.18,17.2c-3.49,2.24-5.63,5.04-5.94,8.94c-0.34,4.15,2.17,7,5.07,9.64
		c-0.92,0.74-1.42,1.15-1.94,1.55c-5.89,4.61-8.63,10.59-7.09,17.99c1.53,7.38,6.84,10.99,13.81,12.76
		c7.26,1.85,14.48,1.72,21.73,0.11c5.98-1.32,11.33-3.82,15.64-8.28c5.13-5.31,6.22-11.71,4.35-18.52
		c-1.73-6.29-6.69-9.27-12.76-10.55c-2.1-0.44-4.27-0.66-6.42-0.72c-5.16-0.16-10.32-0.12-15.48-0.26c-2.71-0.07-5.33-0.55-6.89-3.2
		c-0.78-3.41,0.86-5.38,3.82-6.25c5.81-0.01,11.71,0.3,17.31-0.87c15.27-3.18,21.9-19.4,13.75-32.68c-0.32-0.52-0.47-1.14-0.9-2.21
		c3.21,0,5.99,0,9.02,0C321.07,293.45,321.07,291.51,321.07,289.03z M172.01,328.97c12.24,0,24.02,0,36.07,0
		c2.39,6.63,4.75,13.15,7,19.4c3.72,0,6.93,0,10.72,0c-10.21-27.45-20.21-54.32-30.15-81.03c-3.79,0-7.06,0-10.38,0
		c-10.12,27.19-20.16,54.17-30.26,81.31c3.69,0,6.64,0,9.79,0C167.2,342.11,169.53,335.73,172.01,328.97z M325.75,319.36
		c0.47,3.62,0.67,7.3,1.49,10.84c1.49,6.48,4.37,12.18,10.25,15.92c13.75,8.75,33.61,2.95,40.43-11.8
		c4.97-10.73,4.8-21.65,0.69-32.46c-1.19-3.13-3.44-6.2-5.98-8.41c-9.6-8.37-27.5-7.65-36.77,1.12
		C328.76,301.3,326.12,309.8,325.75,319.36z M523.43,316.8c14.21,0,27.27,0,40.48,0c0-3.53,0.31-6.54-0.06-9.47
		c-0.86-6.71-3.65-12.48-9.59-16.2c-9.93-6.23-29.7-5.72-36.9,11.8c-4.53,11-4.35,22.09-0.16,33.12c1.84,4.84,5.06,8.72,9.83,10.84
		c11.67,5.19,23.25,3.44,35.12-0.4c-0.41-2.76-0.75-5-1.14-7.59c-2,0.63-3.56,1.09-5.09,1.6c-5.31,1.79-10.75,2.14-16.28,1.51
		c-7.41-0.84-12.38-4.91-14.37-12C524.17,326.07,524.09,321.87,523.43,316.8z M440.07,348.51c0-7.7,0-14.85,0-21.99
		c0.01-7.66,0.17-15.32-0.01-22.97c-0.17-7.47-4.05-13.31-10.26-15.02c-7.65-2.11-19.42-1.44-26.04,7.9
		c-0.67,0.95-1.5,1.79-2.85,3.37c0-4.25,0-7.49,0-10.84c-2.99,0-5.56,0-8.3,0c0,20.04,0,39.73,0,59.49c3.15,0,5.9,0,9.18,0
		c0-2.26,0-4.21,0-6.17c0-8.16-0.1-16.32,0.02-24.47c0.11-7.29,2.47-13.79,7.99-18.73c4.44-3.98,9.81-5.2,15.32-2.8
		c4.92,2.15,5.82,6.89,5.94,11.76c0.03,1.16,0.01,2.33,0.01,3.5c0,10.82-0.01,21.64,0.01,32.46c0,1.45,0.17,2.89,0.27,4.53
		C434.27,348.51,436.86,348.51,440.07,348.51z M455.55,289.08c0,20.12,0,39.67,0,59.41c2.93,0,5.51,0,8.5,0
		c0.1-1.88,0.26-3.49,0.27-5.11c0.05-7.16-0.27-14.34,0.18-21.48c0.32-5.08,1.06-10.31,2.71-15.09c2.18-6.33,6.97-10.46,13.86-11.58
		c5.98-0.97,10.6,1.91,12.03,7.74c0.62,2.55,0.87,5.25,0.89,7.89c0.1,10.66,0.04,21.32,0.04,31.98c0,1.79,0,3.58,0,5.57
		c3.23,0,5.94,0,9.04,0c0-10.17,0.02-19.97-0.01-29.78c-0.01-5.33,0.2-10.68-0.2-15.98c-0.67-9.06-6.1-14.24-15.07-14.9
		c-9.32-0.68-17.09,2.01-22.3,10.28c-0.23,0.37-0.67,0.6-1.61,1.43c0-3.85,0-7.05,0-10.39
		C460.94,289.08,458.48,289.08,455.55,289.08z M243.74,348.48c0-8.86-0.26-17.17,0.09-25.47c0.22-5.1,0.84-10.3,2.21-15.2
		c2.02-7.23,6.78-11.7,14.88-11.49c0.6,0.02,1.22-0.27,1.82-0.42c0-2.8,0-5.36,0-7.96c-9.56-1.24-15.22,3.7-19.69,12.04
		c0-4.22,0-7.33,0-10.75c-2.94,0-5.64,0-8.49,0c0,19.89,0,39.43,0,59.25C237.64,348.48,240.39,348.48,243.74,348.48z M344.54,378.03
		c0.32-0.14,0.64-0.27,0.96-0.41c2.17,3.66,4.34,7.33,6.52,11.01c1.62,0,3.04,0,4.77,0c0-6.67,0-13.06,0-19.63
		c-1.28,0.1-2.21,0.18-3.82,0.31c0,3.48,0,6.76,0,10.04c-0.28,0-0.57,0-0.85,0.01c-2.05-3.39-4.1-6.78-6.3-10.41
		c-1.62,0.07-3.18,0.14-4.84,0.22c0,6.67,0,12.89,0,19.28c1.14,0,1.9,0,3.1,0C344.24,384.87,344.39,381.45,344.54,378.03z
		 M444.06,388.95c0-4.35,0-8.06,0-11.77c0.28-0.1,0.56-0.19,0.84-0.29c2.35,3.89,4.7,7.77,7.2,11.9c1.62-0.11,3.17-0.21,4.71-0.31
		c0-6.72,0-12.97,0-19.41c-1.25,0.08-2.18,0.15-3.32,0.22c-0.17,3.67-0.33,7.12-0.49,10.57c-0.28-0.01-0.55-0.02-0.83-0.03
		c-2.1-3.54-4.2-7.09-6.45-10.87c-1.6,0.1-3.15,0.19-4.89,0.29c0,6.56,0,12.66,0,18.97C441.74,388.42,442.49,388.59,444.06,388.95z
		 M591.11,378.32c0.02-6.22-3.47-10.05-9.16-10.07c-5.55-0.02-9.92,4.82-9.83,10.93c0.08,6.23,3.22,9.78,8.72,9.89
		C587.16,389.18,591.09,385.07,591.11,378.32z M656.93,379.1c0.01,6.67,3,9.98,8.98,9.95c5.86-0.03,9.84-4.35,9.88-10.73
		c0.04-6.19-3.51-10.08-9.18-10.08C660.77,368.25,656.91,372.57,656.93,379.1z M415.07,378.97c-0.08,6.5,3.04,10.02,8.9,10.06
		c6.03,0.04,9.88-4.02,9.99-10.52c0.1-6.31-3.19-10.06-8.95-10.2C419.24,368.17,415.15,372.56,415.07,378.97z M564.76,378.61
		c0.58-3.1,0.99-5.24,1.38-7.32c-4.51-3.39-8.78-2.96-13.23-1.99c0,6.6,0,12.85,0,19.62c2.25,0,4.2,0.12,6.14-0.02
		C566,388.41,568.11,384.06,564.76,378.61z M694.59,376.97c0.97-7.68-4.04-10.47-12.18-7.21c0,6.32,0,12.56,0,18.95
		c1.32-0.08,2.25-0.14,3.33-0.2c0.16-2.18,0.3-4.04,0.51-6.78c2.17,2.76,3.79,4.8,5.37,6.81c1.4,0,2.66,0,4.51,0
		c-1.93-3-3.58-5.57-5.23-8.12C692.32,379.08,693.52,377.96,694.59,376.97z M635.26,388.43c-2.36-6.71-4.59-13.02-6.87-19.51
		c-1.85,0.1-3.27,0.18-4.81,0.27c-2.25,6.47-4.41,12.67-6.71,19.28c1.57,0,2.64,0,3.68,0c0.74-1.24,1.4-2.34,2.04-3.42
		c2.33,0,4.46,0,6.64,0c0.82,1.26,1.6,2.46,2.39,3.68C632.75,388.64,633.7,388.56,635.26,388.43z M598.2,368.88
		c0,6.99,0,13.23,0,19.82c1.39-0.22,2.4-0.39,3.34-0.54c0.21-2.09,0.38-3.81,0.64-6.4c2.06,2.74,3.61,4.8,5.15,6.85
		c1.45,0,2.75,0,4.06,0c0-0.32,0.06-0.52-0.01-0.64c-1.55-2.51-3.11-5.02-4.67-7.52c4.2-3.86,5.22-5.98,3.5-8.72
		C607.27,367.07,602.68,369.05,598.2,368.88z M528.56,387.9c4.28,2.31,4.05-1.78,5.78-2.78c2.16,0,4.3,0,6.42,0
		c0.72,1.27,1.36,2.41,2.09,3.71c1.15-0.07,2.24-0.15,4.01-0.26c-2.4-6.78-4.64-13.11-6.94-19.6c-1.9,0.1-3.33,0.17-4.8,0.25
		C532.88,375.6,530.74,381.69,528.56,387.9z M475.24,384.85c0.82,1.44,1.46,2.56,2.19,3.83c1.19-0.1,2.26-0.19,3.93-0.32
		c-2.42-6.71-4.69-13.02-6.93-19.24c-1.88,0-3.16,0-4.8,0c-2.2,6.4-4.37,12.71-6.67,19.39c1.56,0,2.51,0,3.46,0
		c0.82-1.28,1.59-2.5,2.33-3.65C470.98,384.85,472.96,384.85,475.24,384.85z M375.32,384.9c0.78,1.39,1.41,2.51,2.14,3.8
		c1.16-0.1,2.23-0.19,3.91-0.34c-2.42-6.7-4.69-12.99-6.94-19.22c-1.75,0-3.04,0-4.65,0c-2.26,6.38-4.5,12.68-6.74,18.98
		c3.98,1.89,4.26-1.82,5.91-3.23C371,384.9,372.98,384.9,375.32,384.9z M699.23,369.21c1.58,3.38,3.2,6.29,4.31,9.38
		c1.09,3.05,1.64,6.29,2.52,9.82c0.58,0.05,1.48,0.12,2.94,0.24c-1.17-7.52,4-12.83,6.13-19.65c-1.69,0.11-2.91,0.19-4.03,0.26
		c-1.27,2.53-2.39,4.74-3.8,7.55c-1.48-2.91-2.73-5.36-4.01-7.88C702,369.02,700.88,369.1,699.23,369.21z M393.05,388.29
		c0-5.66,0-10.73,0-15.73c1.89-0.35,3.3-0.62,4.73-0.89c0-0.9,0-1.53,0-2.48c-4.66,0-9.2,0-13.83,0c0,0.94,0,1.57,0,2.47
		c1.43,0.31,2.81,0.61,4.83,1.05c0,5.33,0,10.54,0,15.99C390.42,388.54,391.34,388.45,393.05,388.29z M487.65,369.22
		c0,6.85,0,13.07,0,19.25c3.53,0,6.62,0,10.01,0c-0.16-1.24-0.28-2.12-0.39-2.97c-2.12-0.24-3.89-0.44-6.16-0.7
		c0-5.26,0-10.35,0-15.58C489.65,369.22,488.73,369.22,487.65,369.22z M514.28,369.06c0,6.85,0,13.08,0,19.3c3.45,0,6.48,0,9.81,0
		c-0.17-1.21-0.28-1.97-0.41-2.91c-1.95-0.16-3.71-0.3-5.93-0.48c0-5.33,0-10.42,0-15.72C516.35,369.16,515.42,369.12,514.28,369.06
		z M647.43,388.45c0-5.56,0-10.66,0-15.86c1.98-0.39,3.53-0.69,5.33-1.05c-0.25-1.01-0.42-1.72-0.57-2.32c-4.61,0-8.88,0-13.25,0
		c0,0.93,0,1.56,0,2.37c1.61,0.36,3.16,0.7,5.22,1.15c0,5.4,0,10.62,0,15.97C645.38,388.62,646.01,388.56,647.43,388.45z
		 M407.68,388.46c0-6.51,0-12.88,0-19.43c-1.21,0.11-2.13,0.19-3.2,0.29c0,6.5,0,12.7,0,19.14
		C405.66,388.46,406.56,388.46,407.68,388.46z"/>
	<path d="M598.51,317.11c-9.52-16.43-18.87-32.55-28.21-48.67c-0.24-0.42-0.35-0.92-0.73-1.96c19.08-33.09,38.34-66.49,57.79-100.22
		c19.11,0,38.54,0,58.14,0c19.4,33.57,38.84,67.21,58.59,101.38c-9.27,16.02-18.85,32.56-28.64,49.47
		C676.65,317.11,637.75,317.11,598.51,317.11z M627.45,265.21c9.16-15.86,18.38-31.82,27.64-47.87
		c-9.03-15.56-17.98-30.98-27.29-47.01c-18.51,32.05-36.46,63.14-54.78,94.88C591.64,265.21,609.38,265.21,627.45,265.21z
		 M657.82,217.46c9.33,16.11,18.48,31.92,27.62,47.69c18.01,0,35.7,0,54.42,0c-18.41-31.87-36.38-62.97-54.81-94.88
		C675.72,186.43,666.86,201.78,657.82,217.46z M684.39,268.18c-18.91,0-37.35,0-55.92,0c-8.9,15.45-17.73,30.8-26.85,46.64
		c36.83,0,72.88,0,109.69,0C702.24,299.1,693.38,283.75,684.39,268.18z M714.06,314.81c9.26-16.03,17.98-31.13,26.92-46.6
		c-18.25,0-35.64,0-53.77,0C696.16,283.74,704.82,298.78,714.06,314.81z M656.45,215.05c9.13-15.83,17.81-30.86,26.65-46.18
		c-17.91,0-35.21,0-53.25,0C638.82,184.45,647.42,199.37,656.45,215.05z M572.98,268.16c8.81,15.28,17.39,30.16,26.36,45.71
		c8.98-15.53,17.58-30.38,26.45-45.71C607.93,268.16,590.84,268.16,572.98,268.16z M656.46,219.8
		c-8.93,15.48-17.4,30.19-26.16,45.37c17.89,0,34.74,0,52.31,0C673.81,249.91,665.37,235.26,656.46,219.8z"/>
	<path d="M321.07,289.03c0,2.48,0,4.42,0,6.77c-3.03,0-5.8,0-9.02,0c0.43,1.08,0.58,1.7,0.9,2.21c8.14,13.28,1.52,29.5-13.75,32.68
		c-5.59,1.16-11.49,0.86-17.31,0.87c-2.96,0.87-4.61,2.84-3.82,6.25c1.57,2.65,4.18,3.13,6.89,3.2c5.16,0.14,10.32,0.1,15.48,0.26
		c2.15,0.07,4.32,0.28,6.42,0.72c6.06,1.28,11.03,4.26,12.76,10.55c1.87,6.81,0.78,13.21-4.35,18.52
		c-4.31,4.47-9.66,6.96-15.64,8.28c-7.25,1.61-14.47,1.73-21.73-0.11c-6.97-1.77-12.28-5.38-13.81-12.76
		c-1.53-7.4,1.2-13.38,7.09-17.99c0.51-0.4,1.02-0.82,1.94-1.55c-2.9-2.64-5.41-5.49-5.07-9.64c0.31-3.9,2.45-6.7,5.94-8.94
		c-5.73-4.57-7.91-10.24-8.18-17.2c-0.47-11.91,9.28-22.57,21.56-23.05c10.29-0.41,20.62,0.29,30.93,0.53
		C319.1,288.64,319.89,288.85,321.07,289.03z M307.22,309.9c-0.01-9.51-5.86-14.99-15.98-14.96c-9.68,0.02-16.22,6.04-16.31,15
		c-0.09,9.24,6.2,15.1,16.08,14.99C301,324.8,307.23,319.02,307.22,309.9z M290.75,373.78c4.5-1.28,9.24-2.24,13.65-4
		c4.7-1.88,7.3-7.06,6.71-11.75c-0.55-4.36-3.75-7.33-9.26-8.35c-1.95-0.36-3.96-0.5-5.95-0.54c-3.82-0.07-7.64,0.04-11.46,0.01
		c-4.56-0.04-9.81,4.22-11.19,9.16c-1.33,4.76,0.81,9.95,5.63,12.03C282.5,371.89,286.47,372.58,290.75,373.78z"/>
	<path d="M172.01,328.97c-2.48,6.77-4.81,13.14-7.2,19.68c-3.16,0-6.1,0-9.79,0c10.1-27.15,20.14-54.12,30.26-81.31
		c3.33,0,6.6,0,10.38,0c9.94,26.71,19.94,53.59,30.15,81.03c-3.79,0-7,0-10.72,0c-2.26-6.25-4.61-12.77-7-19.4
		C196.02,328.97,184.24,328.97,172.01,328.97z M205.23,320.83c-5.04-13.83-9.94-27.28-15.22-41.79
		c-5.27,14.55-10.15,28.03-15.13,41.79C185.2,320.83,194.96,320.83,205.23,320.83z"/>
	<path d="M325.75,319.36c0.37-9.56,3.01-18.06,10.12-24.79c9.27-8.77,27.17-9.49,36.77-1.12c2.54,2.21,4.79,5.28,5.98,8.41
		c4.11,10.81,4.27,21.73-0.69,32.46c-6.83,14.74-26.68,20.54-40.43,11.8c-5.88-3.74-8.76-9.45-10.25-15.92
		C326.42,326.66,326.23,322.98,325.75,319.36z M335.06,318.25c0.2,0.07,0.41,0.13,0.61,0.2c0.15,2.32,0.16,4.66,0.51,6.95
		c0.27,1.79,0.86,3.55,1.48,5.26c2.62,7.2,8.14,11.28,15.3,11.41c7.93,0.14,13.8-3.69,16.71-10.98c3.02-7.56,2.93-15.29,0.86-23.01
		c-2.05-7.67-7.65-12.27-15.28-12.93c-6.88-0.6-13.86,3.34-16.76,10.25C336.79,309.46,336.17,313.95,335.06,318.25z"/>
	<path d="M523.43,316.8c0.67,5.07,0.74,9.27,1.84,13.19c1.99,7.09,6.96,11.15,14.37,12c5.52,0.63,10.97,0.28,16.28-1.51
		c1.54-0.52,3.09-0.98,5.09-1.6c0.39,2.59,0.73,4.84,1.14,7.59c-11.86,3.84-23.45,5.59-35.12,0.4c-4.77-2.12-7.99-6-9.83-10.84
		c-4.2-11.03-4.37-22.11,0.16-33.12c7.2-17.52,26.97-18.02,36.9-11.8c5.94,3.72,8.73,9.49,9.59,16.2c0.37,2.93,0.06,5.94,0.06,9.47
		C550.7,316.8,537.64,316.8,523.43,316.8z M524.99,309.68c10,0,19.7,0,29.41,0c-0.37-9.33-5.29-14.57-13.61-14.89
		C532.29,294.47,525.94,300.31,524.99,309.68z"/>
	<path d="M440.07,348.51c-3.21,0-5.8,0-8.72,0c-0.1-1.64-0.26-3.08-0.27-4.53c-0.02-10.82-0.01-21.64-0.01-32.46
		c0-1.17,0.02-2.33-0.01-3.5c-0.12-4.86-1.02-9.61-5.94-11.76c-5.51-2.4-10.88-1.18-15.32,2.8c-5.52,4.94-7.88,11.44-7.99,18.73
		c-0.12,8.16-0.02,16.31-0.02,24.47c0,1.96,0,3.91,0,6.17c-3.27,0-6.03,0-9.18,0c0-19.76,0-39.45,0-59.49c2.74,0,5.31,0,8.3,0
		c0,3.35,0,6.59,0,10.84c1.35-1.58,2.18-2.42,2.85-3.37c6.62-9.34,18.4-10.01,26.04-7.9c6.21,1.71,10.09,7.55,10.26,15.02
		c0.18,7.65,0.02,15.32,0.01,22.97C440.07,333.67,440.07,340.81,440.07,348.51z"/>
	<path d="M455.55,289.08c2.92,0,5.38,0,8.33,0c0,3.34,0,6.54,0,10.39c0.95-0.83,1.38-1.07,1.61-1.43
		c5.21-8.27,12.98-10.96,22.3-10.28c8.97,0.66,14.4,5.84,15.07,14.9c0.39,5.3,0.18,10.65,0.2,15.98c0.02,9.81,0.01,19.61,0.01,29.78
		c-3.1,0-5.82,0-9.04,0c0-1.99,0-3.78,0-5.57c0-10.66,0.05-21.32-0.04-31.98c-0.02-2.64-0.27-5.34-0.89-7.89
		c-1.43-5.83-6.05-8.72-12.03-7.74c-6.89,1.12-11.68,5.25-13.86,11.58c-1.65,4.78-2.38,10.01-2.71,15.09
		c-0.45,7.13-0.14,14.32-0.18,21.48c-0.01,1.62-0.17,3.23-0.27,5.11c-2.99,0-5.57,0-8.5,0C455.55,328.75,455.55,309.2,455.55,289.08
		z"/>
	<path d="M243.74,348.48c-3.35,0-6.09,0-9.18,0c0-19.82,0-39.36,0-59.25c2.85,0,5.56,0,8.49,0c0,3.42,0,6.52,0,10.75
		c4.47-8.34,10.12-13.28,19.69-12.04c0,2.59,0,5.16,0,7.96c-0.6,0.15-1.22,0.44-1.82,0.42c-8.09-0.21-12.86,4.26-14.88,11.49
		c-1.37,4.9-1.99,10.1-2.21,15.2C243.48,331.31,243.74,339.62,243.74,348.48z"/>
	<path d="M344.54,378.03c-0.15,3.42-0.3,6.84-0.46,10.4c-1.2,0-1.95,0-3.1,0c0-6.39,0-12.61,0-19.28c1.65-0.07,3.22-0.15,4.84-0.22
		c2.2,3.63,4.25,7.02,6.3,10.41c0.28,0,0.57,0,0.85-0.01c0-3.28,0-6.56,0-10.04c1.61-0.13,2.55-0.21,3.82-0.31
		c0,6.57,0,12.96,0,19.63c-1.73,0-3.15,0-4.77,0c-2.18-3.68-4.35-7.34-6.52-11.01C345.18,377.75,344.86,377.89,344.54,378.03z"/>
	<path d="M444.06,388.95c-1.57-0.36-2.32-0.53-3.24-0.73c0-6.31,0-12.4,0-18.97c1.74-0.1,3.3-0.2,4.89-0.29
		c2.25,3.78,4.35,7.33,6.45,10.87c0.28,0.01,0.55,0.02,0.83,0.03c0.16-3.45,0.32-6.89,0.49-10.57c1.15-0.08,2.07-0.14,3.32-0.22
		c0,6.44,0,12.69,0,19.41c-1.54,0.1-3.09,0.21-4.71,0.31c-2.5-4.13-4.85-8.01-7.2-11.9c-0.28,0.1-0.56,0.19-0.84,0.29
		C444.06,380.89,444.06,384.6,444.06,388.95z"/>
	<path d="M591.11,378.32c-0.02,6.75-3.95,10.86-10.27,10.74c-5.5-0.1-8.63-3.66-8.72-9.89c-0.08-6.1,4.28-10.95,9.83-10.93
		C587.64,368.27,591.13,372.1,591.11,378.32z M586.87,378.8c0.01-3.93-2.12-6.75-5.12-6.77c-3-0.01-5.33,2.9-5.33,6.64
		c0,3.83,2.26,6.82,5.14,6.8C584.54,385.46,586.86,382.55,586.87,378.8z"/>
	<path d="M656.93,379.1c-0.01-6.53,3.84-10.86,9.68-10.86c5.66-0.01,9.21,3.89,9.18,10.08c-0.04,6.38-4.01,10.7-9.88,10.73
		C659.93,389.08,656.94,385.77,656.93,379.1z M671.45,378.53c-0.06-3.85-2.34-6.62-5.36-6.51c-2.97,0.11-4.99,2.9-4.97,6.88
		c0.01,4.03,2.12,6.64,5.25,6.48C669.35,385.24,671.5,382.33,671.45,378.53z"/>
	<path d="M415.07,378.97c0.08-6.41,4.17-10.8,9.93-10.66c5.76,0.14,9.06,3.9,8.95,10.2c-0.11,6.5-3.96,10.55-9.99,10.52
		C418.11,388.99,414.99,385.46,415.07,378.97z M429.59,378.83c0.01-4.08-1.98-6.79-4.99-6.8c-2.84-0.01-5.42,3.13-5.45,6.64
		c-0.03,3.71,2.33,6.83,5.18,6.85C427.27,385.52,429.58,382.59,429.59,378.83z"/>
	<path d="M564.76,378.61c3.36,5.45,1.25,9.79-5.71,10.28c-1.94,0.14-3.9,0.02-6.14,0.02c0-6.77,0-13.02,0-19.62
		c4.46-0.97,8.72-1.4,13.23,1.99C565.74,373.37,565.34,375.51,564.76,378.61z M557.05,385.43c3.13,0.1,5.31-0.28,4.69-4.35
		c-1.36-0.42-2.8-0.86-4.69-1.43C557.05,381.83,557.05,383.38,557.05,385.43z M556.79,371.51c0.12,2.47,0.19,3.87,0.26,5.31
		c2.81,0.31,4.43-0.48,4.87-3.73C560.45,372.63,559.03,372.19,556.79,371.51z"/>
	<path d="M694.59,376.97c-1.07,1-2.27,2.12-3.69,3.44c1.64,2.55,3.3,5.13,5.23,8.12c-1.85,0-3.11,0-4.51,0
		c-1.59-2.01-3.2-4.06-5.37-6.81c-0.21,2.74-0.34,4.6-0.51,6.78c-1.08,0.07-2.01,0.12-3.33,0.2c0-6.39,0-12.63,0-18.95
		C690.56,366.49,695.57,369.29,694.59,376.97z M685.9,371.22c0.26,3.04,0.38,4.57,0.61,7.31c2.2-1.65,3.53-2.64,5.79-4.34
		C689.77,373.02,688.37,372.37,685.9,371.22z"/>
	<path d="M635.26,388.43c-1.56,0.13-2.51,0.21-3.64,0.3c-0.79-1.22-1.57-2.42-2.39-3.68c-2.18,0-4.31,0-6.64,0
		c-0.64,1.08-1.3,2.18-2.04,3.42c-1.03,0-2.1,0-3.68,0c2.3-6.6,4.46-12.81,6.71-19.28c1.53-0.09,2.95-0.17,4.81-0.27
		C630.68,375.41,632.9,381.72,635.26,388.43z M626.41,375.78c-0.34-0.02-0.68-0.03-1.02-0.05c-0.53,1.62-1.05,3.23-1.7,5.22
		c1.68,0,2.89,0,4.55,0C627.54,378.99,626.98,377.39,626.41,375.78z"/>
	<path d="M598.2,368.88c4.49,0.17,9.08-1.81,12.01,2.86c1.72,2.74,0.7,4.86-3.5,8.72c1.56,2.5,3.12,5,4.67,7.52
		c0.07,0.12,0.01,0.33,0.01,0.64c-1.31,0-2.61,0-4.06,0c-1.54-2.05-3.09-4.11-5.15-6.85c-0.26,2.58-0.43,4.31-0.64,6.4
		c-0.94,0.15-1.95,0.32-3.34,0.54C598.2,382.11,598.2,375.87,598.2,368.88z M602.31,371.61c0,2.46,0,4.12,0,5.87
		c3.83-0.97,4.88-2.23,3.53-4.7C605.08,372.52,603.93,372.14,602.31,371.61z"/>
	<path d="M528.56,387.9c2.18-6.21,4.32-12.29,6.56-18.68c1.47-0.08,2.9-0.15,4.8-0.25c2.3,6.49,4.54,12.81,6.94,19.6
		c-1.77,0.11-2.86,0.19-4.01,0.26c-0.73-1.3-1.38-2.44-2.09-3.71c-2.12,0-4.26,0-6.42,0C532.61,386.12,532.83,390.21,528.56,387.9z
		 M537.46,374.34c-0.98,2.62-1.64,4.4-2.4,6.44c1.68,0,2.99,0,4.62,0C538.94,378.62,538.35,376.93,537.46,374.34z"/>
	<path d="M475.24,384.85c-2.28,0-4.26,0-6.49,0c-0.74,1.16-1.52,2.38-2.33,3.65c-0.95,0-1.9,0-3.46,0
		c2.3-6.68,4.47-12.99,6.67-19.39c1.64,0,2.93,0,4.8,0c2.24,6.22,4.51,12.53,6.93,19.24c-1.67,0.14-2.75,0.23-3.93,0.32
		C476.71,387.41,476.07,386.29,475.24,384.85z M469.51,381.12c1.82-0.09,3.09-0.15,4.85-0.23c-0.91-2.18-1.55-3.72-2.56-6.14
		C470.88,377.32,470.31,378.92,469.51,381.12z"/>
	<path d="M375.32,384.9c-2.34,0-4.31,0-6.36,0c-1.65,1.41-1.93,5.12-5.91,3.23c2.24-6.3,4.48-12.61,6.74-18.98c1.61,0,2.9,0,4.65,0
		c2.25,6.23,4.52,12.52,6.94,19.22c-1.68,0.15-2.75,0.24-3.91,0.34C376.73,387.41,376.1,386.28,375.32,384.9z M374.44,381.2
		c-0.83-2.29-1.4-3.86-1.97-5.42c-0.33-0.02-0.65-0.03-0.98-0.05c-0.58,1.58-1.16,3.16-1.87,5.11
		C371.25,380.96,372.33,381.04,374.44,381.2z"/>
	<path d="M699.23,369.21c1.65-0.11,2.76-0.19,4.07-0.28c1.28,2.52,2.53,4.97,4.01,7.88c1.41-2.8,2.52-5.01,3.8-7.55
		c1.12-0.07,2.34-0.15,4.03-0.26c-2.13,6.83-7.3,12.14-6.13,19.65c-1.46-0.12-2.36-0.19-2.94-0.24c-0.88-3.54-1.44-6.78-2.52-9.82
		C702.44,375.5,700.81,372.59,699.23,369.21z"/>
	<path d="M393.05,388.29c-1.7,0.17-2.62,0.26-4.27,0.42c0-5.45,0-10.66,0-15.99c-2.02-0.44-3.4-0.74-4.83-1.05c0-0.9,0-1.53,0-2.47
		c4.63,0,9.17,0,13.83,0c0,0.94,0,1.57,0,2.48c-1.43,0.27-2.84,0.53-4.73,0.89C393.05,377.56,393.05,382.63,393.05,388.29z"/>
	<path d="M487.65,369.22c1.08,0,2,0,3.46,0c0,5.23,0,10.32,0,15.58c2.27,0.26,4.04,0.46,6.16,0.7c0.11,0.85,0.23,1.74,0.39,2.97
		c-3.39,0-6.48,0-10.01,0C487.65,382.29,487.65,376.07,487.65,369.22z"/>
	<path d="M514.28,369.06c1.14,0.06,2.07,0.11,3.47,0.18c0,5.3,0,10.39,0,15.72c2.22,0.18,3.98,0.32,5.93,0.48
		c0.13,0.94,0.24,1.7,0.41,2.91c-3.33,0-6.36,0-9.81,0C514.28,382.13,514.28,375.91,514.28,369.06z"/>
	<path d="M647.43,388.45c-1.42,0.12-2.05,0.17-3.27,0.27c0-5.35,0-10.58,0-15.97c-2.06-0.46-3.6-0.8-5.22-1.15c0-0.81,0-1.44,0-2.37
		c4.36,0,8.63,0,13.25,0c0.15,0.6,0.32,1.31,0.57,2.32c-1.8,0.35-3.35,0.66-5.33,1.05C647.43,377.78,647.43,382.88,647.43,388.45z"
		/>
	<path d="M407.68,388.46c-1.12,0-2.02,0-3.2,0c0-6.44,0-12.65,0-19.14c1.07-0.1,1.98-0.18,3.2-0.29
		C407.68,375.59,407.68,381.95,407.68,388.46z"/>
	<path class="st0" d="M627.45,265.21c-18.07,0-35.81,0-54.43,0c18.33-31.74,36.28-62.83,54.78-94.88
		c9.31,16.03,18.26,31.45,27.29,47.01C645.83,233.39,636.61,249.34,627.45,265.21z"/>
	<path class="st0" d="M657.82,217.46c9.05-15.68,17.9-31.03,27.23-47.18c18.43,31.9,36.4,63.01,54.81,94.88
		c-18.72,0-36.42,0-54.42,0C676.3,249.38,667.15,233.57,657.82,217.46z"/>
	<path class="st0" d="M684.39,268.18c8.99,15.57,17.85,30.92,26.92,46.64c-36.8,0-72.85,0-109.69,0
		c9.12-15.84,17.95-31.19,26.85-46.64C647.05,268.18,665.48,268.18,684.39,268.18z"/>
	<path class="st0" d="M714.06,314.81c-9.24-16.03-17.9-31.07-26.85-46.6c18.13,0,35.52,0,53.77,0
		C732.04,283.68,723.32,298.78,714.06,314.81z"/>
	<path class="st0" d="M656.45,215.05c-9.03-15.68-17.63-30.6-26.6-46.18c18.04,0,35.34,0,53.25,0
		C674.26,184.19,665.58,199.22,656.45,215.05z"/>
	<path class="st0" d="M572.98,268.16c17.86,0,34.95,0,52.81,0c-8.87,15.33-17.46,30.18-26.45,45.71
		C590.38,298.32,581.79,283.44,572.98,268.16z"/>
	<path class="st0" d="M656.46,219.8c8.91,15.45,17.35,30.1,26.15,45.37c-17.56,0-34.41,0-52.31,0
		C639.06,249.99,647.54,235.28,656.46,219.8z"/>
	<path class="st0" d="M307.22,309.9c0.01,9.13-6.23,14.91-16.21,15.02c-9.88,0.12-16.17-5.75-16.08-14.99
		c0.09-8.96,6.63-14.98,16.31-15C301.36,294.91,307.21,300.39,307.22,309.9z"/>
	<path class="st0" d="M290.75,373.78c-4.28-1.21-8.26-1.9-11.86-3.45c-4.82-2.08-6.96-7.27-5.63-12.03
		c1.38-4.93,6.62-9.19,11.19-9.16c3.82,0.03,7.64-0.08,11.46-0.01c1.99,0.04,4,0.17,5.95,0.54c5.51,1.02,8.71,3.99,9.26,8.35
		c0.59,4.68-2.01,9.87-6.71,11.75C299.99,371.55,295.25,372.5,290.75,373.78z"/>
	<path class="st0" d="M205.23,320.83c-10.28,0-20.04,0-30.36,0c4.98-13.76,9.86-27.24,15.13-41.79
		C195.3,293.55,200.2,307,205.23,320.83z"/>
	<path class="st0" d="M335.06,318.25c1.11-4.29,1.74-8.79,3.43-12.84c2.9-6.91,9.88-10.85,16.76-10.25
		c7.63,0.66,13.23,5.27,15.28,12.93c2.06,7.72,2.15,15.45-0.86,23.01c-2.91,7.29-8.78,11.12-16.71,10.98
		c-7.17-0.13-12.68-4.21-15.3-11.41c-0.62-1.71-1.21-3.47-1.48-5.26c-0.35-2.29-0.36-4.63-0.51-6.95
		C335.46,318.38,335.26,318.31,335.06,318.25z"/>
	<path class="st0" d="M524.99,309.68c0.95-9.37,7.3-15.21,15.79-14.89c8.33,0.32,13.25,5.56,13.61,14.89
		C544.7,309.68,535,309.68,524.99,309.68z"/>
	<path class="st0" d="M586.87,378.8c-0.01,3.75-2.33,6.66-5.31,6.68c-2.89,0.02-5.14-2.97-5.14-6.8c0-3.75,2.33-6.66,5.33-6.64
		C584.75,372.05,586.88,374.87,586.87,378.8z"/>
	<path class="st0" d="M671.45,378.53c0.06,3.8-2.1,6.71-5.08,6.85c-3.13,0.15-5.24-2.45-5.25-6.48c-0.01-3.98,2-6.77,4.97-6.88
		C669.11,371.91,671.39,374.68,671.45,378.53z"/>
	<path class="st0" d="M429.59,378.83c-0.01,3.76-2.32,6.69-5.26,6.68c-2.85-0.01-5.21-3.13-5.18-6.85c0.03-3.51,2.61-6.64,5.45-6.64
		C427.61,372.04,429.6,374.75,429.59,378.83z"/>
	<path class="st0" d="M557.05,385.43c0-2.05,0-3.6,0-5.78c1.88,0.58,3.32,1.02,4.69,1.43C562.37,385.14,560.18,385.53,557.05,385.43
		z"/>
	<path class="st0" d="M556.79,371.51c2.24,0.69,3.67,1.12,5.13,1.57c-0.43,3.25-2.06,4.05-4.87,3.73
		C556.98,375.38,556.91,373.98,556.79,371.51z"/>
	<path class="st0" d="M685.9,371.22c2.47,1.15,3.88,1.8,6.4,2.97c-2.26,1.69-3.59,2.69-5.79,4.34
		C686.28,375.79,686.15,374.27,685.9,371.22z"/>
	<path class="st0" d="M626.41,375.78c0.57,1.6,1.14,3.2,1.84,5.17c-1.67,0-2.87,0-4.55,0c0.65-1.99,1.17-3.6,1.7-5.22
		C625.73,375.75,626.07,375.77,626.41,375.78z"/>
	<path class="st0" d="M602.31,371.61c1.61,0.53,2.76,0.91,3.53,1.16c1.34,2.47,0.3,3.74-3.53,4.7
		C602.31,375.73,602.31,374.07,602.31,371.61z"/>
	<path class="st0" d="M537.46,374.34c0.9,2.6,1.48,4.28,2.22,6.44c-1.63,0-2.94,0-4.62,0C535.82,378.73,536.48,376.96,537.46,374.34
		z"/>
	<path class="st0" d="M469.51,381.12c0.79-2.2,1.37-3.79,2.3-6.37c1.01,2.42,1.65,3.96,2.56,6.14
		C472.61,380.97,471.34,381.03,469.51,381.12z"/>
	<path class="st0" d="M374.44,381.2c-2.11-0.16-3.19-0.24-4.81-0.36c0.71-1.95,1.29-3.53,1.87-5.11c0.33,0.02,0.65,0.03,0.98,0.05
		C373.04,377.34,373.61,378.91,374.44,381.2z"/>
</g>
</svg>
