<?xml version="1.0" encoding="utf-8"?>
<!-- Generator: Adobe Illustrator 19.0.0, SVG Export Plug-In . SVG Version: 6.00 Build 0)  -->
<svg version="1.1" id="layer" xmlns="http://www.w3.org/2000/svg" xmlns:xlink="http://www.w3.org/1999/xlink" x="0px" y="0px"
	 viewBox="-153 -46 652 652" style="enable-background:new -153 -46 652 652;" xml:space="preserve">
<path d="M459.8,271.5c-0.2-1.5-0.7-2.6-1.5-3.5c-0.8-0.8-1.9-1.2-3.3-1.2c-2.8,0-4.5,1.6-5.1,4.7H459.8z M468.9,286.6
	c-1.4,0.9-3.1,1.7-5.2,2.2c-2,0.5-4.1,0.8-6.3,0.8c-2.6,0-5-0.3-7.1-1c-2.1-0.7-3.9-1.7-5.3-3c-1.5-1.3-2.6-2.9-3.4-4.7
	c-0.8-1.9-1.2-3.9-1.2-6.2c0-2.2,0.4-4.2,1.1-6.1c0.7-1.8,1.7-3.4,3-4.7c1.3-1.3,2.9-2.3,4.7-3.1c1.8-0.7,3.8-1.1,6-1.1
	c2.1,0,4,0.3,5.7,1c1.7,0.7,3.2,1.6,4.4,2.8c1.2,1.2,2.1,2.7,2.8,4.4c0.6,1.7,1,3.7,1,5.9c0,1.3-0.1,2.5-0.3,3.4h-18.5
	c1,3.2,3.7,4.8,8.2,4.8c1.2,0,2.5-0.2,3.8-0.5c1.4-0.3,2.6-0.7,3.6-1.1L468.9,286.6z M439.1,286.9c-1.3,0.8-2.8,1.5-4.5,1.9
	c-1.7,0.4-3.5,0.7-5.2,0.7c-2.5,0-4.7-0.3-6.6-1c-1.9-0.7-3.6-1.7-4.9-3c-1.3-1.3-2.4-2.8-3.1-4.6c-0.7-1.8-1-3.8-1-6.1
	c0-2.2,0.4-4.2,1.1-6.1c0.8-1.8,1.8-3.4,3.2-4.7c1.4-1.3,3-2.3,4.9-3.1c1.9-0.7,4-1.1,6.3-1.1c3.2,0,5.9,0.5,8,1.6l-1.3,8.3
	c-0.7-0.4-1.6-0.7-2.7-0.9c-1.1-0.2-2-0.3-2.7-0.3c-2.2,0-3.9,0.5-5.2,1.6c-1.3,1.1-1.9,2.6-1.9,4.5c0,1.9,0.6,3.4,1.9,4.5
	c1.3,1.1,3,1.6,5.3,1.6c0.7,0,1.5-0.1,2.4-0.2c0.9-0.1,1.7-0.3,2.4-0.6L439.1,286.9z M395.5,280.9c1.7,0,3-0.6,4.1-1.7
	c1.1-1.1,1.6-2.6,1.6-4.5c0-1.9-0.5-3.4-1.6-4.5c-1.1-1.1-2.4-1.7-4.1-1.7c-1.7,0-3,0.6-4.1,1.7c-1.1,1.1-1.6,2.6-1.6,4.5
	c0,1.9,0.5,3.4,1.6,4.5C392.5,280.3,393.8,280.9,395.5,280.9 M392.8,289.6c-1.9,0-3.6-0.4-5.2-1.1c-1.6-0.7-2.9-1.7-4-3.1
	c-1.1-1.3-2-2.9-2.6-4.7c-0.6-1.8-1-3.8-1-6c0-2.1,0.3-4.1,1-6c0.7-1.8,1.6-3.4,2.8-4.8c1.2-1.3,2.6-2.4,4.2-3.2s3.3-1.1,5.2-1.1
	c1.7,0,3.3,0.4,4.7,1.1c1.4,0.7,2.5,1.7,3.4,3.1l0.1-3.3h9.2v28.1h-9.2l-0.1-3.2c-0.8,1.3-2,2.3-3.4,3
	C396.3,289.2,394.6,289.6,392.8,289.6 M361.4,280.9c1.7,0,3-0.6,4.1-1.7c1.1-1.1,1.6-2.6,1.6-4.5c0-1.9-0.5-3.4-1.6-4.5
	c-1.1-1.1-2.4-1.7-4.1-1.7s-3,0.6-4.1,1.7c-1.1,1.1-1.6,2.6-1.6,4.5c0,1.9,0.5,3.4,1.6,4.5C358.4,280.3,359.7,280.9,361.4,280.9
	 M346.5,260.6h9.2l0.1,3.2c0.8-1.3,2-2.3,3.4-3c1.4-0.7,3.1-1.1,4.9-1.1c1.9,0,3.6,0.4,5.2,1.1c1.6,0.7,2.9,1.7,4,3.1
	c1.1,1.3,2,2.9,2.6,4.7c0.6,1.8,1,3.8,1,6c0,2.1-0.3,4.1-1,6c-0.7,1.8-1.6,3.4-2.8,4.8c-1.2,1.3-2.6,2.4-4.2,3.2s-3.3,1.1-5.2,1.1
	c-1.5,0-3-0.3-4.3-0.9c-1.3-0.6-2.4-1.4-3.2-2.5V301h-9.8V260.6z M331.5,266.8c-2,0-3,0.5-3,1.6c0,0.6,0.3,1,0.9,1.4
	c0.6,0.3,1.7,0.7,3.3,1.1c3.4,0.8,5.9,2,7.4,3.5c1.5,1.5,2.3,3.6,2.3,6.1c0,2.8-1.1,5-3.3,6.6c-2.2,1.6-5.3,2.3-9.4,2.3
	c-2.2,0-4.3-0.2-6.3-0.7c-2-0.5-3.7-1.2-4.9-2l3.2-5.8c1.1,0.4,2.3,0.8,3.7,1c1.3,0.3,2.6,0.4,3.7,0.4c2.4,0,3.5-0.6,3.5-1.7
	c0-0.3-0.1-0.5-0.2-0.8s-0.3-0.4-0.6-0.6c-0.3-0.2-0.7-0.4-1.3-0.5c-0.5-0.2-1.2-0.4-2.1-0.6c-1.7-0.4-3.2-0.9-4.4-1.5
	c-1.2-0.6-2.2-1.3-3-2c-0.8-0.8-1.3-1.6-1.7-2.6c-0.4-1-0.5-2.1-0.5-3.4c0-2.8,1.1-5,3.2-6.6c2.1-1.6,5.1-2.4,8.9-2.4
	c1.9,0,3.8,0.2,5.6,0.6c1.8,0.4,3.4,0.9,4.6,1.6l-1,7c-1.3-0.7-2.7-1.2-4.3-1.6C334.3,267,332.8,266.8,331.5,266.8 M300,281.4
	c1.9,0,3.3-0.6,4.4-1.8c1.1-1.2,1.7-2.8,1.7-4.9c0-2-0.6-3.6-1.7-4.9c-1.1-1.2-2.6-1.9-4.4-1.9c-1.9,0-3.3,0.6-4.5,1.9
	c-1.1,1.2-1.7,2.9-1.7,4.9c0,2,0.6,3.7,1.7,4.9C296.7,280.7,298.1,281.4,300,281.4 M300,289.6c-2.3,0-4.3-0.4-6.2-1.1
	c-1.9-0.7-3.5-1.8-4.9-3.1c-1.4-1.3-2.4-2.9-3.2-4.7c-0.8-1.8-1.2-3.8-1.2-6c0-2.1,0.4-4.1,1.2-5.9c0.8-1.8,1.9-3.4,3.2-4.7
	c1.4-1.3,3-2.4,4.9-3.1c1.9-0.7,3.9-1.1,6.2-1.1c2.2,0,4.3,0.4,6.2,1.1c1.9,0.7,3.5,1.8,4.9,3.1c1.4,1.3,2.5,2.9,3.2,4.7
	c0.8,1.8,1.1,3.8,1.1,6c0,2.1-0.4,4.1-1.2,5.9c-0.8,1.8-1.9,3.4-3.2,4.7c-1.4,1.3-3,2.4-4.9,3.1C304.3,289.2,302.2,289.6,300,289.6
	 M262.7,260.6h9.5l0.1,4.2c0.7-1.5,1.6-2.7,2.8-3.5c1.2-0.8,2.6-1.2,4.2-1.2c1.2,0,2.3,0.2,3.2,0.6l-0.8,9.3
	c-0.5-0.2-1.1-0.4-1.7-0.5c-0.7-0.1-1.3-0.2-1.9-0.2c-3.8,0-5.7,2.5-5.7,7.5v12.1h-9.8V260.6z M248.9,271.5
	c-0.2-1.5-0.7-2.6-1.5-3.5c-0.8-0.8-1.9-1.2-3.3-1.2c-2.8,0-4.5,1.6-5.1,4.7H248.9z M258,286.6c-1.4,0.9-3.1,1.7-5.2,2.2
	c-2,0.5-4.1,0.8-6.3,0.8c-2.6,0-5-0.3-7.1-1c-2.1-0.7-3.9-1.7-5.3-3c-1.5-1.3-2.6-2.9-3.4-4.7c-0.8-1.9-1.2-3.9-1.2-6.2
	c0-2.2,0.4-4.2,1.1-6.1c0.7-1.8,1.7-3.4,3-4.7c1.3-1.3,2.9-2.3,4.7-3.1c1.8-0.7,3.8-1.1,6-1.1c2.1,0,4,0.3,5.7,1
	c1.7,0.7,3.2,1.6,4.4,2.8c1.2,1.2,2.1,2.7,2.8,4.4c0.6,1.7,1,3.7,1,5.9c0,1.3-0.1,2.5-0.3,3.4h-18.5c1,3.2,3.7,4.8,8.2,4.8
	c1.2,0,2.5-0.2,3.8-0.5c1.4-0.3,2.6-0.7,3.6-1.1L258,286.6z M211.4,270.8l-4.7-14.1l-4.7,14.1H211.4z M201.4,247.3h11.3l16.2,41.5
	h-11.5l-3.2-9.5h-15.1l-3.2,9.5h-10.9L201.4,247.3z M161.6,266.8c-2,0-3,0.5-3,1.6c0,0.6,0.3,1,0.9,1.4c0.6,0.3,1.7,0.7,3.3,1.1
	c3.4,0.8,5.9,2,7.4,3.5c1.5,1.5,2.3,3.6,2.3,6.1c0,2.8-1.1,5-3.3,6.6c-2.2,1.6-5.3,2.3-9.4,2.3c-2.2,0-4.3-0.2-6.3-0.7
	c-2-0.5-3.7-1.2-4.9-2l3.2-5.8c1.1,0.4,2.3,0.8,3.7,1c1.3,0.3,2.6,0.4,3.7,0.4c2.4,0,3.5-0.6,3.5-1.7c0-0.3-0.1-0.5-0.2-0.8
	c-0.1-0.2-0.3-0.4-0.6-0.6c-0.3-0.2-0.7-0.4-1.3-0.5c-0.5-0.2-1.2-0.4-2.1-0.6c-1.7-0.4-3.2-0.9-4.4-1.5c-1.2-0.6-2.2-1.3-3-2
	c-0.8-0.8-1.3-1.6-1.7-2.6c-0.4-1-0.5-2.1-0.5-3.4c0-2.8,1.1-5,3.2-6.6c2.1-1.6,5.1-2.4,8.9-2.4c1.9,0,3.8,0.2,5.6,0.6
	c1.8,0.4,3.4,0.9,4.6,1.6l-1,7c-1.3-0.7-2.7-1.2-4.3-1.6C164.4,267,163,266.8,161.6,266.8 M116.8,260.6h9.6l0.1,3.5
	c0.7-1.4,1.8-2.5,3.2-3.2c1.4-0.8,3-1.1,4.9-1.1c3.2,0,5.7,1,7.3,3c1.7,2,2.5,5,2.5,8.9v17.1h-9.8v-15.3c0-3.3-1.3-5-3.8-5
	c-1.4,0-2.4,0.5-3.1,1.4c-0.7,0.9-1.1,2.3-1.1,4v14.9h-9.8V260.6z M100.6,260.6h9.8v28.1h-9.8V260.6z M105.6,256.2
	c-1.6,0-2.9-0.5-3.9-1.5c-1.1-1-1.6-2.2-1.6-3.7c0-1.5,0.5-2.8,1.6-3.8c1.1-1,2.4-1.5,3.9-1.5c1.6,0,2.9,0.5,3.9,1.5
	c1.1,1,1.6,2.3,1.6,3.8c0,1.5-0.5,2.8-1.6,3.8C108.4,255.7,107.1,256.2,105.6,256.2 M83.8,247.3h9.8v41.5h-9.8V247.3z M67.8,247.3
	h9.8v41.5h-9.8V247.3z M48.2,281.4c1.9,0,3.3-0.6,4.4-1.8c1.1-1.2,1.7-2.8,1.7-4.9c0-2-0.6-3.6-1.7-4.9c-1.1-1.2-2.6-1.9-4.4-1.9
	s-3.3,0.6-4.5,1.9c-1.1,1.2-1.7,2.9-1.7,4.9c0,2,0.6,3.7,1.7,4.9C44.8,280.7,46.3,281.4,48.2,281.4 M48.2,289.6
	c-2.3,0-4.3-0.4-6.2-1.2c-1.9-0.8-3.5-1.9-4.9-3.3c-1.4-1.4-2.5-3-3.3-4.9c-0.8-1.9-1.2-3.9-1.2-6.1c0-2.1,0.4-4.1,1.2-5.9
	c0.8-1.8,1.9-3.3,3.3-4.5c1.4-1.3,3-2.2,4.9-2.9c1.9-0.7,4-1,6.2-1c2.2,0,4.3,0.4,6.2,1.1c1.9,0.7,3.5,1.8,4.9,3.1
	c1.4,1.3,2.5,2.9,3.2,4.7c0.8,1.8,1.1,3.8,1.1,6c0,2.1-0.4,4.1-1.2,5.9c-0.8,1.8-1.9,3.4-3.2,4.7c-1.4,1.3-3,2.4-4.9,3.1
	C52.5,289.2,50.4,289.6,48.2,289.6 M30.3,284.8c-1.9,1.5-4.2,2.6-6.8,3.4c-2.6,0.8-5.3,1.1-8.2,1.1c-3.3,0-6.3-0.5-9-1.4
	c-2.6-0.9-4.9-2.3-6.7-4.1c-1.9-1.8-3.3-4-4.3-6.7c-1-2.6-1.5-5.6-1.5-9c0-3.2,0.6-6.1,1.7-8.7c1.1-2.6,2.7-4.9,4.7-6.8
	c2-1.9,4.4-3.4,7.2-4.4c2.8-1.1,5.8-1.6,9.2-1.6c1.2,0,2.4,0.1,3.7,0.2c1.3,0.2,2.5,0.4,3.7,0.7c1.2,0.3,2.3,0.7,3.4,1.1
	c1.1,0.4,2,0.9,2.8,1.3l-4.5,8.5c-0.8-0.4-1.5-0.7-2.2-1c-0.7-0.3-1.3-0.5-1.9-0.7c-0.6-0.2-1.3-0.3-2-0.4c-0.7-0.1-1.5-0.1-2.3-0.1
	c-3.7,0-6.7,1-8.8,3.1c-2.1,2.1-3.2,5-3.2,8.6c0,1.7,0.3,3.3,0.8,4.7c0.5,1.4,1.3,2.6,2.3,3.7c1,1,2.2,1.8,3.6,2.4
	c1.4,0.6,3,0.8,4.7,0.8c1.7,0,3.3-0.3,4.8-0.8c1.5-0.6,3-1.4,4.4-2.4L30.3,284.8z M-90.9,224.6c1.1-0.2,2.2-0.4,3.4-0.6l5.3,30.2
	c-1.2,0.1-2.3,0.3-3.4,0.6L-90.9,224.6z M-92.2,257.9c1.1-0.8,2.3-1.5,3.6-2l-15.2-26.6c-1.2,0.6-2.4,1.3-3.5,2.1L-92.2,257.9z
	 M-100.9,274.6c0-1.1,0.1-2.3,0.3-3.3h-30.3c-0.1,1.1-0.1,2.1-0.1,3.2c0,1,0,2,0.1,3h30.3C-100.8,276.6-100.9,275.6-100.9,274.6
	 M-59.8,274.6c0,11.3-9.2,20.5-20.5,20.5c-10.2,0-18.6-7.4-20.2-17.1l-28.5,10.4c0.6,2.2,1.4,4.4,2.3,6.5l28.3-10.4l-23.1,19.5
	c1.5,2.1,3.1,4,4.8,5.8l21.6-18.3l-14.1,24.7c2.2,1.6,4.6,3,7.1,4.1l13.2-23.2l-4.6,26.4c2.8,0.8,5.8,1.3,8.8,1.5l4.3-24.7l4.3,24.7
	c3.1-0.3,6.2-0.8,9.2-1.6l-4-22.9l11.6,20.1c3.2-1.4,6.2-3.2,8.9-5.2l-10.6-18.5l16.2,13.7c2.6-2.6,4.9-5.4,6.9-8.4l-14.5-12.2
	l17.7,6.5c1.6-3.4,2.9-7,3.8-10.8l-15.6-5.7H-30c0.2-1.9,0.3-3.8,0.3-5.8c0-2.3-0.2-4.5-0.4-6.7H-61
	C-60.2,270-59.8,272.3-59.8,274.6 M-100.4,270c0.4-1.8,1.1-3.5,1.9-5.1l-28.5-10.5c-0.7,1.7-1.3,3.4-1.9,5.2L-100.4,270z M-42.2,241
	l-23.2,19.6c0.6,0.6,1.1,1.2,1.6,1.9l23.2-19.6C-41.1,242.2-41.6,241.6-42.2,241 M-53.7,231.1c-0.8-0.5-1.6-1-2.5-1.5l-15.2,26.5
	c0.9,0.4,1.7,0.9,2.5,1.4L-53.7,231.1z M-94.3,259.6l-23.3-19.7c-1.1,1.2-2.1,2.4-3.1,3.7l23.2,19.6
	C-96.5,261.9-95.5,260.7-94.3,259.6 M-78.3,254.2c1,0.1,2.1,0.3,3,0.5l5.3-30.2c-1-0.2-2-0.4-3-0.5L-78.3,254.2z"/>
</svg>
