<?xml version="1.0" encoding="utf-8"?>
<!-- Generator: Adobe Illustrator 24.1.2, SVG Export Plug-In . SVG Version: 6.00 Build 0)  -->
<svg version="1.1" id="Layer_1" xmlns="http://www.w3.org/2000/svg" xmlns:xlink="http://www.w3.org/1999/xlink" x="0px" y="0px"
	 viewBox="0 0 666 248" style="enable-background:new 0 0 666 248;" xml:space="preserve">
<style type="text/css">
	.st0{fill:#FFFFFF;}
</style>
<g>
	<path class="st0" d="M666,247.99C444.04,248,222.07,248,0,248C0,165.39,0,82.76,0,0c221.93,0,443.96,0,666,0
		C666,82.59,666,165.29,666,247.99z M167.45,167.48c0.19-0.29,0.37-0.57,0.56-0.86c5.4,2.4,10.8,4.8,16.97,7.54
		c2.94-6.48,5.78-12.76,8.76-19.33c-5.5-2.62-10.26-4.89-15.02-7.16c0.13-0.31,0.25-0.62,0.38-0.93c5.23,0.5,10.47,1,16.41,1.57
		c0.87-7.29,1.68-14.07,2.51-21.01c-19.5,0-37.92,0-56.28,0c-5.73,24.82-19.65,36.79-40,34.61c-17.71-1.9-31.44-17.11-31.48-34.97
		c-0.02-8.85,2.84-16.72,8.71-23.34c8.12-9.15,18.55-12.94,31.14-12.29c0-18.93,0-37.48,0-56.05c-3.18,0-5.95,0-9.09,0
		c0,18.14,0,35.97,0,53.79c-0.25,0.03-0.5,0.06-0.75,0.09c-4.55-17.27-9.11-34.54-13.78-52.26c-3.39,0.89-6.37,1.68-9.77,2.57
		c4.74,17.18,9.37,33.92,14,50.67c-0.26,0.11-0.52,0.22-0.78,0.33C81.27,75.32,72.6,60.22,63.71,44.72
		c-3.32,1.99-6.22,3.73-9.39,5.62c8.72,14.4,17.12,28.28,25.52,42.16c-0.53,0.43-1.06,0.87-1.59,1.3
		C67.03,82.01,55.8,70.21,44.8,58.65c-3.21,2.87-5.84,5.22-8.65,7.73C47.6,77.28,58.66,87.79,69.71,98.3
		c-0.18,0.27-0.36,0.54-0.54,0.81c-13.43-7.7-26.86-15.39-40.66-23.3c-2.12,3.8-3.94,7.05-5.87,10.51
		c13.04,7.19,25.52,14.06,38,20.93c-0.13,0.33-0.27,0.66-0.4,0.99c-13.87-3.8-27.73-7.6-42.04-11.52
		c-1.15,4.29-2.17,8.06-3.31,12.31c13.75,3.4,27,6.67,40.25,9.94c-0.06,0.36-0.13,0.71-0.19,1.07c-13.62,0-27.23,0-41.21,0
		c0,4.53,0,8.7,0,13.12c13.34,0,26.06,0,38.79,0c0.06,0.29,0.11,0.57,0.17,0.86c-12.57,3.18-25.14,6.35-38.17,9.65
		c1.38,4.86,2.57,9.05,3.81,13.4c12.1-3.27,23.44-6.34,34.78-9.4c0.13,0.31,0.25,0.63,0.38,0.94
		c-10.39,5.78-20.78,11.56-31.61,17.58c2.58,4.42,4.89,8.38,7.36,12.61c9.73-5.58,18.92-10.86,28.12-16.14
		c0.11,0.23,0.21,0.46,0.32,0.7c-7.35,7.66-14.69,15.31-22.56,23.51c3.22,3.26,6.55,6.64,11.33,11.49
		c7.28-8.05,13.96-15.43,20.64-22.81c0.27,0.25,0.54,0.51,0.8,0.76c-5.03,8.55-10.06,17.1-15.35,26.11
		c4.78,2.72,9.15,5.2,13.67,7.77c4.95-8.37,9.49-16.06,14.04-23.75c0.28,0.12,0.55,0.23,0.83,0.35c-2.33,8.74-4.66,17.49-7.14,26.8
		c5.59,1.38,10.63,2.62,15.83,3.91c2.43-8.67,4.63-16.51,6.83-24.34c0.44,0.08,0.87,0.16,1.31,0.23c0,8.23,0,16.46,0,24.8
		c5.92,0,11.28,0,17.08,0c0-8.18,0-15.7,0-23.22c0.29-0.04,0.59-0.09,0.88-0.13c2.17,7.37,4.34,14.74,6.65,22.58
		c5.92-1.73,11.28-3.29,17.06-4.98c-2.02-7.45-3.87-14.31-5.73-21.17c0.3-0.11,0.61-0.22,0.91-0.34c3.8,6,7.6,12,11.78,18.6
		c5.51-3.53,10.71-6.87,15.96-10.23c-3.88-6.26-7.23-11.67-10.58-17.08c0.27-0.21,0.54-0.42,0.81-0.63
		c4.85,4.23,9.7,8.46,15.19,13.24c4.5-5.09,8.83-9.99,13.28-15.03C176.22,175.33,171.83,171.4,167.45,167.48z M242.94,87.18
		c0,3.39,0.03,6.22-0.01,9.04c-0.05,3.56-1.24,6.41-5.33,6.41c-4.14,0-5.18-2.84-5.16-6.44c0.04-12.34,0.03-24.67,0.02-37.01
		c0-3.58,0.98-6.38,5.24-6.31c4.23,0.06,5.16,2.99,5.23,6.47c0.06,2.93,0.01,5.86,0.01,9.22c5.52,0,10.33,0.03,15.13-0.02
		c1.13-0.01,2.25-0.25,3.76-0.44c0-2.98,0.07-5.78-0.01-8.58c-0.34-11.2-6.08-18.46-17.02-20.13c-5.15-0.79-10.69-0.57-15.82,0.4
		c-9.17,1.75-14.68,7.56-15.09,16.8c-0.62,13.95-0.67,27.97,0.01,41.91c0.48,10.01,6.38,15.95,16.21,17.41
		c5.17,0.77,10.66,0.73,15.81-0.14c8.54-1.43,13.99-6.83,15.34-15.57c0.65-4.19,0.51-8.5,0.74-13.03
		C255.39,87.18,249.47,87.18,242.94,87.18z M237.95,192.68c0.94,4.81,1.86,9.48,2.76,14.09c5.97,0,11.56,0,17.52,0
		c-4.55-24.9-9.04-49.42-13.55-74.12c-8.59,0-16.86,0-25.69,0c-3.15,24.92-12.55,48.72-10.94,74.25c4.95,0,9.25,0,13.88,0
		c0.81-4.79,1.61-9.45,2.42-14.22C229.03,192.68,233.31,192.68,237.95,192.68z M470.64,204.5c6.47,5.33,12.76,5.62,18.97,2.49
		c6.29-3.17,6.8-9.33,6.78-15.52c-0.03-8.5-0.01-17,0-25.5c0.01-6.35-1.26-12.33-7.86-14.82c-6.51-2.45-13.04-2.32-17.73,2.79
		c-5.65-4.77-11.8-1.54-17.44-2.35c0,25.07,0,49.48,0,73.88c5.9,0,11.44,0,17.29,0C470.64,218.61,470.64,212.14,470.64,204.5z
		 M409.77,59.51c0,19.17,0,37.2,0,55.11c6,0,11.56,0,17.29,0c0-11.75-0.02-23.07,0.01-34.39c0.01-3.43-0.7-8.07,4.28-7.98
		c4.77,0.08,3.68,4.7,3.7,7.85c0.09,11.45,0.04,22.9,0.04,34.53c6.19,0,11.86,0,17.74,0c0-14.72,0.27-29.04-0.09-43.33
		c-0.24-9.47-8.16-15.05-17.38-12.52c-3.34,0.92-6.35,3.07-9.14,4.47C421.91,56.27,415.25,61.62,409.77,59.51z M523.6,169.44
		c0.1-1.15-0.11-2.3,0.33-3.06c0.9-1.55,1.89-3.45,3.34-4.12c0.99-0.46,3.99,0.77,4.08,1.49c0.23,1.89,0,4.92-1.2,5.7
		c-3.57,2.31-7.65,3.9-11.63,5.51c-11.26,4.56-14.95,11.2-12.71,23.18c1.23,6.56,5.31,10.83,11.9,10.46c5-0.28,9.89-2.48,15.19-3.92
		c0.18,0.18,1.2,2.17,2.35,2.25c5.06,0.35,10.16,0.15,14.42,0.15c0-12.97,0.05-25.28-0.02-37.58c-0.06-10.65-4.97-16.81-15.45-18.86
		c-3.69-0.73-7.65-0.92-11.39-0.47c-11.01,1.32-17.87,10.07-15.52,19.69c4.54,0,9.17,0.02,13.8-0.02
		C521.89,169.82,522.68,169.59,523.6,169.44z M271.06,86.94c0,3.66-0.08,7.33,0.02,10.99c0.27,9.98,5.41,16.4,15.2,18.08
		c4.17,0.71,8.64,0.7,12.82,0.02c9.22-1.5,14.39-6.81,14.96-16.01c0.55-8.93,0.54-17.98-0.17-26.9
		c-0.71-8.89-7.84-14.53-17.59-15.24c-12.88-0.94-21.53,3.35-24.15,12.2c-0.7,2.36-0.92,4.9-1.05,7.38
		C270.92,80.6,271.05,83.77,271.06,86.94z M348.97,179.2c0,4.16-0.14,8.33,0.03,12.49c0.31,7.68,4.46,13.26,11.72,15.72
		c6.5,2.21,13.09,2.21,19.58-0.04c7.42-2.57,11.57-8.33,11.69-16.26c0.11-7.83,0.12-15.66,0-23.48c-0.12-7.66-4.21-13.49-11.3-16.05
		c-6.8-2.45-13.72-2.46-20.52,0.03c-6.97,2.56-10.64,7.79-11.13,15.11C348.76,170.86,348.99,175.03,348.97,179.2z M305.27,188.36
		c-5.37,0-10.76,0-16.25,0c-0.07,1.47,0.24,2.83-0.27,3.73c-1,1.77-2.26,4.37-3.78,4.66c-3.13,0.58-4.07-2.04-4.03-4.88
		c0.04-2.78,0.01-5.56,0.01-8.85c4.48,0,8.43,0,12.38,0c3.94,0,7.88,0,12.01,0c0-6.19,0.53-11.85-0.12-17.38
		c-1.13-9.53-6.96-14.67-16.52-15.62c-16.68-1.65-24.62,5.57-24.63,22.39c0,4.83,0,9.65,0,14.48c0,16.16,8.13,23.55,24.12,21.94
		C299.76,207.64,305.77,200.55,305.27,188.36z M653.13,188.44c-5.34,0-10.69,0-16.27,0c0,1.56,0.42,2.97-0.09,3.82
		c-1.04,1.73-2.58,3.16-3.92,4.71c-1.29-1.6-3.3-3.03-3.71-4.83c-0.63-2.79-0.17-5.83-0.17-9.27c8.56,0,16.46,0,24.59,0
		c0-5.81,0.49-11.15-0.1-16.37c-1.26-11.12-8.01-16.51-19.84-16.59c-13.82-0.09-21.29,6.3-21.5,18.61
		c-0.13,7.49-0.2,14.99,0.02,22.47c0.29,9.62,5.3,15.66,14.79,17.24c4.15,0.69,8.67,0.62,12.8-0.2
		C649.31,206.11,654.21,198.59,653.13,188.44z M442.51,169.03c0.87-8.56-2.73-14.85-10.25-17.52c-6.81-2.43-13.76-2.41-20.55,0.16
		c-7.6,2.88-11.27,9.37-10.34,17.42c0.9,7.76,6.5,11.11,12.66,14.15c3.72,1.83,7.52,3.66,10.79,6.15c1.23,0.94,1.87,4.01,1.29,5.55
		c-0.48,1.28-3.32,2.64-4.78,2.34c-1.67-0.34-3.36-2.25-4.32-3.9c-0.74-1.27-0.38-3.18-0.53-5.04c-5.47,0-10.71,0-15.9,0
		c-0.89,8.38,2.29,15.07,9.07,18.05c8.86,3.9,17.97,3.83,26.54-0.69c10.86-5.73,11.43-20.4,1.17-27.1
		c-4.02-2.62-8.54-4.48-12.81-6.74c-1.76-0.93-3.78-1.69-5.07-3.09c-1.08-1.17-1.91-3.27-1.65-4.75c0.2-1.12,2.37-2.76,3.51-2.65
		c1.69,0.16,3.68,1.34,4.75,2.71c0.98,1.25,0.92,3.32,1.3,4.94C432.67,169.03,437.61,169.03,442.51,169.03z M461.27,96.17
		c-0.78,8.95,2.45,15.34,9.59,18.26c8.4,3.44,16.94,3.17,25.2-0.58c10.54-4.78,13.1-21.23,1.78-27.67
		c-3.61-2.05-7.37-3.84-11.04-5.8c-2.34-1.25-4.96-2.25-6.82-4.02c-1.16-1.1-1.87-3.66-1.41-5.15c0.34-1.11,3.05-2.38,4.36-2.08
		c1.55,0.35,3.01,2.14,3.99,3.64c0.61,0.93,0.27,2.49,0.39,4.17c2.97,0,5.6,0,8.24,0c2.59,0,5.18,0,7.73,0
		c0.34-8.98-2.95-14.88-9.83-17.49c-7.26-2.76-14.67-2.77-21.9,0.23c-5.7,2.36-8.99,6.71-9.57,12.92
		c-0.6,6.28,1.25,11.61,6.81,15.02c3.53,2.17,7.37,3.84,11.01,5.83c2.03,1.11,4.33,2.1,5.79,3.77c1.08,1.24,1.8,3.87,1.2,5.21
		c-0.61,1.36-3.11,2.67-4.68,2.56c-1.56-0.11-3.48-1.73-4.35-3.21c-0.84-1.43-0.54-3.53-0.78-5.6
		C471.82,96.17,466.73,96.17,461.27,96.17z M602.59,172.25c1.68-11.01-3.09-19.21-13.43-21.23c-5.52-1.08-11.65-0.82-17.18,0.36
		c-7.67,1.65-11.99,7.89-12.18,15.74c-0.2,8.16-0.18,16.34-0.01,24.51c0.16,7.66,3.98,13.39,11.28,15.35
		c5.28,1.42,11.23,1.92,16.61,1.1c11.39-1.74,16.66-10.06,14.91-21.92c-5.69,0-11.4,0-17.5,0c0,2.32,0.5,4.47-0.14,6.2
		c-0.62,1.68-2.41,2.94-3.68,4.38c-1.29-1.29-3.65-2.54-3.7-3.87c-0.34-8.99-0.34-18-0.01-26.99c0.05-1.33,2.41-2.57,3.7-3.85
		c1.28,1.44,3.06,2.69,3.7,4.37c0.64,1.67,0.14,3.78,0.14,5.85C591.42,172.25,597.03,172.25,602.59,172.25z M370.45,114.79
		c0-25.18,0-49.88,0-74.66c-6.11,0-11.86,0-17.9,0c0,24.99,0,49.69,0,74.66C358.6,114.79,364.35,114.79,370.45,114.79z
		 M341.76,114.87c0-25.25,0-49.97,0-74.66c-6.12,0-11.85,0-17.53,0c0,25.09,0,49.82,0,74.66
		C330.21,114.87,335.82,114.87,341.76,114.87z M343.81,167.03c0-5.87,0-11.38,0-18.71c-4.73,3.01-8.31,5.29-11.72,7.46
		c-0.17-0.96-0.45-2.49-0.74-4.06c-5.26,0-10.18,0-15.22,0c0,18.51,0,36.74,0,55.02c5.72,0,11.11,0,16.84,0c0-9.82,0-19.29,0-28.77
		C332.97,168.66,334.2,167.39,343.81,167.03z M381.25,60.01c0,18.59,0,36.65,0,54.69c6.09,0,11.82,0,17.53,0
		c0-18.41,0-36.47,0-54.69C392.8,60.01,387.19,60.01,381.25,60.01z M125.54,37.23c-4.9,18.56-9.6,36.34-14.36,54.33
		c2.92,0.78,5.22,1.39,7.78,2.07c5.13-18.2,10.13-35.93,15.24-54.05C131.2,38.77,128.7,38.09,125.54,37.23z M148.79,45.65
		c-9.65,16.59-18.96,32.6-28.34,48.73c2.57,1.48,4.52,2.61,6.67,3.85c9.78-16.15,19.33-31.92,29.06-47.99
		C153.75,48.73,151.54,47.36,148.79,45.65z M133.68,104.78c13.74-12.98,27.29-25.77,40.61-38.34c-1.99-2.47-3.41-4.24-5.51-6.84
		c-13.27,14.25-25.89,27.82-38.37,41.22C130.86,101.36,132.12,102.88,133.68,104.78z M184.64,79.88
		c-16.43,9.4-32.52,18.61-48.9,27.99c1.09,1.72,1.92,3.02,2.86,4.5c16.6-9.01,32.79-17.79,49.23-26.72
		C186.71,83.63,185.78,81.93,184.64,79.88z M194.29,102.28c-18.38,4.66-36.4,9.24-54.8,13.9c0.73,1.99,1.21,3.32,1.75,4.81
		c18.19-4.32,36.05-8.57,54.21-12.88C195.06,106.11,194.75,104.57,194.29,102.28z M398.92,41.43c-6.34,0-12.05,0-17.64,0
		c0,4.47,0,8.54,0,12.48c6.11,0,11.83,0,17.64,0C398.92,49.56,398.92,45.63,398.92,41.43z"/>
	<path d="M167.45,167.48c4.39,3.92,8.77,7.85,13.77,12.32c-4.46,5.04-8.78,9.94-13.28,15.03c-5.49-4.78-10.34-9.01-15.19-13.24
		c-0.27,0.21-0.54,0.42-0.81,0.63c3.35,5.41,6.7,10.82,10.58,17.08c-5.25,3.37-10.45,6.7-15.96,10.23
		c-4.18-6.6-7.98-12.6-11.78-18.6c-0.3,0.11-0.61,0.22-0.91,0.34c1.86,6.86,3.71,13.72,5.73,21.17c-5.78,1.69-11.14,3.25-17.06,4.98
		c-2.31-7.84-4.48-15.21-6.65-22.58c-0.29,0.04-0.59,0.09-0.88,0.13c0,7.52,0,15.04,0,23.22c-5.8,0-11.17,0-17.08,0
		c0-8.34,0-16.57,0-24.8c-0.44-0.08-0.87-0.16-1.31-0.23c-2.2,7.84-4.4,15.67-6.83,24.34c-5.2-1.28-10.24-2.53-15.83-3.91
		c2.48-9.31,4.81-18.06,7.14-26.8c-0.28-0.12-0.55-0.23-0.83-0.35c-4.55,7.69-9.09,15.38-14.04,23.75
		c-4.52-2.57-8.89-5.06-13.67-7.77c5.3-9.01,10.33-17.56,15.35-26.11c-0.27-0.25-0.54-0.51-0.8-0.76
		c-6.68,7.38-13.35,14.76-20.64,22.81c-4.78-4.85-8.11-8.23-11.33-11.49c7.87-8.2,15.21-15.86,22.56-23.51
		c-0.11-0.23-0.21-0.46-0.32-0.7c-9.2,5.28-18.4,10.56-28.12,16.14c-2.47-4.23-4.77-8.18-7.36-12.61
		c10.82-6.02,21.22-11.8,31.61-17.58c-0.13-0.31-0.25-0.63-0.38-0.94c-11.34,3.07-22.68,6.13-34.78,9.4
		c-1.24-4.35-2.43-8.55-3.81-13.4c13.03-3.29,25.6-6.47,38.17-9.65c-0.06-0.29-0.11-0.57-0.17-0.86c-12.73,0-25.45,0-38.79,0
		c0-4.42,0-8.59,0-13.12c13.98,0,27.6,0,41.21,0c0.06-0.36,0.13-0.71,0.19-1.07c-13.25-3.27-26.5-6.55-40.25-9.94
		c1.14-4.25,2.16-8.02,3.31-12.31c14.31,3.92,28.17,7.72,42.04,11.52c0.13-0.33,0.27-0.66,0.4-0.99
		c-12.48-6.87-24.96-13.75-38-20.93c1.94-3.47,3.75-6.71,5.87-10.51c13.8,7.91,27.23,15.61,40.66,23.3
		c0.18-0.27,0.36-0.54,0.54-0.81C58.66,87.79,47.6,77.28,36.15,66.39c2.81-2.51,5.44-4.86,8.65-7.73
		C55.8,70.21,67.03,82.01,78.26,93.81c0.53-0.43,1.06-0.87,1.59-1.3c-8.4-13.88-16.81-27.76-25.52-42.16
		c3.16-1.89,6.07-3.64,9.39-5.62c8.89,15.5,17.56,30.6,26.22,45.71c0.26-0.11,0.52-0.22,0.78-0.33c-4.63-16.74-9.25-33.49-14-50.67
		c3.4-0.9,6.38-1.68,9.77-2.57c4.67,17.72,9.22,34.99,13.78,52.26c0.25-0.03,0.5-0.06,0.75-0.09c0-17.82,0-35.65,0-53.79
		c3.15,0,5.91,0,9.09,0c0,18.57,0,37.12,0,56.05c-12.59-0.66-23.02,3.13-31.14,12.29c-5.87,6.62-8.73,14.49-8.71,23.34
		c0.04,17.86,13.77,33.07,31.48,34.97c20.35,2.18,34.27-9.78,40-34.61c18.36,0,36.78,0,56.28,0c-0.83,6.94-1.64,13.72-2.51,21.01
		c-5.94-0.57-11.18-1.07-16.41-1.57c-0.13,0.31-0.25,0.62-0.38,0.93c4.76,2.27,9.52,4.54,15.02,7.16
		c-2.98,6.58-5.82,12.85-8.76,19.33c-6.17-2.74-11.57-5.14-16.97-7.54C167.82,166.9,167.63,167.19,167.45,167.48z"/>
	<path d="M242.94,87.18c6.53,0,12.44,0,19.07,0c-0.23,4.52-0.1,8.84-0.74,13.03c-1.35,8.74-6.8,14.14-15.34,15.57
		c-5.15,0.86-10.65,0.9-15.81,0.14c-9.83-1.46-15.73-7.4-16.21-17.41c-0.67-13.94-0.62-27.96-0.01-41.91
		c0.41-9.25,5.92-15.06,15.09-16.8c5.13-0.98,10.67-1.19,15.82-0.4c10.94,1.67,16.68,8.92,17.02,20.13c0.08,2.8,0.01,5.6,0.01,8.58
		c-1.51,0.18-2.64,0.43-3.76,0.44c-4.81,0.04-9.61,0.02-15.13,0.02c0-3.36,0.05-6.29-0.01-9.22c-0.07-3.48-1-6.41-5.23-6.47
		c-4.26-0.06-5.24,2.73-5.24,6.31c0.01,12.34,0.02,24.67-0.02,37.01c-0.01,3.61,1.03,6.44,5.16,6.44c4.09,0,5.29-2.85,5.33-6.41
		C242.97,93.4,242.94,90.57,242.94,87.18z"/>
	<path d="M237.95,192.68c-4.63,0-8.91,0-13.6,0c-0.81,4.77-1.6,9.43-2.42,14.22c-4.63,0-8.93,0-13.88,0
		c-1.61-25.53,7.79-49.33,10.94-74.25c8.83,0,17.09,0,25.69,0c4.52,24.69,9,49.21,13.55,74.12c-5.96,0-11.54,0-17.52,0
		C239.8,202.16,238.89,197.48,237.95,192.68z M236.23,179.14c-1.53-10.4-2.99-20.25-4.44-30.1c-0.32,0-0.64,0.01-0.97,0.01
		c-1.49,9.92-2.99,19.85-4.53,30.09C229.79,179.14,232.57,179.14,236.23,179.14z"/>
	<path d="M470.64,204.5c0,7.64,0,14.11,0,20.98c-5.84,0-11.38,0-17.29,0c0-24.4,0-48.81,0-73.88c5.64,0.8,11.79-2.42,17.44,2.35
		c4.69-5.11,11.22-5.24,17.73-2.79c6.6,2.48,7.87,8.46,7.86,14.82c-0.01,8.5-0.02,17,0,25.5c0.02,6.19-0.49,12.35-6.78,15.52
		C483.4,210.12,477.11,209.83,470.64,204.5z M478.87,179.18c0-3.99-0.02-7.98,0.01-11.98c0.02-2.82-0.81-5.1-4.02-5.19
		c-3.25-0.09-4.11,2.09-4.09,4.99c0.06,8.15,0.07,16.3-0.01,24.45c-0.03,2.86,0.76,5.2,3.92,5.21c3.41,0.01,4.28-2.47,4.22-5.51
		C478.81,187.16,478.87,183.17,478.87,179.18z"/>
	<path d="M409.77,59.51c5.47,2.11,12.14-3.25,16.45,3.74c2.79-1.4,5.79-3.56,9.14-4.47c9.22-2.52,17.14,3.05,17.38,12.52
		c0.36,14.3,0.09,28.61,0.09,43.33c-5.88,0-11.55,0-17.74,0c0-11.63,0.05-23.08-0.04-34.53c-0.02-3.15,1.07-7.77-3.7-7.85
		c-4.98-0.08-4.27,4.55-4.28,7.98c-0.04,11.32-0.01,22.64-0.01,34.39c-5.73,0-11.29,0-17.29,0
		C409.77,96.71,409.77,78.68,409.77,59.51z"/>
	<path d="M523.6,169.44c-0.92,0.15-1.71,0.38-2.51,0.39c-4.63,0.04-9.26,0.02-13.8,0.02c-2.35-9.62,4.51-18.37,15.52-19.69
		c3.73-0.45,7.69-0.25,11.39,0.47c10.48,2.06,15.39,8.22,15.45,18.86c0.07,12.3,0.02,24.6,0.02,37.58c-4.26,0-9.36,0.2-14.42-0.15
		c-1.15-0.08-2.17-2.07-2.35-2.25c-5.3,1.44-10.19,3.64-15.19,3.92c-6.59,0.37-10.67-3.9-11.9-10.46
		c-2.25-11.98,1.45-18.62,12.71-23.18c3.98-1.61,8.06-3.2,11.63-5.51c1.21-0.78,1.43-3.81,1.2-5.7c-0.09-0.72-3.08-1.95-4.08-1.49
		c-1.45,0.67-2.45,2.58-3.34,4.12C523.49,167.14,523.7,168.28,523.6,169.44z M531.96,180.78c-7.33,2.05-9.93,4.97-8.9,10.8
		c0.33,1.88,2.79,3.39,4.27,5.06c1.54-1.65,4.01-3.1,4.42-5C532.48,188.32,531.96,184.71,531.96,180.78z"/>
	<path d="M271.05,86.94c0-3.16-0.13-6.33,0.04-9.49c0.14-2.48,0.35-5.02,1.05-7.38c2.62-8.85,11.26-13.14,24.15-12.2
		c9.75,0.71,16.88,6.35,17.59,15.24c0.71,8.92,0.72,17.96,0.17,26.9c-0.57,9.2-5.74,14.51-14.96,16.01
		c-4.18,0.68-8.66,0.7-12.82-0.02c-9.79-1.68-14.93-8.1-15.2-18.08C270.97,94.26,271.06,90.6,271.05,86.94z M296.83,87.41
		c0-4.32,0.38-8.69-0.19-12.94c-0.22-1.69-2.53-3.1-3.89-4.64c-1.33,1.55-3.73,3.06-3.8,4.67c-0.39,8.46-0.39,16.96,0,25.42
		c0.07,1.62,2.51,3.13,3.85,4.69c1.34-1.58,3.6-3.02,3.84-4.76C297.21,95.78,296.83,91.57,296.83,87.41z"/>
	<path d="M348.98,179.2c0.01-4.16-0.22-8.34,0.06-12.49c0.49-7.32,4.16-12.55,11.13-15.11c6.8-2.5,13.72-2.48,20.52-0.03
		c7.09,2.56,11.18,8.39,11.3,16.05c0.12,7.83,0.12,15.66,0,23.48c-0.11,7.93-4.27,13.69-11.69,16.26
		c-6.5,2.25-13.08,2.25-19.58,0.04c-7.25-2.47-11.41-8.04-11.72-15.72C348.84,187.53,348.97,183.36,348.98,179.2z M374.56,179.5
		c0-4.16,0.01-8.32,0-12.47c-0.01-2.81-0.99-5.45-4.11-4.84c-1.58,0.31-3.79,2.88-3.87,4.51c-0.39,8.46-0.39,16.97,0.01,25.43
		c0.08,1.61,2.59,3.11,3.98,4.65c1.33-1.6,3.55-3.08,3.8-4.83C374.94,187.87,374.55,183.66,374.56,179.5z"/>
	<path d="M305.27,188.36c0.49,12.19-5.52,19.29-17.07,20.46c-15.99,1.62-24.11-5.77-24.12-21.94c0-4.83,0-9.65,0-14.48
		c0-16.82,7.94-24.04,24.63-22.39c9.57,0.95,15.4,6.09,16.52,15.62c0.65,5.53,0.12,11.19,0.12,17.38c-4.13,0-8.07,0-12.01,0
		c-3.95,0-7.9,0-12.38,0c0,3.29,0.03,6.07-0.01,8.85c-0.04,2.84,0.9,5.47,4.03,4.88c1.52-0.28,2.78-2.89,3.78-4.66
		c0.51-0.9,0.19-2.27,0.27-3.73C294.51,188.36,299.9,188.36,305.27,188.36z M289.78,171.78c-1.13-3.67-1.82-6.59-3.04-9.27
		c-0.22-0.48-3.69-0.35-3.88,0.17c-1.06,2.83-1.57,5.87-2.33,9.11C283.99,171.78,286.11,171.78,289.78,171.78z"/>
	<path d="M653.13,188.44c1.08,10.14-3.82,17.67-13.38,19.59c-4.13,0.83-8.64,0.89-12.8,0.2c-9.49-1.58-14.5-7.62-14.79-17.24
		c-0.23-7.48-0.15-14.98-0.02-22.47c0.21-12.31,7.68-18.7,21.5-18.61c11.83,0.08,18.59,5.47,19.84,16.59
		c0.59,5.22,0.1,10.56,0.1,16.37c-8.14,0-16.03,0-24.59,0c0,3.44-0.46,6.47,0.17,9.27c0.41,1.8,2.42,3.23,3.71,4.83
		c1.33-1.55,2.88-2.98,3.92-4.71c0.51-0.85,0.09-2.26,0.09-3.82C642.44,188.44,647.79,188.44,653.13,188.44z M637.69,171.83
		c-1.03-3.6-1.64-6.54-2.82-9.22c-0.23-0.52-3.69-0.49-3.88-0.01c-1.11,2.82-1.7,5.85-2.57,9.24
		C631.88,171.83,634.01,171.83,637.69,171.83z"/>
	<path d="M442.51,169.03c-4.9,0-9.84,0-15.13,0c-0.38-1.61-0.32-3.69-1.3-4.94c-1.07-1.37-3.06-2.55-4.75-2.71
		c-1.15-0.11-3.32,1.52-3.51,2.65c-0.26,1.48,0.57,3.58,1.65,4.75c1.29,1.4,3.31,2.16,5.07,3.09c4.27,2.26,8.79,4.11,12.81,6.74
		c10.26,6.7,9.69,21.37-1.17,27.1c-8.56,4.52-17.68,4.59-26.54,0.69c-6.78-2.98-9.96-9.67-9.07-18.05c5.2,0,10.43,0,15.9,0
		c0.15,1.86-0.21,3.77,0.53,5.04c0.97,1.65,2.65,3.56,4.32,3.9c1.46,0.3,4.3-1.06,4.78-2.34c0.58-1.54-0.06-4.62-1.29-5.55
		c-3.27-2.48-7.07-4.32-10.79-6.15c-6.16-3.03-11.76-6.39-12.66-14.15c-0.94-8.05,2.74-14.54,10.34-17.42
		c6.79-2.57,13.74-2.59,20.55-0.16C439.78,154.19,443.38,160.48,442.51,169.03z"/>
	<path d="M461.27,96.17c5.46,0,10.55,0,15.7,0c0.23,2.07-0.06,4.17,0.78,5.6c0.87,1.48,2.78,3.1,4.35,3.21
		c1.57,0.11,4.06-1.2,4.68-2.56c0.61-1.34-0.12-3.97-1.2-5.21c-1.45-1.67-3.76-2.66-5.79-3.77c-3.64-1.99-7.48-3.66-11.01-5.83
		c-5.56-3.41-7.41-8.74-6.81-15.02c0.59-6.21,3.88-10.56,9.57-12.92c7.23-3,14.65-2.99,21.9-0.23c6.88,2.62,10.17,8.51,9.83,17.49
		c-2.55,0-5.14,0-7.73,0c-2.64,0-5.27,0-8.24,0c-0.12-1.68,0.22-3.24-0.39-4.17c-0.99-1.5-2.44-3.29-3.99-3.64
		c-1.31-0.3-4.02,0.97-4.36,2.08c-0.45,1.49,0.26,4.05,1.41,5.15c1.86,1.77,4.48,2.77,6.82,4.02c3.66,1.96,7.43,3.74,11.04,5.8
		c11.32,6.44,8.76,22.9-1.78,27.67c-8.26,3.74-16.8,4.02-25.2,0.58C463.73,111.51,460.49,105.12,461.27,96.17z"/>
	<path d="M602.59,172.25c-5.56,0-11.17,0-17.5,0c0-2.07,0.5-4.18-0.14-5.85c-0.64-1.68-2.42-2.93-3.7-4.37
		c-1.29,1.28-3.65,2.52-3.7,3.85c-0.33,8.99-0.32,18,0.01,26.99c0.05,1.34,2.41,2.58,3.7,3.87c1.27-1.44,3.06-2.7,3.68-4.38
		c0.64-1.73,0.14-3.89,0.14-6.2c6.1,0,11.82,0,17.5,0c1.75,11.87-3.52,20.18-14.91,21.92c-5.39,0.82-11.33,0.32-16.61-1.1
		c-7.29-1.96-11.12-7.69-11.28-15.35c-0.17-8.17-0.19-16.34,0.01-24.51c0.19-7.85,4.52-14.09,12.18-15.74
		c5.53-1.19,11.66-1.44,17.18-0.36C599.5,153.04,604.27,161.24,602.59,172.25z"/>
	<path d="M370.45,114.79c-6.1,0-11.85,0-17.9,0c0-24.97,0-49.68,0-74.66c6.03,0,11.78,0,17.9,0
		C370.45,64.9,370.45,89.6,370.45,114.79z"/>
	<path d="M341.76,114.87c-5.94,0-11.55,0-17.53,0c0-24.84,0-49.57,0-74.66c5.68,0,11.41,0,17.53,0
		C341.76,64.9,341.76,89.62,341.76,114.87z"/>
	<path d="M343.81,167.03c-9.61,0.36-10.84,1.63-10.84,10.94c0,9.47,0,18.94,0,28.77c-5.73,0-11.12,0-16.84,0
		c0-18.28,0-36.51,0-55.02c5.03,0,9.96,0,15.22,0c0.29,1.57,0.56,3.1,0.74,4.06c3.41-2.17,7-4.45,11.72-7.46
		C343.81,155.64,343.81,161.16,343.81,167.03z"/>
	<path d="M381.25,60.01c5.95,0,11.56,0,17.53,0c0,18.23,0,36.28,0,54.69c-5.71,0-11.44,0-17.53,0
		C381.25,96.66,381.25,78.6,381.25,60.01z"/>
	<path d="M125.54,37.23c3.16,0.86,5.66,1.54,8.67,2.35c-5.11,18.13-10.11,35.85-15.24,54.05c-2.56-0.68-4.86-1.3-7.78-2.07
		C115.94,73.58,120.64,55.79,125.54,37.23z"/>
	<path d="M148.79,45.65c2.75,1.71,4.96,3.08,7.39,4.59c-9.74,16.08-19.28,31.84-29.06,47.99c-2.15-1.24-4.1-2.37-6.67-3.85
		C129.83,78.25,139.14,62.25,148.79,45.65z"/>
	<path d="M133.68,104.78c-1.56-1.9-2.82-3.42-3.27-3.97c12.48-13.4,25.11-26.97,38.37-41.22c2.1,2.61,3.52,4.37,5.51,6.84
		C160.97,79.01,147.43,91.8,133.68,104.78z"/>
	<path d="M184.64,79.88c1.13,2.05,2.07,3.75,3.18,5.77c-16.44,8.92-32.64,17.71-49.23,26.72c-0.94-1.47-1.76-2.77-2.86-4.5
		C152.12,98.49,168.21,89.28,184.64,79.88z"/>
	<path d="M194.29,102.28c0.46,2.29,0.77,3.83,1.16,5.83c-18.16,4.32-36.02,8.56-54.21,12.88c-0.54-1.49-1.03-2.82-1.75-4.81
		C157.89,111.51,175.91,106.94,194.29,102.28z"/>
	<path d="M398.92,41.43c0,4.2,0,8.13,0,12.48c-5.82,0-11.54,0-17.64,0c0-3.94,0-8.01,0-12.48
		C386.87,41.43,392.59,41.43,398.92,41.43z"/>
	<path class="st0" d="M236.23,179.14c-3.67,0-6.45,0-9.93,0c1.54-10.24,3.03-20.16,4.53-30.09c0.32,0,0.64-0.01,0.97-0.01
		C233.25,158.89,234.7,168.74,236.23,179.14z"/>
	<path class="st0" d="M478.87,179.18c0,3.99-0.06,7.99,0.02,11.98c0.06,3.04-0.8,5.53-4.22,5.51c-3.16-0.01-3.94-2.35-3.92-5.21
		c0.08-8.15,0.07-16.3,0.01-24.45c-0.02-2.9,0.84-5.07,4.09-4.99c3.21,0.08,4.04,2.37,4.02,5.19
		C478.84,171.19,478.87,175.19,478.87,179.18z"/>
	<path class="st0" d="M531.96,180.78c0,3.93,0.53,7.53-0.2,10.86c-0.42,1.9-2.88,3.35-4.42,5c-1.48-1.68-3.94-3.18-4.27-5.06
		C522.02,185.75,524.63,182.84,531.96,180.78z"/>
	<path class="st0" d="M296.83,87.41c0,4.16,0.39,8.37-0.18,12.44c-0.24,1.73-2.5,3.18-3.84,4.76c-1.35-1.56-3.78-3.07-3.85-4.69
		c-0.39-8.46-0.38-16.96,0-25.42c0.07-1.61,2.47-3.11,3.8-4.67c1.36,1.54,3.66,2.95,3.89,4.64
		C297.2,78.72,296.83,83.09,296.83,87.41z"/>
	<path class="st0" d="M374.56,179.5c-0.01,4.16,0.38,8.37-0.19,12.45c-0.24,1.75-2.47,3.23-3.8,4.83c-1.39-1.55-3.9-3.04-3.98-4.65
		c-0.4-8.46-0.4-16.96-0.01-25.43c0.07-1.63,2.28-4.2,3.87-4.51c3.13-0.61,4.1,2.03,4.11,4.84
		C374.57,171.19,374.56,175.34,374.56,179.5z"/>
	<path class="st0" d="M289.78,171.78c-3.67,0-5.79,0-9.25,0c0.76-3.24,1.27-6.28,2.33-9.11c0.19-0.52,3.66-0.65,3.88-0.17
		C287.96,165.19,288.65,168.11,289.78,171.78z"/>
	<path class="st0" d="M637.69,171.83c-3.69,0-5.81,0-9.26,0c0.87-3.38,1.46-6.41,2.57-9.24c0.19-0.48,3.65-0.51,3.88,0.01
		C636.05,165.3,636.67,168.23,637.69,171.83z"/>
</g>
</svg>
