<?xml version="1.0" encoding="utf-8"?>
<!-- Generator: Adobe Illustrator 24.1.2, SVG Export Plug-In . SVG Version: 6.00 Build 0)  -->
<svg version="1.1" id="Layer_1" xmlns="http://www.w3.org/2000/svg" xmlns:xlink="http://www.w3.org/1999/xlink" x="0px" y="0px"
	 viewBox="0 0 1080.75 486" style="enable-background:new 0 0 1080.75 486;" xml:space="preserve">
<style type="text/css">
	.st0{fill:#FFFFFF;}
</style>
<g>
	<path class="st0" d="M660.72,0c140,0,280,0,420.03,0c0,161.98,0,323.96,0,486C720.56,486,360.34,486,0,486C0,324.04,0,162.02,0,0
		c217.46,0,434.97,0,652.47,0c0,1.42,0,2.85,0,4.27c3.01,0,5.55,0,8.25,0C660.72,2.7,660.72,1.35,660.72,0z M542.9,403.81
		c12.49,0,25.01,0.49,37.47-0.1c28.44-1.35,56.89-2.71,85.26-5.03c36.1-2.95,71.96-8.03,107.58-14.65
		c47.3-8.79,93.88-20.33,139.06-37.06c33.46-12.39,65.76-27.16,94.9-48.1c17.38-12.49,33.01-26.77,44.1-45.37
		c10.33-17.34,14.71-35.9,10.85-56.04c-3.61-18.8-13.35-34.27-26.07-48.09c-17.31-18.8-38.24-32.81-60.5-44.94
		c-38.01-20.72-78.54-35.07-120.12-46.62C803.49,43.4,750.58,33.95,697.07,27.63c-41.09-4.85-82.32-7.99-123.67-8.51
		c-32.96-0.41-65.97,0.16-98.91,1.42c-41.95,1.61-83.68,6.07-125.21,12.34c-46.46,7.02-92.36,16.6-137.34,30.27
		c-38.54,11.72-76.04,26.01-110.92,46.45c-22.56,13.22-43.48,28.52-59.54,49.55c-10.67,13.96-17.86,29.43-19.04,47.23
		c-1.45,21.81,6.18,40.68,19.18,57.67c15.77,20.6,36.24,35.67,58.32,48.71c34.59,20.44,71.79,34.8,110.07,46.52
		c69.05,21.14,139.88,32.95,211.64,39.59C461.98,402.62,502.4,404.4,542.9,403.81z M979.27,392.67
		c12.51,0.92,22.26-10.95,22.14-21.95c-0.12-11.73-10.32-22.06-22.02-22.05c-9.82,0.01-22.47,8.15-22.09,22.12
		C957.66,383.75,966.33,392.68,979.27,392.67z"/>
	<path d="M660.72,0c0,1.35,0,2.7,0,4.27c-2.7,0-5.24,0-8.25,0c0-1.43,0-2.85,0-4.27C655.22,0,657.97,0,660.72,0z"/>
	<path d="M542.9,403.81c-40.5,0.59-80.92-1.19-121.24-4.92c-71.76-6.64-142.59-18.45-211.64-39.59
		c-38.28-11.72-75.48-26.08-110.07-46.52c-22.08-13.04-42.55-28.11-58.32-48.71c-13-16.99-20.63-35.86-19.18-57.67
		c1.18-17.81,8.37-33.27,19.04-47.23c16.07-21.03,36.98-36.33,59.54-49.55c34.88-20.44,72.38-34.73,110.92-46.45
		c44.98-13.68,90.88-23.26,137.34-30.27c41.53-6.27,83.26-10.73,125.21-12.34c32.94-1.26,65.95-1.84,98.91-1.42
		c41.34,0.52,82.57,3.66,123.67,8.51c53.51,6.32,106.41,15.76,158.36,30.19c41.58,11.55,82.1,25.89,120.12,46.62
		c22.26,12.13,43.19,26.14,60.5,44.94c12.72,13.81,22.46,29.29,26.07,48.09c3.86,20.14-0.51,38.7-10.85,56.04
		c-11.08,18.6-26.71,32.88-44.1,45.37c-29.14,20.94-61.43,35.71-94.9,48.1c-45.18,16.73-91.75,28.27-139.06,37.06
		c-35.63,6.62-71.48,11.7-107.58,14.65c-28.37,2.32-56.82,3.68-85.26,5.03C567.91,404.3,555.39,403.81,542.9,403.81z M532.65,397.78
		c0.02-0.56,0.04-1.12,0.05-1.68c17.11,0,34.25,0.62,51.33-0.14c29.43-1.31,58.9-2.59,88.19-5.54c30.38-3.06,60.67-7.49,90.82-12.42
		c47.95-7.83,94.98-19.6,140.77-36.01c34.41-12.33,67.68-27.09,97.67-48.34c16.63-11.78,31.7-25.22,42.52-42.78
		c15.81-25.66,16.11-51.57,0.72-77.53c-7.67-12.94-17.93-23.66-29.41-33.25C991,119.8,963.33,105.19,934.34,93
		c-69.98-29.44-143.48-45.3-218.37-55.34c-25.09-3.37-50.35-5.75-75.6-7.69c-23.64-1.81-47.36-3.15-71.06-3.41
		c-29.22-0.32-58.47,0.14-87.66,1.31c-25.3,1.01-50.62,2.8-75.8,5.5c-26.53,2.84-52.97,6.71-79.31,10.96
		c-40.67,6.56-80.71,16.01-120.01,28.45c-37.92,12.01-74.77,26.54-108.71,47.63c-20.73,12.88-39.85,27.71-53.73,48.2
		c-16.75,24.7-19.4,50.54-5.18,77.37c6.27,11.84,14.89,21.87,24.67,30.91c22.66,20.94,49.16,35.86,77.04,48.43
		c59.19,26.68,121.62,42.28,185.3,53.44c36.16,6.33,72.53,11.17,109.17,13.56C467.57,394.43,500.12,395.98,532.65,397.78z"/>
	<path d="M979.27,392.67c-12.95,0-21.61-8.93-21.97-21.88c-0.38-13.98,12.27-22.12,22.09-22.12c11.7-0.01,21.9,10.33,22.02,22.05
		C1001.53,381.72,991.78,393.6,979.27,392.67z M979.18,389.29c9.37,0.09,18.15-8.61,18.33-18.17c0.18-9.26-8.64-18.36-18-18.58
		c-9.45-0.22-18.69,8.76-18.74,18.21C960.71,380.27,969.59,389.2,979.18,389.29z"/>
	<path class="st0" d="M532.65,397.78c-32.53-1.8-65.07-3.36-97.58-5.47c-36.64-2.39-73.01-7.22-109.17-13.56
		C262.23,367.6,199.79,352,140.6,325.32c-27.88-12.57-54.38-27.5-77.04-48.43c-9.78-9.04-18.4-19.07-24.67-30.91
		c-14.22-26.84-11.57-52.67,5.18-77.37c13.88-20.48,33-35.32,53.73-48.2c33.94-21.09,70.79-35.62,108.71-47.63
		c39.29-12.44,79.34-21.9,120.01-28.45c26.35-4.25,52.79-8.12,79.31-10.96c25.18-2.7,50.5-4.49,75.8-5.5
		c29.2-1.17,58.45-1.63,87.66-1.31c23.7,0.26,47.42,1.6,71.06,3.41c25.25,1.94,50.5,4.32,75.6,7.69
		C790.86,47.7,864.35,63.56,934.34,93c28.99,12.2,56.66,26.8,80.97,47.1c11.48,9.59,21.74,20.31,29.41,33.25
		c15.39,25.96,15.08,51.87-0.72,77.53c-10.82,17.56-25.89,31-42.52,42.78c-29.99,21.25-63.26,36.01-97.67,48.34
		c-45.79,16.41-92.82,28.18-140.77,36.01c-30.15,4.92-60.43,9.35-90.82,12.42c-29.29,2.95-58.76,4.23-88.19,5.54
		c-17.08,0.76-34.22,0.14-51.33,0.14C532.68,396.66,532.66,397.22,532.65,397.78z M994.39,157.09c-1.17-0.07-2.01-0.15-2.84-0.16
		c-28.36-0.26-56.72-0.53-85.09-0.75c-34.24-0.27-68.48-0.51-102.71-0.75c-34.61-0.25-69.22-0.47-103.84-0.76
		c-22.86-0.2-45.72-0.44-68.58-0.82c-7.18-0.12-14.06-1.73-20.43-5.27c-5.03-2.79-8.28-6.71-8.84-12.58
		c-0.7-7.31-1.67-14.61-2.07-21.95c-0.73-13.33-0.85-26.71-1.8-40.02c-0.29-4.05-1.92-8.27-3.97-11.81c-1-1.74-4.33-2.62-6.7-2.83
		c-0.93-0.08-2.53,2.57-3.13,4.23c-11.41,31.38-22.72,62.8-34.05,94.21c-2.23,6.18-4.46,12.36-6.72,18.62
		c0.73,0.25,1.06,0.46,1.39,0.46c10.37,0.03,20.75,0.06,31.12,0.04c0.71,0,1.62-0.11,2.08-0.55c2.62-2.52,5.84-2.44,9.13-2.44
		c131.88,0.02,263.76,0.02,395.63,0.02c1.25,0,2.54,0.17,3.74-0.08c0.82-0.18,1.94-0.79,2.2-1.49
		C990.8,167.43,992.52,162.38,994.39,157.09z M68.43,258.03c3.25,0.21,6.09,0.54,8.93,0.56c34.61,0.28,69.22,0.52,103.83,0.77
		c35.11,0.25,70.22,0.51,105.32,0.75c37.98,0.26,75.97,0.52,113.95,0.77c7.87,0.05,15.75-0.1,23.62,0.16
		c8.6,0.27,17.21,0.69,25.24,4.43c6.25,2.91,10.84,7.02,11.47,14.42c0.56,6.58,1.54,13.13,1.88,19.72
		c0.71,13.71,0.98,27.44,1.71,41.15c0.27,4.96,1.05,10.03,5.09,13.68c3.59,3.24,7.13,2.36,8.72-2.06
		c13.15-36.45,26.3-72.9,39.44-109.35c0.49-1.35,0.89-2.72,1.38-4.22c-0.98-0.2-1.46-0.38-1.95-0.38c-10-0.03-20-0.04-30-0.02
		c-0.84,0-1.94,0.05-2.48,0.55c-2.89,2.67-6.4,2.43-9.91,2.43c-131.49-0.01-262.98-0.01-394.48-0.01c-1.37,0-2.78-0.15-4.11,0.09
		c-0.84,0.16-2.01,0.76-2.27,1.45C71.98,247.77,70.31,252.7,68.43,258.03z M806.88,187.4c-1.77,0-3.26,0.19-4.69-0.04
		c-4.23-0.65-6.92,0.93-8.98,4.75c-2.22,4.1-5.13,7.81-7.75,11.69c-0.21-0.1-0.43-0.21-0.64-0.31c0.46-5.23,0.91-10.47,1.38-15.8
		c-4.71,0-8.86,0-13.16,0c0,13,0,25.7,0,38.38c5.19,1.21,9.18,0.7,11.89-4.65c2.37-4.67,5.73-8.83,8.66-13.22
		c0.27,0.12,0.53,0.24,0.79,0.36c-0.29,5.9-0.59,11.8-0.87,17.46c5.84,1.53,9.39-0.16,12.58-4.95
		c6.79-10.18,14.34-19.84,21.57-29.72c0.83-1.14,1.62-2.31,2.77-3.94c-3.79,0-6.8,0.2-9.77-0.06c-2.75-0.24-4.31,0.79-5.65,3.13
		c-2.57,4.47-5.46,8.75-8.22,13.1c-0.25-0.1-0.5-0.2-0.75-0.3C806.32,198.12,806.59,192.97,806.88,187.4z M464.87,206.87
		c0.7,0.67,0.92,0.82,1.04,1.02c2.08,3.55,4.62,6.93,6.13,10.71c2.66,6.67,7.09,9.35,14.08,7.85c0.36-0.08,0.72-0.14,1.27-0.24
		c4.11-12.71,8.24-25.49,12.55-38.81c-1.99,0-3.33,0-4.68,0c-7.96-0.02-7.94-0.01-10.11,7.51c-1.11,3.85-2.3,7.67-3.71,12.35
		c-2.9-5.01-5.78-8.9-7.52-13.24c-2.38-5.92-6.4-7.44-12.24-6.71c-1.93,0.24-2.83,0.81-3.39,2.58c-2.36,7.49-4.83,14.95-7.23,22.42
		c-1.48,4.59-2.92,9.19-4.49,14.16c3.68,0,6.8-0.09,9.91,0.03c1.93,0.08,2.85-0.49,3.38-2.51
		C461.33,218.37,463.11,212.81,464.87,206.87z M853.92,206.32c2.97,5.12,5.86,9.12,7.72,13.55c2.35,5.57,5.95,7.57,11.82,6.72
		c2.04-0.3,3.06-0.75,3.66-2.75c1.76-5.84,3.73-11.62,5.61-17.42c2-6.2,4-12.41,6.07-18.84c-4.5,0-8.46,0-12.55,0
		c-1.9,6.38-3.76,12.64-5.85,19.69c-2.84-4.84-5.77-8.8-7.59-13.21c-2.41-5.84-6.33-7.54-12.21-6.73c-1.91,0.26-2.83,0.76-3.37,2.64
		c-1.14,3.95-2.55,7.81-3.82,11.73c-2.64,8.14-5.25,16.29-7.94,24.62c4.43,0,8.49,0,12.57,0
		C849.94,219.84,851.8,213.54,853.92,206.32z M172.7,226.47c6.14,0,11.76-0.24,17.35,0.04c16.46,0.82,25.64-12.79,27.2-23.75
		c1.3-9.05-3.79-15.1-12.94-15.33c-5.37-0.13-10.75,0.09-16.11-0.1c-2.34-0.08-3.25,0.84-3.88,2.95c-1.6,5.37-3.43,10.67-5.15,16
		C177.05,212.89,174.94,219.49,172.7,226.47z M630.37,205.01c1.78-1.37,3.48-2.44,4.87-3.81c2.75-2.71,4.25-6.06,2.82-9.83
		c-1.38-3.63-4.89-3.88-8.19-3.95c-4.37-0.08-8.74-0.03-13.1-0.03c-9.21,0-9.22,0-12.09,8.63c-3.33,10.02-6.64,20.04-10.07,30.39
		c8.76,0,17.1,0.3,25.41-0.1c6.01-0.29,10.48-3.67,13.23-9.1C635.87,212,635.13,208.75,630.37,205.01z M687.04,206.87
		c0.91-0.7,2.54-1.68,3.83-2.99c3.26-3.3,5.22-7.3,3.45-11.85c-1.67-4.29-5.88-4.56-9.82-4.61c-6.12-0.08-12.24,0.14-18.35-0.1
		c-2.7-0.1-3.66,1.01-4.41,3.34c-2.93,9.14-6.04,18.21-9.07,27.32c-0.89,2.69-1.72,5.4-2.65,8.34c4.51,0,8.6,0,12.72,0
		c1.55-4.58,3.05-9.06,4.59-13.53c0.97-2.81,4.11-3.94,6.32-2.03c1.03,0.89,1.8,2.44,2.03,3.81c0.67,3.88,1.01,7.81,1.47,11.68
		c4.17,0,7.99,0,12.56,0C688.82,219.79,687.97,213.61,687.04,206.87z M706.25,213.32c-0.11,6.61,3.5,11.1,10.02,12.44
		c13.53,2.78,27.3-3.65,33.66-15.93c2.88-5.57,4.85-11.52,1.26-17.42c-3.61-5.93-9.84-6.21-15.94-6
		C719.94,186.92,706.48,199.47,706.25,213.32z M264.69,187.4c-3.7,0-6.93,0.13-10.15-0.04c-2.25-0.12-3.58,0.72-4.9,2.53
		c-7.18,9.88-14.52,19.65-21.8,29.46c-1.6,2.16-3.17,4.36-5.18,7.12c2.89,0,5.1-0.21,7.27,0.05c3.6,0.43,6.22-0.57,7.85-4
		c0.49-1.02,1.64-2.39,2.55-2.43c5.05-0.24,10.12-0.11,15.09-0.11c0.32,2.47,0.57,4.4,0.82,6.32c4.18,0,8.01,0,12.11,0
		C267.12,213.35,265.93,200.62,264.69,187.4z M422.32,186.37c-12.63,0.05-23.61,9.31-26.41,22.3c-2.64,12.19,4.28,19.44,16.68,17.49
		c12.1-1.9,21.65-11.24,23.76-23.23C438.18,192.4,433.04,186.32,422.32,186.37z M289.06,187.42c1.7,5.35,3.03,10.26,4.83,14.99
		c1.67,4.41,1.9,8.54-0.01,12.97c-1.5,3.47-2.37,7.21-3.57,10.97c4.38,0,8.35,0,12.38,0c0.46-1.39,1-2.66,1.29-3.99
		c1.9-8.93,6.31-16.28,13.21-22.34c4.15-3.65,7.78-7.89,12.38-12.62c-3.28,0-5.51,0.22-7.67-0.05c-3.36-0.41-5.6,0.9-7.55,3.53
		c-2.25,3.02-4.84,5.79-7.79,9.28c-0.83-4.01-1.36-7.18-2.21-10.27c-0.26-0.94-1.34-2.32-2.11-2.36
		C298.04,187.29,293.82,187.42,289.06,187.42z M522.41,196.99c3.89,0,7.26,0,11.07,0c-3.26,10.16-6.31,19.65-9.47,29.48
		c3.64,0,6.65-0.16,9.62,0.05c2.36,0.17,3.22-0.85,3.85-2.96c1.86-6.2,3.97-12.33,5.95-18.5c2.54-7.91,2.53-7.86,10.89-8.2
		c1.15-0.05,2.87-0.67,3.27-1.52c1.13-2.39,1.72-5.03,2.63-7.93c-11.27,0-21.99-0.04-32.72,0.07c-0.86,0.01-2.16,0.77-2.48,1.51
		C524.03,191.34,523.4,193.85,522.41,196.99z M382.86,187.42c-11.51,0-22.45-0.02-33.39,0.06c-0.63,0-1.57,0.78-1.81,1.41
		c-0.96,2.49-1.69,5.06-2.67,8.12c3.94,0,7.26,0,11.09,0c-3.21,10.03-6.27,19.57-9.43,29.46c3.34,0,6.22-0.18,9.05,0.05
		c2.54,0.21,3.71-0.6,4.44-3.14c1.74-6.1,3.84-12.09,5.82-18.12c2.65-8.08,2.66-8.04,11.14-8.39c1.06-0.04,2.68-0.52,3.02-1.26
		C381.21,193.18,381.86,190.52,382.86,187.42z M910.61,217.22c1.68,2.99,2.96,5.39,4.37,7.71c1.23,2.03,4.41,2.32,5.04,0.4
		c1.81-5.51,3.33-11.11,4.96-16.64c-3.71-1.44-5.35-0.23-5.83,3.14c-0.23,1.59-0.87,3.11-1.54,5.38c-1.69-3.01-2.79-5.4-4.33-7.47
		c-0.65-0.88-2.18-1.36-3.37-1.49c-0.61-0.07-1.75,0.91-1.98,1.63c-1.72,5.4-3.27,10.85-4.92,16.46c1.87,0,3.34,0,4.95,0
		c0.4-1.5,0.75-2.93,1.16-4.34C909.53,220.61,909.98,219.24,910.61,217.22z M945.24,220.2c-2.27,0.89-3.62,1.7-5.07,1.92
		c-1.43,0.22-3.38,0.4-4.35-0.36c-1.86-1.44-1.22-6.91,1.03-8.9c1.02-0.91,2.78-1.06,4.24-1.34c0.29-0.06,0.69,0.97,1.18,1.3
		c1.04,0.71,2.17,1.29,3.81,2.24c-0.55-5.93-2.55-7.69-7.02-7.26c-5.93,0.57-10.1,6.8-8.73,12.87c0.84,3.73,3.24,5.46,6.86,5.76
		C941.06,226.77,943.33,225.24,945.24,220.2z M559.67,226.47c3.02,0,5.39,0.1,7.75-0.05c0.84-0.06,2.15-0.54,2.38-1.15
		c1.12-2.94,1.94-5.99,2.98-9.35c-2.91,0-5.28-0.15-7.62,0.07c-0.9,0.08-2.17,0.81-2.49,1.57
		C561.54,220.3,560.74,223.17,559.67,226.47z M893.84,226.36c1.77-6.03,3.49-11.91,5.22-17.79c-0.28-0.33-0.56-0.66-0.84-0.99
		c-1.48,0.78-3.85,1.23-4.28,2.4c-1.96,5.28-3.37,10.77-5.04,16.38C890.67,226.36,892.02,226.36,893.84,226.36z M954.44,226.31
		c0.61-2.15,1.19-4.21,1.78-6.31c-5.78-0.69-5.78-0.69-7.11,6.31C950.83,226.31,952.54,226.31,954.44,226.31z"/>
	<path class="st0" d="M979.18,389.29c-9.59-0.09-18.47-9.03-18.42-18.53c0.05-9.45,9.29-18.43,18.74-18.21
		c9.36,0.21,18.18,9.31,18,18.58C997.33,380.69,988.55,389.38,979.18,389.29z M982.37,372.7c0.53-0.31,0.82-0.49,1.12-0.65
		c2.85-1.51,4.72-3.64,4.39-7.09c-0.36-3.69-2.97-5.12-6.16-5.33c-3.92-0.26-7.87-0.06-11.81-0.06c-0.11,0.55-0.24,0.9-0.24,1.26
		c-0.02,6.48,0.09,12.97-0.08,19.45c-0.08,3.03,1.29,3.25,3.94,2.56c0-3.28,0-6.47,0-10.43c2.22,0.79,4.3,0.96,5.47,2.09
		c1.75,1.69,3.13,3.91,4.16,6.14c1.4,3.01,3.44,2.81,6.24,2.16c-1.55-2.56-2.85-4.81-4.28-6.98
		C984.43,374.78,983.48,373.94,982.37,372.7z"/>
	<path d="M994.39,157.09c-1.87,5.29-3.59,10.34-5.49,15.33c-0.27,0.69-1.38,1.31-2.2,1.49c-1.2,0.25-2.49,0.08-3.74,0.08
		c-131.88,0-263.76,0-395.63-0.02c-3.29,0-6.5-0.08-9.13,2.44c-0.46,0.44-1.37,0.55-2.08,0.55c-10.37,0.02-20.75-0.01-31.12-0.04
		c-0.33,0-0.66-0.21-1.39-0.46c2.26-6.25,4.49-12.43,6.72-18.62c11.33-31.41,22.64-62.83,34.05-94.21c0.6-1.66,2.2-4.31,3.13-4.23
		c2.37,0.21,5.7,1.09,6.7,2.83c2.05,3.54,3.68,7.76,3.97,11.81c0.95,13.32,1.08,26.69,1.8,40.02c0.4,7.33,1.37,14.63,2.07,21.95
		c0.56,5.87,3.81,9.79,8.84,12.58c6.38,3.53,13.26,5.15,20.43,5.27c22.86,0.37,45.72,0.62,68.58,0.82
		c34.61,0.3,69.22,0.51,103.84,0.76c34.24,0.25,68.48,0.48,102.71,0.75c28.36,0.22,56.73,0.49,85.09,0.75
		C992.39,156.94,993.23,157.02,994.39,157.09z"/>
	<path d="M68.43,258.03c1.88-5.33,3.54-10.27,5.4-15.13c0.26-0.69,1.43-1.29,2.27-1.45c1.33-0.25,2.74-0.09,4.11-0.09
		c131.49,0,262.98,0,394.48,0.01c3.51,0,7.01,0.24,9.91-2.43c0.54-0.5,1.64-0.54,2.48-0.55c10-0.03,20-0.01,30,0.02
		c0.48,0,0.96,0.18,1.95,0.38c-0.49,1.5-0.9,2.87-1.38,4.22c-13.14,36.45-26.29,72.9-39.44,109.35c-1.6,4.42-5.14,5.3-8.72,2.06
		c-4.04-3.65-4.82-8.71-5.09-13.68c-0.73-13.71-1.01-27.44-1.71-41.15c-0.34-6.59-1.32-13.14-1.88-19.72
		c-0.63-7.4-5.23-11.51-11.47-14.42c-8.02-3.74-16.64-4.15-25.24-4.43c-7.87-0.25-15.75-0.1-23.62-0.16
		c-37.98-0.25-75.97-0.5-113.95-0.77c-35.11-0.24-70.22-0.5-105.32-0.75c-34.61-0.25-69.22-0.49-103.83-0.77
		C74.52,258.57,71.69,258.25,68.43,258.03z"/>
	<path d="M806.88,187.4c-0.29,5.57-0.56,10.73-0.83,15.88c0.25,0.1,0.5,0.2,0.75,0.3c2.76-4.36,5.65-8.64,8.22-13.1
		c1.35-2.34,2.91-3.37,5.65-3.13c2.97,0.26,5.98,0.06,9.77,0.06c-1.15,1.64-1.94,2.81-2.77,3.94c-7.23,9.88-14.78,19.55-21.57,29.72
		c-3.2,4.79-6.74,6.48-12.58,4.95c0.28-5.66,0.57-11.56,0.87-17.46c-0.26-0.12-0.53-0.24-0.79-0.36c-2.93,4.39-6.29,8.55-8.66,13.22
		c-2.71,5.35-6.7,5.86-11.89,4.65c0-12.68,0-25.38,0-38.38c4.3,0,8.45,0,13.16,0c-0.46,5.33-0.92,10.56-1.38,15.8
		c0.21,0.1,0.43,0.21,0.64,0.31c2.61-3.88,5.53-7.6,7.75-11.69c2.06-3.82,4.75-5.41,8.98-4.75
		C803.61,187.58,805.11,187.4,806.88,187.4z"/>
	<path d="M464.87,206.87c-1.76,5.94-3.54,11.49-5.02,17.12c-0.53,2.01-1.45,2.58-3.38,2.51c-3.11-0.12-6.23-0.03-9.91-0.03
		c1.58-4.97,3.02-9.57,4.49-14.16c2.41-7.48,4.87-14.93,7.23-22.42c0.56-1.78,1.46-2.34,3.39-2.58c5.84-0.73,9.86,0.8,12.24,6.71
		c1.75,4.34,4.62,8.23,7.52,13.24c1.41-4.68,2.61-8.51,3.71-12.35c2.16-7.52,2.14-7.52,10.11-7.51c1.35,0,2.69,0,4.68,0
		c-4.31,13.33-8.44,26.1-12.55,38.81c-0.55,0.11-0.92,0.17-1.27,0.24c-6.99,1.5-11.42-1.18-14.08-7.85
		c-1.51-3.78-4.04-7.16-6.13-10.71C465.79,207.69,465.57,207.55,464.87,206.87z"/>
	<path d="M853.92,206.32c-2.12,7.22-3.98,13.52-5.88,19.98c-4.07,0-8.14,0-12.57,0c2.68-8.33,5.3-16.48,7.94-24.62
		c1.27-3.91,2.68-7.78,3.82-11.73c0.54-1.88,1.46-2.37,3.37-2.64c5.87-0.81,9.8,0.89,12.21,6.73c1.82,4.41,4.75,8.37,7.59,13.21
		c2.09-7.05,3.95-13.31,5.85-19.69c4.09,0,8.05,0,12.55,0c-2.07,6.43-4.06,12.64-6.07,18.84c-1.88,5.81-3.84,11.58-5.61,17.42
		c-0.6,2-1.62,2.46-3.66,2.75c-5.87,0.85-9.47-1.15-11.82-6.72C859.78,215.44,856.89,211.44,853.92,206.32z"/>
	<path d="M172.7,226.47c2.24-6.98,4.34-13.59,6.47-20.18c1.72-5.33,3.55-10.63,5.15-16c0.63-2.1,1.54-3.03,3.88-2.95
		c5.37,0.18,10.74-0.04,16.11,0.1c9.15,0.22,14.23,6.27,12.94,15.33c-1.57,10.96-10.74,24.58-27.2,23.75
		C184.46,226.24,178.84,226.47,172.7,226.47z M188.33,216.85c10.02,0.83,17-6.02,16.33-15.1c-0.22-2.95-1.88-4.76-4.59-5.01
		c-1.85-0.17-5.08,0.22-5.49,1.24C192.17,204.03,190.4,210.34,188.33,216.85z"/>
	<path d="M630.37,205.01c4.76,3.74,5.5,6.99,2.87,12.2c-2.74,5.44-7.21,8.82-13.23,9.1c-8.31,0.4-16.66,0.1-25.41,0.1
		c3.43-10.35,6.74-20.37,10.07-30.39c2.87-8.63,2.88-8.63,12.09-8.63c4.37,0,8.74-0.06,13.1,0.03c3.3,0.06,6.81,0.32,8.19,3.95
		c1.43,3.77-0.07,7.13-2.82,9.83C633.84,202.58,632.15,203.64,630.37,205.01z M609.19,221.14c3.67-0.76,6.57-0.93,9.07-2
		c2.81-1.21,4.39-4.01,3.71-7.03c-0.7-3.12-3.79-2.92-6.2-2.6c-1.25,0.16-2.89,1.21-3.42,2.3
		C611.13,214.35,610.49,217.16,609.19,221.14z M614.96,203.78c2.85-0.31,4.96-0.27,6.92-0.81c2.93-0.81,5.55-4.82,4.78-7.15
		c-1.11-3.38-4.13-2.56-6.61-2.54c-0.72,0.01-1.79,0.86-2.07,1.57C616.93,197.48,616.14,200.21,614.96,203.78z"/>
	<path d="M687.04,206.87c0.93,6.74,1.78,12.92,2.67,19.4c-4.57,0-8.4,0-12.56,0c-0.46-3.87-0.8-7.81-1.47-11.68
		c-0.24-1.36-1.01-2.92-2.03-3.81c-2.2-1.91-5.35-0.78-6.32,2.03c-1.54,4.47-3.04,8.95-4.59,13.53c-4.11,0-8.2,0-12.72,0
		c0.93-2.94,1.76-5.65,2.65-8.34c3.02-9.11,6.14-18.18,9.07-27.32c0.75-2.34,1.71-3.45,4.41-3.34c6.11,0.23,12.23,0.02,18.35,0.1
		c3.94,0.05,8.15,0.32,9.82,4.61c1.78,4.55-0.19,8.56-3.45,11.85C689.57,205.19,687.95,206.18,687.04,206.87z M670.37,203.58
		c6.4,1.04,10.34-0.69,11.75-4.89c0.75-2.24,0.3-4.29-2.07-4.72c-2.28-0.42-5.32-2-6.85,1.19
		C671.95,197.8,671.31,200.73,670.37,203.58z"/>
	<path d="M706.25,213.32c0.23-13.84,13.69-26.4,29-26.92c6.1-0.21,12.33,0.08,15.94,6c3.6,5.9,1.63,11.86-1.26,17.42
		c-6.36,12.28-20.13,18.72-33.66,15.93C709.75,224.41,706.14,219.93,706.25,213.32z M725.76,217.58
		c8.29,0.02,16.23-8.74,15.39-16.96c-0.36-3.58-2.56-5.25-5.94-5.59c-8.71-0.87-17.78,8.5-16.72,17.23
		C718.93,215.86,721.26,217.57,725.76,217.58z"/>
	<path d="M264.69,187.4c1.24,13.23,2.44,25.96,3.65,38.89c-4.1,0-7.93,0-12.11,0c-0.25-1.92-0.5-3.85-0.82-6.32
		c-4.98,0-10.04-0.12-15.09,0.11c-0.9,0.04-2.06,1.41-2.55,2.43c-1.63,3.44-4.25,4.43-7.85,4c-2.16-0.26-4.38-0.05-7.27-0.05
		c2.01-2.77,3.58-4.96,5.18-7.12c7.28-9.81,14.62-19.58,21.8-29.46c1.32-1.82,2.65-2.66,4.9-2.53
		C257.75,187.53,260.99,187.4,264.69,187.4z M254.85,198.89c-0.27-0.09-0.53-0.18-0.8-0.26c-3.11,4.59-6.22,9.18-9.61,14.18
		c3.97,0,7.13,0,10.41,0C254.85,208.04,254.85,203.47,254.85,198.89z"/>
	<path d="M422.32,186.37c10.72-0.04,15.87,6.03,14.02,16.56c-2.1,11.99-11.66,21.33-23.76,23.23c-12.4,1.95-19.31-5.3-16.68-17.49
		C398.71,195.68,409.69,186.42,422.32,186.37z M412.73,217.58c6.28-0.02,11.88-5.69,13.24-13.47c0.51-2.89,0.81-5.85-1.89-7.85
		c-2.81-2.08-5.91-1.59-8.85-0.23c-5.16,2.39-9.6,10.36-9.05,16.06C406.53,215.85,408.61,217.59,412.73,217.58z"/>
	<path d="M289.06,187.42c4.76,0,8.98-0.12,13.18,0.11c0.77,0.04,1.85,1.42,2.11,2.36c0.84,3.09,1.37,6.26,2.21,10.27
		c2.96-3.49,5.54-6.26,7.79-9.28c1.96-2.63,4.2-3.94,7.55-3.53c2.16,0.27,4.39,0.05,7.67,0.05c-4.6,4.73-8.23,8.98-12.38,12.62
		c-6.9,6.06-11.3,13.41-13.21,22.34c-0.28,1.32-0.83,2.59-1.29,3.99c-4.02,0-8,0-12.38,0c1.19-3.75,2.07-7.49,3.57-10.97
		c1.91-4.43,1.69-8.56,0.01-12.97C292.09,197.68,290.76,192.77,289.06,187.42z"/>
	<path d="M522.41,196.99c0.99-3.14,1.62-5.65,2.62-8c0.32-0.74,1.62-1.5,2.48-1.51c10.73-0.1,21.45-0.07,32.72-0.07
		c-0.91,2.9-1.5,5.55-2.63,7.93c-0.41,0.85-2.13,1.48-3.27,1.52c-8.36,0.34-8.35,0.29-10.89,8.2c-1.98,6.17-4.09,12.3-5.95,18.5
		c-0.63,2.11-1.49,3.13-3.85,2.96c-2.97-0.21-5.98-0.05-9.62-0.05c3.16-9.84,6.21-19.33,9.47-29.48
		C529.67,196.99,526.3,196.99,522.41,196.99z"/>
	<path d="M382.86,187.42c-1,3.11-1.64,5.76-2.76,8.2c-0.34,0.74-1.96,1.22-3.02,1.26c-8.48,0.35-8.49,0.31-11.14,8.39
		c-1.98,6.03-4.07,12.02-5.82,18.12c-0.72,2.54-1.89,3.35-4.44,3.14c-2.84-0.23-5.71-0.05-9.05-0.05
		c3.17-9.89,6.22-19.43,9.43-29.46c-3.83,0-7.15,0-11.09,0c0.98-3.06,1.72-5.63,2.67-8.12c0.24-0.63,1.18-1.4,1.81-1.41
		C360.41,187.39,371.35,187.42,382.86,187.42z"/>
	<path d="M910.61,217.22c-0.63,2.03-1.08,3.4-1.48,4.78c-0.41,1.41-0.76,2.84-1.16,4.34c-1.61,0-3.08,0-4.95,0
		c1.65-5.61,3.2-11.06,4.92-16.46c0.23-0.72,1.36-1.7,1.98-1.63c1.19,0.13,2.72,0.61,3.37,1.49c1.53,2.07,2.63,4.47,4.33,7.47
		c0.66-2.27,1.3-3.79,1.54-5.38c0.49-3.36,2.12-4.58,5.83-3.14c-1.62,5.53-3.14,11.13-4.96,16.64c-0.63,1.91-3.81,1.62-5.04-0.4
		C913.57,222.61,912.3,220.2,910.61,217.22z"/>
	<path d="M945.24,220.2c-1.91,5.04-4.17,6.56-8.07,6.24c-3.62-0.3-6.02-2.03-6.86-5.76c-1.37-6.07,2.8-12.3,8.73-12.87
		c4.47-0.43,6.48,1.34,7.02,7.26c-1.64-0.95-2.77-1.53-3.81-2.24c-0.49-0.33-0.89-1.36-1.18-1.3c-1.46,0.28-3.22,0.43-4.24,1.34
		c-2.25,2-2.89,7.46-1.03,8.9c0.98,0.76,2.92,0.58,4.35,0.36C941.62,221.9,942.97,221.1,945.24,220.2z"/>
	<path d="M559.67,226.47c1.07-3.29,1.86-6.17,2.99-8.91c0.31-0.76,1.59-1.49,2.49-1.57c2.34-0.22,4.71-0.07,7.62-0.07
		c-1.04,3.36-1.86,6.41-2.98,9.35c-0.23,0.61-1.54,1.1-2.38,1.15C565.07,226.57,562.7,226.47,559.67,226.47z"/>
	<path d="M893.84,226.36c-1.82,0-3.17,0-4.94,0c1.67-5.62,3.08-11.1,5.04-16.38c0.43-1.17,2.8-1.62,4.28-2.4
		c0.28,0.33,0.56,0.66,0.84,0.99C897.33,214.45,895.61,220.34,893.84,226.36z"/>
	<path d="M954.44,226.31c-1.9,0-3.6,0-5.32,0c1.33-7,1.33-7,7.11-6.31C955.62,222.11,955.04,224.16,954.44,226.31z"/>
	<path d="M982.37,372.7c1.11,1.24,2.06,2.08,2.74,3.11c1.43,2.16,2.73,4.42,4.28,6.98c-2.79,0.65-4.84,0.85-6.24-2.16
		c-1.03-2.23-2.41-4.45-4.16-6.14c-1.16-1.12-3.25-1.29-5.47-2.09c0,3.96,0,7.15,0,10.43c-2.65,0.69-4.01,0.47-3.94-2.56
		c0.17-6.48,0.06-12.96,0.08-19.45c0-0.36,0.13-0.71,0.24-1.26c3.94,0,7.89-0.2,11.81,0.06c3.19,0.21,5.8,1.64,6.16,5.33
		c0.33,3.45-1.54,5.58-4.39,7.09C983.19,372.21,982.9,372.39,982.37,372.7z M973.72,369.47c2.33,0,4.42,0.41,6.22-0.13
		c1.39-0.41,2.42-2.02,3.61-3.1c-1.25-1.15-2.33-2.83-3.8-3.32c-1.77-0.58-3.87-0.14-6.03-0.14
		C973.72,365.08,973.72,367.13,973.72,369.47z"/>
	<path class="st0" d="M188.33,216.85c2.08-6.51,3.84-12.82,6.26-18.87c0.41-1.02,3.64-1.41,5.49-1.24c2.71,0.25,4.37,2.06,4.59,5.01
		C205.32,210.83,198.35,217.68,188.33,216.85z"/>
	<path class="st0" d="M609.19,221.14c1.29-3.98,1.94-6.79,3.16-9.32c0.53-1.1,2.17-2.14,3.42-2.3c2.42-0.32,5.5-0.52,6.2,2.6
		c0.68,3.01-0.9,5.82-3.71,7.03C615.76,220.21,612.87,220.37,609.19,221.14z"/>
	<path class="st0" d="M614.96,203.78c1.18-3.57,1.97-6.3,3.02-8.93c0.29-0.71,1.36-1.57,2.07-1.57c2.48-0.02,5.5-0.84,6.61,2.54
		c0.77,2.33-1.85,6.34-4.78,7.15C619.93,203.51,617.81,203.47,614.96,203.78z"/>
	<path class="st0" d="M670.37,203.58c0.93-2.85,1.57-5.79,2.83-8.42c1.53-3.2,4.57-1.61,6.85-1.19c2.37,0.43,2.82,2.49,2.07,4.72
		C680.72,202.9,676.77,204.62,670.37,203.58z"/>
	<path class="st0" d="M725.76,217.58c-4.5-0.01-6.83-1.71-7.27-5.32c-1.06-8.73,8.01-18.1,16.72-17.23c3.38,0.34,5.57,2,5.94,5.59
		C741.99,208.84,734.04,217.59,725.76,217.58z"/>
	<path class="st0" d="M254.85,198.89c0,4.57,0,9.14,0,13.92c-3.28,0-6.44,0-10.41,0c3.39-5.01,6.5-9.59,9.61-14.18
		C254.32,198.72,254.59,198.81,254.85,198.89z"/>
	<path class="st0" d="M412.73,217.58c-4.12,0.01-6.2-1.72-6.56-5.49c-0.55-5.69,3.89-13.67,9.05-16.06
		c2.95-1.36,6.05-1.86,8.85,0.23c2.7,2.01,2.4,4.97,1.89,7.85C424.6,211.88,419.01,217.56,412.73,217.58z"/>
	<path class="st0" d="M973.72,369.47c0-2.33,0-4.38,0-6.68c2.16,0,4.26-0.44,6.03,0.14c1.47,0.48,2.55,2.17,3.8,3.32
		c-1.19,1.08-2.22,2.68-3.61,3.1C978.13,369.87,976.05,369.47,973.72,369.47z"/>
</g>
</svg>
