<?xml version="1.0" encoding="utf-8"?>
<!-- Generator: Adobe Illustrator 24.1.2, SVG Export Plug-In . SVG Version: 6.00 Build 0)  -->
<svg version="1.1" id="Layer_1" xmlns="http://www.w3.org/2000/svg" xmlns:xlink="http://www.w3.org/1999/xlink" x="0px" y="0px"
	 viewBox="0 0 584 185" style="enable-background:new 0 0 584 185;" xml:space="preserve">
<style type="text/css">
	.st0{fill:#FFFFFF;}
</style>
<g>
	<path class="st0" d="M0,185C0,123.33,0,61.67,0,0c194.67,0,389.33,0,584,0c0,61.67,0,123.33,0,185C389.33,185,194.67,185,0,185z
		 M123.62,53.55c0,26.29,0,52.02,0,77.95c8.07,0,15.8,0,23.64,0c0-26.19,0-52.03,0-77.95C139.22,53.55,131.61,53.55,123.62,53.55z
		 M91.68,23.44c0,23.36,0,46.08,0,68.9c7.08,0,13.8,0,20.55,0c0-23.17,0-46,0-68.9C105.18,23.44,98.58,23.44,91.68,23.44z
		 M158.69,92.49c0,23.33,0,46.04,0,68.83c7.09,0,13.81,0,20.71,0c0-23.06,0-45.78,0-68.83C172.41,92.49,165.69,92.49,158.69,92.49z
		 M511.16,55.37c-0.43,0.17-0.87,0.34-1.3,0.52c-3.75-4.19-7.29-8.59-11.34-12.46c-1.69-1.61-4.37-2.54-6.75-2.98
		c-2.74-0.5-5.69-0.43-8.44,0.03c-1.26,0.21-3.23,1.91-3.26,2.97c-0.25,10.31-0.24,20.64-0.04,30.95c0.02,1.1,1.63,3,2.64,3.1
		c3.89,0.37,7.83,0.15,12.51,0.15c0-5.72,0-10.69,0-15.67c5.15,4.1,8.95,8.7,13.15,12.89c1.44,1.44,3.8,2.35,5.88,2.68
		c2.76,0.45,5.69,0.42,8.45-0.03c1.27-0.21,3.25-1.89,3.28-2.95c0.25-10.31,0.24-20.64,0.04-30.95c-0.02-1.11-1.61-3.03-2.61-3.12
		c-3.88-0.37-7.82-0.15-12.21-0.15C511.16,45.87,511.16,50.62,511.16,55.37z M448.47,78.61c5.38-1.01,10.91-1.46,16.03-3.15
		c6.13-2.02,9.68-6.74,10.31-13.41c0.69-7.37-0.06-14.62-7.39-18.15c-12.48-6.01-25.44-6.23-37.82,0.48
		c-6.87,3.73-8.09,10.53-7.32,17.78c0.7,6.61,4.21,11.35,10.43,13.33C437.7,77.07,443.04,77.58,448.47,78.61z M532.57,77.29
		c13.99,0,27.38,0,40.78,0c0-3.45,0-6.52,0-10.52c-8.61,0-16.86,0-25.1,0c-0.03-0.73-0.06-1.46-0.09-2.18
		c7.91-1.93,16.32,0.31,24.21-1.25c0-3.15,0-5.9,0-8.88c-8.18-0.92-16.29,0.51-24.1-0.86c0.03-0.82,0.06-1.64,0.09-2.45
		c8.28,0,16.55,0,24.85,0c0-4.21,0-7.4,0-10.38c-13.85,0-27.23,0-40.64,0C532.57,53.14,532.57,65.07,532.57,77.29z M322.93,65.18
		c0.29,6.04,3.76,8.98,8.35,10.47c10.55,3.43,21.3,3.26,31.88,0.17c6.4-1.87,9.03-5.8,8.53-11.2c-0.47-5.11-4.32-8.53-10.69-9.29
		c-4.12-0.49-8.28-0.68-12.4-1.16c-2.95-0.34-5.87-0.94-8.8-1.43c0.05-0.85,0.11-1.7,0.16-2.55c3.55,0,7.95-1.34,10.49,0.26
		c6.4,4.04,12.82,1.31,19.59,2.4c-0.63-4.88-3.03-7.84-6.65-9.38c-11.57-4.94-23.27-4.88-34.77,0.3c-4.16,1.87-6.2,5.25-5.67,10.09
		c0.5,4.56,3.43,6.86,7.32,7.76c4.66,1.08,9.49,1.45,14.24,2.16c3.43,0.51,6.85,1.08,10.27,1.63c-0.06,0.82-0.11,1.65-0.17,2.47
		c-4.06,0-9.02,1.49-12.01-0.31C336.12,63.68,329.69,66.37,322.93,65.18z M226.43,77.64c13.03,0,25.63,0.04,38.23-0.09
		c0.78-0.01,1.98-1.14,2.25-1.98c1.82-5.76-0.07-8.28-6-8.29c-4.49-0.01-8.99,0.05-13.48-0.03c-1.85-0.03-3.69-0.32-5.53-0.49
		c-0.04-0.74-0.07-1.49-0.11-2.23c7.67-1.75,15.83,0.25,23.56-1.19c0-3.13,0-5.99,0-9.92c-8.15,0-15.81,0-23.47,0
		c-0.01-0.78-0.01-1.55-0.02-2.33c8.21,0,16.42,0,24.44,0c0-4.31,0-7.38,0-10.43c-13.48,0-26.54,0-39.88,0
		C226.43,52.93,226.43,64.86,226.43,77.64z M80.4,92.4c0-27.77,0-55.26,0-82.75c-5.19,0-9.92,0-14.76,0c0,27.76,0,55.14,0,82.75
		C70.7,92.4,75.44,92.4,80.4,92.4z M190.15,92.47c0,2.58,0,4.57,0,6.55c0,22-0.08,44,0.03,65.99c0.06,11.29-2.03,9.84,9.98,10.19
		c4.28,0.12,5.71-1.07,5.67-5.58c-0.23-24.16-0.1-48.33-0.12-72.49c0-1.45-0.18-2.91-0.3-4.66
		C200.38,92.47,195.64,92.47,190.15,92.47z M270.23,40.78c4.68,5.94,8.79,11.52,13.27,16.78c4.1,4.81,7.53,9.63,6.51,16.47
		c-0.16,1.07,1.36,3.36,2.23,3.44c4.37,0.36,8.79,0.16,14.19,0.16c-3.79-10.86,2.78-17.05,8.24-23.73
		c3.49-4.26,6.85-8.63,10.77-13.57c-4.95,0-8.79,0.24-12.59-0.07c-3.57-0.29-5.92,0.95-7.88,3.88c-2.08,3.1-4.58,5.92-7.87,10.09
		c-4.61-13.27-13.92-15.71-25.28-13.82C271.67,40.43,271.51,40.48,270.23,40.78z M404.31,77.22c0.19-0.69,0.43-1.16,0.43-1.63
		c0.06-4.32,0.09-8.64,0.09-12.96c0.01-11.02,0-11.23,10.73-11.42c4.5-0.08,4.61-2.5,4.6-5.77c-0.01-3.13-0.19-5.29-4.44-5.21
		c-12.96,0.26-25.92,0.08-38.88,0.12c-1.09,0-2.19,0.32-3.51,0.53c0,2.43,0.12,4.59-0.03,6.73c-0.2,2.67,1.12,3.38,3.53,3.54
		c3.86,0.26,9.29-0.52,11.12,1.63c2.03,2.39,0.87,7.58,0.88,11.55c0.06,14.08,0.02,14.09,14.16,13.26
		C403.33,77.58,403.64,77.42,404.31,77.22z M40.69,24.49c0,22.98,0,45.39,0,67.86c3.44,0,6.52,0,9.83,0c0-22.73,0-45.13,0-67.86
		C47.13,24.49,44.06,24.49,40.69,24.49z M230.41,160.4c0-23.03,0-45.43,0-67.86c-3.51,0-6.59,0-9.78,0c0,22.8,0,45.2,0,67.86
		C224.01,160.4,227.08,160.4,230.41,160.4z M188.06,57.36c4.28,5.06,8.14,9.61,12,14.17c4.72,5.6,10.85,7.06,18.43,4.21
		c-4.14-4.87-8.01-9.88-12.36-14.4c-2.83-2.94-2.78-4.97,0.02-7.8c4.23-4.29,8.1-8.92,12.12-13.41c-0.26-0.47-0.51-0.95-0.77-1.42
		c-4.62,0.64-10.3-0.17-13.62,2.25C197.96,45.26,193.48,51.54,188.06,57.36z M170.51,76.49c4.87,0,9.25,0,13.75,0
		c0-12.53,0-24.71,0-36.8c-4.81,0-9.2,0-13.75,0C170.51,52.04,170.51,63.97,170.51,76.49z M256.85,125.41c0-9.38,0.01-18.3,0-27.23
		c-0.01-6.66-0.48-7-7.27-5.17c0,10.67,0,21.38,0,32.4C251.89,125.41,253.97,125.41,256.85,125.41z M20.85,92.41
		c0-9.71,0.02-18.83-0.01-27.96c-0.02-5.98-1.16-6.68-7.23-4.48c0,10.72,0,21.46,0,32.45C15.97,92.41,18.05,92.41,20.85,92.41z
		 M339.67,103.85c0.43-0.1,0.87-0.19,1.3-0.29c1.7,3.13,3.36,6.29,5.11,9.39c2.27,4.02,3.81,4,6.15-0.11
		c1.75-3.07,3.41-6.2,5.11-9.3c0.39,0.1,0.78,0.2,1.17,0.31c0.26,3.73,0.52,7.47,0.78,11.2c0.52-0.03,1.04-0.06,1.56-0.09
		c0-4.22,0.1-8.44-0.06-12.65c-0.05-1.31-0.82-2.6-1.26-3.9c-1.2,0.91-2.79,1.58-3.53,2.77c-2.29,3.7-4.25,7.59-6.41,11.55
		c-5.09-4.42-4.58-12.35-11.68-14.93c0,6.53,0,12.11,0,17.69c0.48,0.01,0.95,0.02,1.43,0.03c0.12-1.83,0.29-3.66,0.34-5.49
		C339.71,107.97,339.67,105.91,339.67,103.85z M311.88,98.2c0.66,0,0-0.03-0.66,0c-5.64,0.31-8.86,3.35-8.98,8.47
		c-0.13,5.54,2.78,8.65,8.75,9.16c1.96,0.17,3.98,0.16,5.93-0.08c6.27-0.77,9.62-6.68,7.1-12.43
		C321.92,98.5,317.69,98.06,311.88,98.2z M502.01,116.15c0-6.52,0-12.05,0-17.59c-0.47-0.01-0.94-0.02-1.41-0.02
		c-0.21,4.2-0.42,8.39-0.65,13.05c-6.1-4.03-8.73-10.76-15.35-13.63c0,6.13,0,11.52,0,16.91c0.33,0.01,0.66,0.02,0.99,0.02
		c0.19-3.99,0.39-7.98,0.61-12.51C492.62,106.23,495,113.52,502.01,116.15z M290.26,104.95c-0.59-5.52-3.59-7.12-11.7-6.76
		c-6.14,0.27-9.27,3.16-9.37,8.65c-0.1,5.72,2.59,8.46,8.89,9.03c7.9,0.71,11.2-0.81,11.91-5.51c-8.78,4.69-14.79,5.15-16.97,0.55
		c-1.09-2.3-0.83-6.5,0.64-8.5C276.85,98.08,283.58,99.3,290.26,104.95z M375.94,98.31c-1.47,8.36-0.94,15.22,1.51,17.26
		c-0.62-5.53,2.56-6.21,6.74-5.75c1.48,0.16,2.99-0.03,4.49-0.06c3.75-0.06,5.33-2.11,5.34-5.71c0-3.64-1.72-5.64-5.38-5.72
		C384.5,98.25,380.34,98.31,375.94,98.31z M536.51,104.5c-0.63-5.2-4.11-6.94-12.54-6.28c-5.87,0.46-9.12,4.14-8.68,9.83
		c0.43,5.59,4.42,8.22,12.11,7.98c6.34-0.2,8.48-1.63,8.48-5.66c-6.78,4.64-13.02,5.15-16.45,1.18c-2.36-2.73-2.39-5.82-0.31-8.69
		C522,98.9,527.34,99.47,536.51,104.5z M566.84,115.57c0.01-0.47,0.02-0.95,0.02-1.42c-2.75,0-5.53,0.19-8.26-0.06
		c-2.44-0.23-6.35,1.6-6.27-3.24c0.08-4.45,3.72-2.74,6.04-2.96c2.49-0.24,5.03-0.05,7.55-0.05c0-0.56,0.01-1.12,0.01-1.69
		c-1.89,0-3.85,0.33-5.65-0.08c-2.77-0.63-7.92,2.42-7.75-3.04c0.16-5.05,5.15-2.26,7.99-2.85c2.09-0.43,4.29-0.32,6.44-0.46
		c-0.04-0.37-0.07-0.74-0.11-1.11c-5.34,0-10.69,0-16.26,0c0,5.76,0,11.28,0,16.95C556.32,115.57,561.58,115.57,566.84,115.57z
		 M449.61,115.08c8.13-5.32,8.13-5.32,22.33,0.73c-3.18-5.85-5.84-11.09-8.95-16.04c-0.45-0.71-4.05-0.68-4.55,0.09
		C455.24,104.76,452.5,109.97,449.61,115.08z M407.55,115.33c5.14,0,9.74,0,14.34,0c-1.92-1.18-3.83-1.17-5.73-1.18
		c-7-0.02-7-0.02-7.02-7.24c-0.01-2.64,0-5.28,0-7.91c-0.53,0.03-1.05,0.05-1.58,0.08C407.55,104.41,407.55,109.74,407.55,115.33z
		 M435.86,115.44c0.42,0,0.84,0,1.25,0c0-5.61,0-11.23,0-16.84c-0.42,0-0.84,0-1.25,0C435.86,104.21,435.86,109.82,435.86,115.44z"
		/>
	<path d="M123.62,53.55c7.99,0,15.6,0,23.64,0c0,25.92,0,51.76,0,77.95c-7.84,0-15.56,0-23.64,0
		C123.62,105.57,123.62,79.84,123.62,53.55z"/>
	<path d="M91.68,23.44c6.9,0,13.5,0,20.55,0c0,22.89,0,45.73,0,68.9c-6.75,0-13.47,0-20.55,0C91.68,69.52,91.68,46.8,91.68,23.44z"
		/>
	<path d="M158.69,92.49c7,0,13.72,0,20.71,0c0,23.06,0,45.78,0,68.83c-6.9,0-13.63,0-20.71,0
		C158.69,138.54,158.69,115.82,158.69,92.49z"/>
	<path d="M511.16,55.37c0-4.75,0-9.5,0-15.02c4.38,0,8.32-0.22,12.21,0.15c1,0.09,2.59,2.01,2.61,3.12
		c0.2,10.31,0.21,20.64-0.04,30.95c-0.03,1.05-2.01,2.74-3.28,2.95c-2.75,0.45-5.69,0.48-8.45,0.03c-2.07-0.34-4.43-1.24-5.88-2.68
		c-4.2-4.2-8-8.79-13.15-12.89c0,4.98,0,9.95,0,15.67c-4.68,0-8.63,0.22-12.51-0.15c-1.01-0.09-2.62-2-2.64-3.1
		c-0.2-10.31-0.21-20.64,0.04-30.95c0.03-1.06,1.99-2.76,3.26-2.97c2.75-0.46,5.71-0.53,8.44-0.03c2.38,0.44,5.06,1.36,6.75,2.98
		c4.05,3.87,7.59,8.27,11.34,12.46C510.29,55.71,510.72,55.54,511.16,55.37z"/>
	<path d="M448.47,78.61c-5.43-1.03-10.77-1.54-15.76-3.12c-6.22-1.97-9.73-6.71-10.43-13.33c-0.77-7.25,0.45-14.05,7.32-17.78
		c12.37-6.71,25.33-6.49,37.82-0.48c7.33,3.53,8.08,10.78,7.39,18.15c-0.62,6.67-4.17,11.4-10.31,13.41
		C459.38,77.15,453.85,77.6,448.47,78.61z M448.56,67.26c7.02-0.01,10.68-2.92,10.57-8.4c-0.11-5.24-3.74-8.09-10.38-8.13
		c-6.92-0.05-10.58,2.9-10.5,8.44C438.32,64.52,441.84,67.27,448.56,67.26z"/>
	<path d="M532.57,77.29c0-12.22,0-24.15,0-36.53c13.41,0,26.79,0,40.64,0c0,2.98,0,6.16,0,10.38c-8.29,0-16.57,0-24.85,0
		c-0.03,0.82-0.06,1.64-0.09,2.45c7.81,1.36,15.92-0.07,24.1,0.86c0,2.98,0,5.73,0,8.88c-7.89,1.56-16.3-0.68-24.21,1.25
		c0.03,0.73,0.06,1.46,0.09,2.18c8.25,0,16.49,0,25.1,0c0,4,0,7.07,0,10.52C559.95,77.29,546.56,77.29,532.57,77.29z"/>
	<path d="M322.93,65.18c6.76,1.19,13.18-1.5,19.68,2.38c2.99,1.79,7.95,0.31,12.01,0.31c0.06-0.82,0.11-1.65,0.17-2.47
		c-3.42-0.54-6.85-1.11-10.27-1.63c-4.75-0.71-9.58-1.07-14.24-2.16c-3.89-0.9-6.82-3.2-7.32-7.76c-0.53-4.84,1.51-8.22,5.67-10.09
		c11.49-5.18,23.19-5.24,34.77-0.3c3.62,1.55,6.03,4.5,6.65,9.38c-6.77-1.08-13.19,1.65-19.59-2.4c-2.54-1.6-6.94-0.26-10.49-0.26
		c-0.05,0.85-0.11,1.7-0.16,2.55c2.93,0.48,5.85,1.08,8.8,1.43c4.12,0.48,8.28,0.68,12.4,1.16c6.37,0.75,10.22,4.17,10.69,9.29
		c0.5,5.41-2.13,9.33-8.53,11.2c-10.58,3.09-21.32,3.26-31.88-0.17C326.7,74.16,323.23,71.23,322.93,65.18z"/>
	<path d="M226.43,77.64c0-12.78,0-24.7,0-36.97c13.33,0,26.4,0,39.88,0c0,3.05,0,6.12,0,10.43c-8.02,0-16.23,0-24.44,0
		c0.01,0.78,0.01,1.55,0.02,2.33c7.66,0,15.32,0,23.47,0c0,3.93,0,6.79,0,9.92c-7.73,1.43-15.89-0.57-23.56,1.19
		c0.04,0.74,0.07,1.49,0.11,2.23c1.84,0.17,3.68,0.46,5.53,0.49c4.49,0.07,8.99,0.02,13.48,0.03c5.93,0.01,7.82,2.53,6,8.29
		c-0.27,0.84-1.47,1.97-2.25,1.98C252.06,77.67,239.46,77.64,226.43,77.64z"/>
	<path d="M80.4,92.4c-4.97,0-9.7,0-14.76,0c0-27.61,0-55,0-82.75c4.83,0,9.57,0,14.76,0C80.4,37.13,80.4,64.62,80.4,92.4z"/>
	<path d="M190.15,92.47c5.49,0,10.23,0,15.26,0c0.12,1.75,0.3,3.2,0.3,4.66c0.02,24.16-0.11,48.33,0.12,72.49
		c0.04,4.51-1.39,5.71-5.67,5.58c-12.01-0.35-9.92,1.1-9.98-10.19c-0.12-22-0.03-44-0.03-65.99
		C190.15,97.04,190.15,95.06,190.15,92.47z"/>
	<path d="M270.23,40.78c1.28-0.3,1.44-0.35,1.6-0.38c11.35-1.89,20.66,0.55,25.28,13.82c3.28-4.17,5.79-6.99,7.87-10.09
		c1.96-2.93,4.32-4.17,7.88-3.88c3.79,0.31,7.63,0.07,12.59,0.07c-3.91,4.94-7.28,9.3-10.77,13.57
		c-5.46,6.68-12.03,12.88-8.24,23.73c-5.4,0-9.82,0.19-14.19-0.16c-0.88-0.07-2.39-2.37-2.23-3.44c1.02-6.85-2.41-11.67-6.51-16.47
		C279.02,52.3,274.91,46.73,270.23,40.78z"/>
	<path d="M404.31,77.22c-0.67,0.2-0.98,0.35-1.3,0.37c-14.14,0.83-14.11,0.83-14.16-13.26c-0.02-3.97,1.14-9.16-0.88-11.55
		c-1.83-2.15-7.26-1.38-11.12-1.63c-2.41-0.16-3.73-0.87-3.53-3.54c0.16-2.14,0.03-4.3,0.03-6.73c1.32-0.21,2.41-0.53,3.51-0.53
		c12.96-0.04,25.93,0.14,38.88-0.12c4.25-0.09,4.44,2.07,4.44,5.21c0.01,3.28-0.1,5.69-4.6,5.77c-10.73,0.19-10.72,0.39-10.73,11.42
		c0,4.32-0.04,8.64-0.09,12.96C404.74,76.06,404.5,76.53,404.31,77.22z"/>
	<path d="M40.69,24.49c3.37,0,6.45,0,9.83,0c0,22.73,0,45.13,0,67.86c-3.31,0-6.39,0-9.83,0C40.69,69.87,40.69,47.47,40.69,24.49z"
		/>
	<path d="M230.41,160.4c-3.33,0-6.4,0-9.78,0c0-22.65,0-45.06,0-67.86c3.19,0,6.27,0,9.78,0
		C230.41,114.97,230.41,137.38,230.41,160.4z"/>
	<path d="M188.06,57.36c5.42-5.82,9.9-12.09,15.81-16.41c3.32-2.42,9-1.61,13.62-2.25c0.26,0.47,0.51,0.95,0.77,1.42
		c-4.02,4.49-7.89,9.13-12.12,13.41c-2.8,2.84-2.85,4.86-0.02,7.8c4.36,4.53,8.23,9.53,12.36,14.4c-7.58,2.85-13.7,1.39-18.43-4.21
		C196.2,66.96,192.34,62.41,188.06,57.36z"/>
	<path d="M170.51,76.49c0-12.52,0-24.46,0-36.8c4.55,0,8.94,0,13.75,0c0,12.1,0,24.27,0,36.8
		C179.76,76.49,175.37,76.49,170.51,76.49z"/>
	<path d="M256.85,125.41c-2.88,0-4.95,0-7.27,0c0-11.02,0-21.72,0-32.4c6.78-1.83,7.26-1.5,7.27,5.17
		C256.86,107.11,256.85,116.03,256.85,125.41z"/>
	<path d="M20.85,92.41c-2.79,0-4.87,0-7.23,0c0-10.99,0-21.73,0-32.45c6.06-2.19,7.21-1.49,7.23,4.48
		C20.86,73.57,20.85,82.7,20.85,92.41z"/>
	<path d="M339.67,103.85c0,2.06,0.05,4.12-0.01,6.18c-0.05,1.83-0.22,3.66-0.34,5.49c-0.48-0.01-0.95-0.02-1.43-0.03
		c0-5.58,0-11.16,0-17.69c7.1,2.58,6.59,10.51,11.68,14.93c2.16-3.95,4.13-7.85,6.41-11.55c0.74-1.2,2.33-1.86,3.53-2.77
		c0.44,1.3,1.21,2.59,1.26,3.9c0.16,4.21,0.06,8.43,0.06,12.65c-0.52,0.03-1.04,0.06-1.56,0.09c-0.26-3.73-0.52-7.47-0.78-11.2
		c-0.39-0.1-0.78-0.2-1.17-0.31c-1.7,3.1-3.36,6.22-5.11,9.3c-2.33,4.1-3.88,4.13-6.15,0.11c-1.75-3.1-3.41-6.26-5.11-9.39
		C340.54,103.66,340.1,103.75,339.67,103.85z"/>
	<path d="M311.88,98.2c5.8-0.14,10.03,0.3,12.14,5.12c2.51,5.75-0.83,11.65-7.1,12.43c-1.95,0.24-3.97,0.24-5.93,0.08
		c-5.98-0.51-8.89-3.61-8.75-9.16c0.12-5.11,3.35-8.16,8.98-8.47C311.88,98.17,312.55,98.2,311.88,98.2z M313.37,114.27
		c5.48,0.04,8.81-2.64,8.88-7.14c0.07-4.44-3.34-7.31-8.74-7.36c-5.43-0.05-8.8,2.69-8.81,7.2
		C304.67,111.56,307.84,114.22,313.37,114.27z"/>
	<path d="M502.01,116.15c-7-2.63-9.39-9.92-15.82-13.77c-0.22,4.53-0.41,8.52-0.61,12.51c-0.33-0.01-0.66-0.02-0.99-0.02
		c0-5.39,0-10.78,0-16.91c6.62,2.87,9.25,9.6,15.35,13.63c0.23-4.66,0.44-8.86,0.65-13.05c0.47,0.01,0.94,0.02,1.41,0.02
		C502.01,104.1,502.01,109.63,502.01,116.15z"/>
	<path d="M290.26,104.95c-6.68-5.65-13.41-6.87-16.6-2.54c-1.47,2-1.73,6.2-0.64,8.5c2.18,4.6,8.19,4.13,16.97-0.55
		c-0.71,4.69-4.01,6.22-11.91,5.51c-6.3-0.57-8.99-3.31-8.89-9.03c0.1-5.49,3.24-8.38,9.37-8.65
		C286.67,97.83,289.67,99.43,290.26,104.95z"/>
	<path d="M375.94,98.31c4.4,0,8.55-0.06,12.7,0.02c3.66,0.07,5.38,2.08,5.38,5.72c0,3.6-1.58,5.65-5.34,5.71
		c-1.5,0.02-3.01,0.22-4.49,0.06c-4.18-0.45-7.37,0.22-6.74,5.75C375,113.53,374.47,106.67,375.94,98.31z M384.17,108.11
		c0.84,0,2.11,0.39,2.78-0.08c1.69-1.16,3.11-2.72,4.64-4.12c-1.48-1.23-2.78-3.02-4.48-3.56c-1.96-0.62-4.36-0.5-6.41,0
		c-1.16,0.28-2.61,1.81-2.86,3C376.73,108.77,380.62,108.24,384.17,108.11z"/>
	<path d="M536.51,104.5c-9.17-5.04-14.5-5.61-17.38-1.65c-2.08,2.87-2.05,5.96,0.31,8.69c3.43,3.97,9.68,3.46,16.45-1.18
		c0,4.04-2.14,5.47-8.48,5.66c-7.69,0.24-11.69-2.39-12.11-7.98c-0.44-5.69,2.81-9.37,8.68-9.83
		C532.4,97.56,535.88,99.3,536.51,104.5z"/>
	<path d="M566.84,115.57c-5.26,0-10.52,0-16.24,0c0-5.67,0-11.19,0-16.95c5.57,0,10.91,0,16.26,0c0.04,0.37,0.07,0.74,0.11,1.11
		c-2.15,0.13-4.35,0.02-6.44,0.46c-2.84,0.59-7.83-2.21-7.99,2.85c-0.17,5.46,4.97,2.41,7.75,3.04c1.8,0.41,3.76,0.08,5.65,0.08
		c0,0.56-0.01,1.12-0.01,1.69c-2.52,0-5.05-0.18-7.55,0.05c-2.32,0.22-5.97-1.48-6.04,2.96c-0.08,4.84,3.83,3.01,6.27,3.24
		c2.73,0.25,5.5,0.06,8.26,0.06C566.86,114.63,566.85,115.1,566.84,115.57z"/>
	<path d="M449.61,115.08c2.89-5.11,5.63-10.32,8.83-15.23c0.5-0.76,4.1-0.8,4.55-0.09c3.11,4.96,5.77,10.2,8.95,16.04
		C457.75,109.76,457.75,109.76,449.61,115.08z M465.65,109c-1.82-3.21-3.22-5.67-5.05-8.88c-1.83,3.31-3.2,5.8-4.9,8.88
		C459.21,109,461.9,109,465.65,109z"/>
	<path d="M407.55,115.33c0-5.59,0-10.92,0-16.26c0.53-0.03,1.05-0.05,1.58-0.08c0,2.64-0.01,5.28,0,7.91
		c0.03,7.22,0.03,7.22,7.02,7.24c1.91,0.01,3.82,0,5.73,1.18C417.29,115.33,412.7,115.33,407.55,115.33z"/>
	<ellipse cx="436.49" cy="107.02" rx="0.89" ry="11.91"/>
	<path class="st0" d="M448.56,67.26c-6.72,0.01-10.23-2.74-10.31-8.09c-0.08-5.55,3.58-8.49,10.5-8.44
		c6.64,0.04,10.27,2.89,10.38,8.13C459.23,64.34,455.58,67.25,448.56,67.26z"/>
	<path class="st0" d="M313.37,114.27c-5.53-0.04-8.7-2.71-8.68-7.3c0.02-4.5,3.38-7.25,8.81-7.2c5.4,0.05,8.81,2.93,8.74,7.36
		C322.18,111.63,318.85,114.31,313.37,114.27z"/>
	<path class="st0" d="M384.17,108.11c-3.55,0.13-7.44,0.66-6.32-4.75c0.25-1.19,1.7-2.72,2.86-3c2.04-0.49,4.44-0.62,6.41,0
		c1.7,0.54,3,2.32,4.48,3.56c-1.53,1.4-2.95,2.95-4.64,4.12C386.28,108.5,385.01,108.11,384.17,108.11z"/>
	<path class="st0" d="M465.65,109c-3.76,0-6.44,0-9.95,0c1.7-3.09,3.07-5.57,4.9-8.88C462.43,103.33,463.83,105.79,465.65,109z"/>
</g>
</svg>
