<?xml version="1.0" encoding="UTF-8" standalone="no"?>
<svg
   xmlns:dc="http://purl.org/dc/elements/1.1/"
   xmlns:cc="http://creativecommons.org/ns#"
   xmlns:rdf="http://www.w3.org/1999/02/22-rdf-syntax-ns#"
   xmlns:svg="http://www.w3.org/2000/svg"
   xmlns="http://www.w3.org/2000/svg"
   xmlns:sodipodi="http://sodipodi.sourceforge.net/DTD/sodipodi-0.dtd"
   xmlns:inkscape="http://www.inkscape.org/namespaces/inkscape"
   width="2500"
   height="2500"
   viewBox="0 0 192.756 192.756"
   version="1.1"
   id="svg227"
   sodipodi:docname="anritsu.svg"
   inkscape:version="1.0.1 (3bc2e813f5, 2020-09-07)">
  <metadata
     id="metadata233">
    <rdf:RDF>
      <cc:Work
         rdf:about="">
        <dc:format>image/svg+xml</dc:format>
        <dc:type
           rdf:resource="http://purl.org/dc/dcmitype/StillImage" />
      </cc:Work>
    </rdf:RDF>
  </metadata>
  <defs
     id="defs231" />
  <sodipodi:namedview
     pagecolor="#ffffff"
     bordercolor="#666666"
     borderopacity="1"
     objecttolerance="10"
     gridtolerance="10"
     guidetolerance="10"
     inkscape:pageopacity="0"
     inkscape:pageshadow="2"
     inkscape:window-width="1920"
     inkscape:window-height="1017"
     id="namedview229"
     showgrid="false"
     inkscape:zoom="0.23900209"
     inkscape:cx="968.75144"
     inkscape:cy="1325.3673"
     inkscape:window-x="1912"
     inkscape:window-y="-8"
     inkscape:window-maximized="1"
     inkscape:current-layer="svg227" />
  <g
     fill-rule="evenodd"
     clip-rule="evenodd"
     id="g225">
    <path
       fill="#fff"
       d="M0 0h192.756v192.756H0V0z"
       id="path221" />
    <path
       d="M34.265 75.57c.621.311.931.621 1.241 1.242v5.898c0 .621.621.932.932.932 1.862.31 3.725.31 5.898.31l.621.621v31.663c0 .311-.311.621-.621.621h-6.83c-.31 0-.621-.311-.621-.311v-30.11c-.31-.621-.621-1.242-1.242-1.552-.931-.311-1.862-.311-2.483.311l-.931 1.552-18.004 29.8-.621.311H3.223c-.621.311-.31-.311-.31-.621l23.902-39.733c.311-.311.931-.621 1.242-.932h6.208v-.002zM109.695 76.191c.311 0 .311.311.621.621l-.311 4.036c0 .311-.621.621-.93.621h-6.52s-.621-.311-.621-.621v-4.036c.311-.31.311-.621.621-.621 2.174-.311 4.658-.311 7.14 0zM123.354 76.812v7.14h7.762c.311 0 .621 0 .621.311v5.587l-.311.311h-8.072v19.247c0 .621.932 1.24 1.553 1.24h5.898c.311 0 .932.311.932.621v5.277c0 .311-.621.311-.932.621-5.588 0-12.107.621-14.9-4.967-.311-.932-.932-1.863-.932-3.104V76.501c.311-.311.621-.311.932-.621l6.83.311.619.621zM68.1 83.951c2.483.311 4.967 1.863 6.208 4.036.311 1.242.621 2.173.621 3.415v25.144l-.31.311-7.14.311c-.621-.311-.621-.621-.621-1.242V92.333c-.311-.621-.311-1.552-.932-1.862-.931-.311-1.862-.311-2.794-.311h-6.829l-.311 26.385c0 .311-.31.311-.621.621l-6.829-.311c-.311 0-.311 0-.621-.311V84.262c.31 0 .31-.311.621-.311H68.1zM97.9 83.951c.311 0 .311.311.621.311v5.277l-.621.621h-8.692c-.311.311-1.242.621-1.242 1.242l-.311 1.242v23.902l-.621.311-6.829.311c-.311-.311-.621-.621-.621-.932V91.711c0-3.104 2.173-6.519 5.277-7.45.621 0 1.242-.311 1.862-.311H97.9v.001zM109.385 83.951c.621 0 .621.311.932.621v31.973c-.311.311-.621.311-.932.621l-6.828-.311s-.311-.311-.621-.311V84.572c0-.31.621-.621.932-.621h6.517zM170.227 83.951c.621 0 .621.311.621.621l.311 24.524c0 .621.311 1.24 1.242 1.551 2.793.311 6.207 0 9.312 0V84.262l.311-.311c2.482 0 5.277-.31 7.449 0l.311.621c0 2.173.311 4.346 0 6.519v25.765l-.621.311h-19.557c-2.793-.311-5.586-2.793-6.518-5.588l-.311-1.551V84.262c.311-.311.621-.311.932-.311h6.518zM159.053 84.262v5.587l-.621.311h-13.658c-.932.311-1.863.621-1.863 1.862-.311 1.552 1.553 1.863 2.174 2.794l11.174 6.829c2.484 2.174 4.346 4.967 3.725 8.691-.619 3.105-3.104 5.588-5.896 6.209l-1.863.311h-16.451c-.311 0-.621-.311-.621-.621v-4.967c0-.311.311-.621.621-.621h13.969c.621-.311 1.24-.93 1.551-1.861 0-.932-.311-1.553-.93-2.174-4.346-3.104-8.693-5.586-13.039-8.691-2.793-2.173-4.035-5.587-2.793-8.691.932-2.794 3.414-4.657 6.209-5.277h18.004l.308.309z"
       fill="#929496"
       id="path223" />
  </g>
  <path
     style="fill:#ffffff;stroke-width:4.18406"
     d="m 42.792349,1504.3543 c 3.36189,-5.2429 72.537251,-120.6193 153.723031,-256.3922 81.18578,-135.7729 152.22187,-251.09615 157.85799,-256.27393 9.18399,-8.43713 14.54094,-9.41414 51.61756,-9.41414 52.97067,0 54.39676,1.55362 54.39676,59.26097 0,23.5836 1.82388,41.7899 4.34239,43.3464 2.38831,1.4761 22.157,3.7466 43.93045,5.0456 23.23934,1.3865 41.33341,4.465 43.81447,7.4545 2.75207,3.316 3.84754,76.4466 3.14027,209.6346 l -1.08614,204.542 -49.16275,1.1788 -49.16275,1.1788 v -194.4949 c 0,-135.6404 -1.43037,-197.6341 -4.72682,-204.8691 -6.89801,-15.1395 -26.92134,-22.5186 -40.22326,-14.8233 -6.54676,3.7873 -55.23876,80.2851 -132.96967,208.9026 l -122.64048,202.9271 -59.481792,1.1643 -59.481788,1.1643 z"
     id="path235"
     transform="scale(0.0771024)" />
  <path
     style="fill:#ffffff;stroke-width:4.18406"
     d="m 651.77002,1514.7306 -28.28102,-1.4646 1.0846,-210.0571 1.08461,-210.0572 133.72502,-1.106 133.72502,-1.106 21.84518,10.6879 c 29.47876,14.4226 45.71997,33.8014 51.42155,61.3554 3.00398,14.5173 4.21257,78.7758 3.48696,185.3966 l -1.1105,163.1785 -42.8863,3.5858 c -23.58746,1.9722 -45.7107,2.5021 -49.16275,1.1774 -5.42508,-2.0818 -6.27645,-23.7275 -6.27645,-159.5766 0,-176.1958 -0.88645,-182.8086 -25.15597,-187.6625 -7.45064,-1.4902 -36.58916,-2.7094 -64.75226,-2.7094 h -51.20565 l -3.08651,172.5927 c -1.69758,94.9259 -3.94899,174.0047 -5.00314,175.7306 -1.86729,3.0573 -10.99522,3.0619 -69.45239,0.034 z"
     id="path237"
     transform="scale(0.0771024)" />
  <path
     style="fill:#ffffff;stroke-width:4.18406"
     d="m 1038.6253,1512.8133 c -7.6781,-7.6781 -6.7429,-330.1228 1.0206,-351.8882 8.8539,-24.8221 25.9106,-46.5321 45.2708,-57.6211 17.1803,-9.8404 20.3595,-10.1523 103.4981,-10.1523 h 85.7733 v 35.5646 35.5645 l -61.5814,2.092 c -51.7143,1.7569 -62.776,3.2884 -69.037,9.5583 -6.8225,6.8321 -7.6334,21.4016 -9.5477,171.5466 l -2.0921,164.0804 -27.1964,2.649 c -44.0605,4.2916 -60.7752,3.9392 -66.1082,-1.3938 z"
     id="path239"
     transform="scale(0.0771024)" />
  <path
     style="fill:#ffffff;stroke-width:4.18406"
     d="m 1359.9614,1514.9538 c -10.3556,-0.7802 -23.0646,-2.3699 -28.2424,-3.5328 l -9.4142,-2.1143 0.064,-203.8935 c 0.035,-112.1413 1.5984,-206.3115 3.4738,-209.2671 2.527,-3.9826 15.7792,-5.0658 51.1907,-4.1841 l 47.781,1.1897 1.0855,208.9319 c 0.854,164.3719 -0.038,209.6453 -4.1841,212.2772 -5.15,3.2694 -23.845,3.4489 -61.7544,0.593 z"
     id="path241"
     transform="scale(0.0771024)" />
  <path
     style="fill:#ffffff;stroke-width:4.18406"
     d="m 1325.0942,1050.6137 c -3.9006,-3.9006 -3.3747,-48.3879 0.6469,-54.72076 4.4115,-6.94696 48.3876,-11.24278 77.6564,-7.58589 l 23.5089,2.93725 v 24.4611 c 0,38.8908 1.6473,37.6977 -52.0511,37.6977 -25.8344,0 -48.2269,-1.2552 -49.7611,-2.7894 z"
     id="path243"
     transform="scale(0.0771024)" />
  <path
     style="fill:#ffffff;stroke-width:4.18406"
     d="m 1598.453,1514.9436 c -44.9048,-7.5169 -78.2639,-30.8037 -94.7571,-66.1465 l -9.7627,-20.9203 -0.041,-218.5376 -0.041,-218.53761 10.9735,-2.75416 c 6.0354,-1.51479 29.1,-1.07996 51.2548,0.9663 l 40.2813,3.72046 1.1788,49.16271 1.1788,49.1628 h 54.2601 54.26 v 37.6566 37.6565 h -54.3928 -54.3929 v 129.1937 c 0,114.8812 0.7639,129.8298 6.8951,134.9361 4.53,3.7726 22.8291,6.46 53.3469,7.8344 l 46.4517,2.092 1.2263,35.2062 c 0.8827,25.3413 -0.2897,36.1679 -4.1841,38.6385 -5.4282,3.4437 -84.1296,3.9519 -103.7359,0.6699 z"
     id="path245"
     transform="scale(0.0771024)" />
  <path
     style="fill:#ffffff;stroke-width:4.18406"
     d="m 1755.0276,1508.0285 c -1.1865,-3.0919 -1.5981,-19.5667 -0.9147,-36.6106 l 1.2425,-30.9889 93.9595,-1.1284 c 89.6439,-1.0765 94.4001,-1.5424 103.5555,-10.1434 10.6973,-10.0496 12.8828,-31.0411 4.3661,-41.9362 -2.8765,-3.6798 -42.8866,-31.5687 -88.9113,-61.9753 -46.0247,-30.4067 -89.0972,-60.2345 -95.7167,-66.2842 -16.1583,-14.7675 -31.8155,-49.0077 -31.8155,-69.5763 0,-22.2194 15.9751,-55.5319 34.3799,-71.6915 29.1045,-25.5542 38.5213,-26.9909 168.4654,-25.7031 l 117.1538,1.1611 v 35.5646 35.5645 l -97.1396,2.092 c -105.0733,2.2629 -106.4654,2.5856 -112.2054,26.0053 -3.9619,16.1645 10.8213,28.4036 98.4673,81.5213 82.1819,49.8063 94.4521,59.7822 111.3679,90.5435 29.9083,54.3882 1.0102,125.3238 -58.2208,142.9135 -29.4147,8.7352 -244.7159,9.3186 -248.0339,0.6721 z"
     id="path247"
     transform="scale(0.0771024)" />
  <path
     style="fill:#ffffff;stroke-width:4.18406"
     d="m 2171.289,1506.2072 c -25.1133,-13.1194 -47.1851,-38.8511 -53.8212,-62.7458 -2.6498,-9.5412 -4.3373,-80.8901 -4.3516,-183.9931 l -0.023,-168.4086 h 49.5373 49.5372 l 2.755,109.8317 c 1.5152,60.4074 2.7588,135.6138 2.7635,167.1253 0.011,73.6985 -3.8532,70.3203 80.4368,70.3203 h 61.83 v -173.7714 -173.7715 l 49.1627,1.1788 49.1628,1.1788 v 211.2952 211.2953 l -132.2553,1.104 -132.2553,1.1039 z"
     id="path249"
     transform="scale(0.0771024)" />
</svg>
