<svg xmlns="http://www.w3.org/2000/svg" xmlns:xlink="http://www.w3.org/1999/xlink" viewBox="0 0 181.42 38.41"><defs><style>.a{fill:none;}.b{fill:#231f20;}.c{clip-path:url(#a);}.d{fill:#005694;}</style><clipPath id="a" transform="translate(0)"><rect class="a" width="181.42" height="38.41"/></clipPath></defs><rect class="b" x="81.59" y="4.29" width="3.39" height="15.15"/><g class="c"><path class="b" d="M0,4.29H8.09C12,4.29,13,6.61,13,8.16A3,3,0,0,1,11,11.26a3.5,3.5,0,0,1,2.44,3.66A4.29,4.29,0,0,1,12.11,18c-.91.85-1.77,1.37-5,1.37H0Zm3.32,12.5H7.63c1.61,0,2.53-.67,2.53-2.21,0-1.32-1.19-1.83-2.38-1.83H3.32Zm0-6.59H7.45c1.3,0,2.34-.48,2.34-1.68S8.86,6.9,7.36,6.9h-4Z" transform="translate(0)"/><path class="b" d="M28.93,6.33H26.11V3.88h2.82Zm4.35,0H30.47V3.88h2.81ZM35,19.4h-3V17.8h0a4,4,0,0,1-3.62,1.9c-2.34,0-4-1.28-4-4.17V8.08h3.13v7c0,1.75,1.07,2.09,2,2.09a2.32,2.32,0,0,0,2.41-2.58V8.08H35Z" transform="translate(0)"/><path class="b" d="M48.05,16.08a5.13,5.13,0,0,1-5.22,3.62c-3.35,0-5.92-1.53-5.92-6.19,0-1.37.49-5.73,5.69-5.73,2.34,0,5.58,1.06,5.58,6.24v.53H40c.08.85.26,2.77,2.79,2.77a2,2,0,0,0,2-1.24ZM45,12.61a2.43,2.43,0,0,0-4.85,0Z" transform="translate(0)"/><rect class="b" x="49.98" y="4.27" width="3.33" height="15.13"/><path class="b" d="M75,19.4H71.26l-1.09-1.3a6,6,0,0,1-4.58,1.71c-3.05,0-5-2.07-5-4.35,0-1.46.43-2.91,3.08-4.45l.34-.19a4.92,4.92,0,0,1-1.45-3.19c0-2.08,1.76-3.51,4.26-3.51a3.66,3.66,0,0,1,3.93,3.53c0,2.15-2,3.28-2.66,3.64L70.37,14a5.1,5.1,0,0,0,.82-2.51H74a7.76,7.76,0,0,1-1.83,4.6Zm-8.32-13a1.21,1.21,0,0,0-1.3,1.24,3.33,3.33,0,0,0,1.16,1.92c.85-.52,1.48-1.11,1.48-1.9a1.2,1.2,0,0,0-1.34-1.26m-1.1,6.35c-1.31.91-1.89,1.34-1.89,2.55a2.15,2.15,0,0,0,2.36,2,4,4,0,0,0,2.48-1.06Z" transform="translate(0)"/><polygon class="b" points="95.26 4.29 91.06 4.29 84.96 11.43 84.96 11.49 91.2 19.4 95.56 19.4 89.14 11.46 95.26 4.29"/><path class="b" d="M98,23.79l-1.82-2.23.11,0c.27-.08.52-.32.52-1V8.08H100V20.59c0,2-.66,2.84-1.82,3.17Z" transform="translate(0)"/><rect class="b" x="96.82" y="3.88" width="3.12" height="2.77"/><path class="b" d="M120.1,16.08a5.13,5.13,0,0,1-5.22,3.62c-2.9,0-3.77-1-4.45-1.83-.75,1.15-2.49,1.83-4.48,1.83-1.72,0-4.22-.49-4.22-3.47a3.17,3.17,0,0,1,3-3.23l2.92-.47c1.51-.21,1.6-.27,1.6-1.11,0-.43,0-1.26-2.18-1.26-1.7,0-1.88,1.09-1.88,1.6h-3c.26-3.34,2.94-4,5.35-4A5.48,5.48,0,0,1,111.17,9a5.38,5.38,0,0,1,3.48-1.26c2.35,0,5.58,1.06,5.58,6.24v.53h-8.14c.09.85.26,2.77,2.79,2.77a2,2,0,0,0,2-1.24ZM109.21,14.3a20.75,20.75,0,0,0-2.32.25c-1.22.19-2,.45-2,1.7,0,.87.69,1.32,1.76,1.32a2.55,2.55,0,0,0,2.59-2.17ZM117,12.61a2.35,2.35,0,0,0-2.41-2.38,2.32,2.32,0,0,0-2.43,2.38Z" transform="translate(0)"/><path class="b" d="M122.1,8.08h3V9.3l0-.07c.78-.84,1.37-1.22,3.26-1.22h.93v2.44H128.1c-2.43,0-2.87,1.8-2.87,3.05v5.9H122.1Z" transform="translate(0)"/><path class="b" d="M15.47,8.08h3V9.3l0-.07C19.28,8.39,19.86,8,21.76,8h.93v2.44H21.47c-2.43,0-2.88,1.8-2.88,3.05v5.9H15.47Z" transform="translate(0)"/><path class="d" d="M141.63,12.55a4.76,4.76,0,0,1-1.35.16H136.9V8.08h3.18a5.36,5.36,0,0,1,1.26.09c.66.14,1.13.49,1.13,1.06s-.49.92-1.25,1.07c.87.11,1.45.45,1.45,1.12s-.45.95-1,1.13m-1.81-3.72h-1.37V10h1.31c.54,0,1-.11,1-.59s-.47-.56-1-.56m.11,1.87h-1.48V12h1.42c.58,0,1.08-.12,1.08-.63s-.44-.63-1-.63" transform="translate(0)"/><path class="d" d="M175.46,11h1.75v4.64h-1.75Zm4,4.64-2.21-2.54,2-2.1h1.89l-2.19,2,2.5,2.59Z" transform="translate(0)"/><path class="d" d="M166.94,19.37c-.42-.28-.86-.54-1.31-.78A11.86,11.86,0,0,0,167,16h-.83a10.76,10.76,0,0,1-1.24,2.22,15.11,15.11,0,0,0-2.4-.83A11.85,11.85,0,0,0,163,16h-.79c-.12.42-.25.83-.39,1.22a15.91,15.91,0,0,0-2.59-.28V16h-.77V17a14.89,14.89,0,0,0-2.6.29q-.21-.6-.39-1.23h-.79a12.64,12.64,0,0,0,.43,1.4,13.35,13.35,0,0,0-2.4.83A11.32,11.32,0,0,1,151.42,16h-.83A12,12,0,0,0,152,18.6a12.68,12.68,0,0,0-1.32.78A11.5,11.5,0,0,1,148.51,16h-.83a11.88,11.88,0,0,0,22.22,0h-.82a11.15,11.15,0,0,1-2.14,3.34m-4.71-1.23a14,14,0,0,1,2.21.74,11.3,11.3,0,0,1-2.13,1.95,5.34,5.34,0,0,0-1.27-.61,9.92,9.92,0,0,0,1.19-2.08m-3-.4a14.45,14.45,0,0,1,2.29.24,8.82,8.82,0,0,1-1.25,2,7,7,0,0,0-1-.12Zm-.77,0v2.15a6,6,0,0,0-1,.13,9.11,9.11,0,0,1-1.25-2,14.58,14.58,0,0,1,2.3-.24m-3.06.41a10.48,10.48,0,0,0,1.2,2.08,5.59,5.59,0,0,0-1.28.6,11,11,0,0,1-2.12-1.95,13.84,13.84,0,0,1,2.2-.73m-1.19,3.78a11.26,11.26,0,0,1-3-2c.4-.26.81-.49,1.23-.71a11.71,11.71,0,0,0,2.22,2.11,3.39,3.39,0,0,0-.49.6m4.63,1a11.07,11.07,0,0,1-3.91-.71,5.64,5.64,0,0,1,7.83,0,11.08,11.08,0,0,1-3.92.71m4.64-1a3,3,0,0,0-.49-.59,11.71,11.71,0,0,0,2.22-2.11,12.62,12.62,0,0,1,1.23.71,11.07,11.07,0,0,1-3,2" transform="translate(0)"/><path class="d" d="M150.64,4.34a13.84,13.84,0,0,0,1.34.79,12.17,12.17,0,0,0-1.36,2.54h.83a11.09,11.09,0,0,1,1.24-2.2,15,15,0,0,0,2.39.83,12.13,12.13,0,0,0-.43,1.37h.79c.12-.42.25-.82.4-1.21a14.44,14.44,0,0,0,2.57.28v.93h.77V6.74a15.66,15.66,0,0,0,2.57-.27c.14.38.27.79.39,1.2h.79a12.13,12.13,0,0,0-.43-1.37,14.63,14.63,0,0,0,2.39-.82,11,11,0,0,1,1.24,2.19H167a11.42,11.42,0,0,0-1.36-2.53,15.44,15.44,0,0,0,1.35-.8,11.37,11.37,0,0,1,2.12,3.33h.83a11.87,11.87,0,0,0-22.21,0h.82a11.27,11.27,0,0,1,2.13-3.33m4.73,1.24a14.8,14.8,0,0,1-2.19-.73,11.25,11.25,0,0,1,2.13-1.94,5.3,5.3,0,0,0,1.27.59,10,10,0,0,0-1.21,2.08m3,.39a14.2,14.2,0,0,1-2.27-.23,8.84,8.84,0,0,1,1.26-2,8.2,8.2,0,0,0,1,.12Zm.77,0V3.83a8,8,0,0,0,1-.12,8.84,8.84,0,0,1,1.26,2,14.07,14.07,0,0,1-2.26.23m3-.39A10.23,10.23,0,0,0,161,3.5a5.56,5.56,0,0,0,1.28-.59,10.9,10.9,0,0,1,2.12,1.94,13.72,13.72,0,0,1-2.19.73m1.22-3.79a10.87,10.87,0,0,1,3,2,14.33,14.33,0,0,1-1.27.72,11.57,11.57,0,0,0-2.21-2.09,3.06,3.06,0,0,0,.52-.63m-4.64-1a10.87,10.87,0,0,1,3.92.72,4.9,4.9,0,0,1-3.91,1.58,4.9,4.9,0,0,1-3.92-1.59,11.07,11.07,0,0,1,3.91-.71m-4.63,1a3.11,3.11,0,0,0,.52.64,11.61,11.61,0,0,0-2.22,2.09,11.18,11.18,0,0,1-1.26-.73,11.18,11.18,0,0,1,3-2" transform="translate(0)"/><path class="d" d="M181.36,9.75V8.05H147.25a12.06,12.06,0,0,0-.42,1.7h.27c-.07.41-.12.82-.15,1.24h-.27a8.51,8.51,0,0,0,0,.88c0,.27,0,.55,0,.82H147c0,.42.08.83.15,1.24H136.9v1.69h33.43a12,12,0,0,0,.43-1.69h-.28c.07-.41.12-.82.16-1.24h.27c0-.27,0-.55,0-.82s0-.59,0-.88h-.27c0-.42-.09-.83-.16-1.24Zm-14.59,0A10.29,10.29,0,0,1,167,11h-3.52c0-.42-.05-.83-.1-1.24Zm-4.22,0c0,.41.09.82.11,1.24h-3.48V9.75Zm-4.14,0V11h-3.49c0-.42.06-.83.11-1.24Zm-4.16,0c-.05.41-.08.82-.1,1.24h-3.52c0-.42.1-.83.18-1.24Zm-6.36,0H150c-.07.41-.13.82-.16,1.24h-2.14a10.27,10.27,0,0,1,.17-1.24m0,4.18a10.27,10.27,0,0,1-.17-1.24h2.14c0,.41.08.83.15,1.24Zm2.9,0c-.07-.41-.13-.83-.16-1.24h3.51c0,.41.06.83.1,1.24Zm4.23,0c-.05-.41-.09-.82-.11-1.24h3.5v1.24Zm4.16,0V12.69h3.48c0,.42,0,.83-.1,1.24Zm4.15,0c0-.41.09-.83.11-1.24H167c0,.41-.09.83-.16,1.24Zm6.37,0h-2.13c.07-.41.12-.83.15-1.24h2.14a10.25,10.25,0,0,1-.16,1.24m.16-2.94h-2.14c0-.42-.09-.83-.16-1.24h2.14a10.25,10.25,0,0,1,.16,1.24" transform="translate(0)"/><path class="b" d="M0,38.3V30.76H2.35c1.56,0,2.22.73,2.22,1.93v.16a1.4,1.4,0,0,1-.84,1.51,1.48,1.48,0,0,1,.95,1.55v.45c0,1.27-.64,1.94-2.22,1.94ZM.87,34H2.4c.79,0,1.3-.27,1.3-1.14v-.16c0-.87-.55-1.14-1.43-1.14H.87Zm0,3.52h1.5c.87,0,1.44-.27,1.44-1.15v-.44c0-.85-.54-1.13-1.35-1.13H.87Z" transform="translate(0)"/><polygon class="b" points="10.54 38.3 6.5 38.3 6.5 30.76 10.54 30.76 10.54 31.55 7.37 31.55 7.37 34.01 10.08 34.01 10.08 34.8 7.37 34.8 7.37 37.51 10.54 37.51 10.54 38.3"/><path class="b" d="M16.14,30.76H17a49,49,0,0,1-2.17,4.71V38.3H14V35.47a44.62,44.62,0,0,1-2.18-4.71h.86c.48,1.2,1.51,3.36,1.75,3.89.23-.53,1.27-2.69,1.73-3.89" transform="translate(0)"/><path class="b" d="M18,33.46c0-1.92.88-2.81,2.51-2.81S23,31.54,23,33.46v2.12c0,1.94-.78,2.83-2.42,2.83S18,37.52,18,35.58Zm.87,1.74c0,1.79.4,2.4,1.64,2.4,1,0,1.55-.53,1.55-2V33.85c0-1.75-.44-2.39-1.55-2.39s-1.64.57-1.64,2Z" transform="translate(0)"/><path class="b" d="M29.59,30.76V38.3h-.86c-.63-1.23-2.7-5.21-3-5.86V38.3H24.9V30.76h.87c.58,1.06,2.66,5.12,3,5.83V30.76Z" transform="translate(0)"/><path class="b" d="M31.64,30.76H34c1.69,0,2.44.89,2.44,2.81v1.9c0,1.94-.75,2.83-2.44,2.83H31.64Zm.87.79v6H34c1,0,1.57-.56,1.57-2V33.58c0-1.45-.53-2-1.57-2Z" transform="translate(0)"/><path class="b" d="M44.24,36.43c-.45-1.09-1.56-3.59-1.71-4.13,0,.74-.09,4.5-.1,6h-.85c.05-2,.17-6,.25-7.54h.81c.26.52,1.7,3.84,2,4.79.33-.95,1.77-4.27,2-4.79h.81c.08,1.55.22,5.54.27,7.54h-.84c0-1.5-.08-5.29-.09-6-.2.54-1.3,3.05-1.75,4.14Z" transform="translate(0)"/><polygon class="b" points="53.81 38.3 49.77 38.3 49.77 30.76 53.81 30.76 53.81 31.55 50.64 31.55 50.64 34.01 53.35 34.01 53.35 34.8 50.64 34.8 50.64 37.51 53.81 37.51 53.81 38.3"/><path class="b" d="M60.73,38.3h-.87c-.15-.54-.32-1.14-.48-1.76H56.46c-.17.64-.33,1.25-.47,1.76h-.87c.41-1.59,1.83-6.38,2.22-7.54H58.5c.4,1.16,1.81,5.95,2.23,7.54m-4-2.55h2.47c-.53-1.81-1.12-3.89-1.22-4.27-.12.38-.73,2.46-1.25,4.27" transform="translate(0)"/><path class="b" d="M65.21,36.29c0-.89-.27-1-1.3-1.43C62.49,34.32,62,34,62,32.68a1.92,1.92,0,0,1,2.07-2,4.94,4.94,0,0,1,1.83.32l-.12.71a5.61,5.61,0,0,0-1.65-.22,1.12,1.12,0,0,0-1.25,1.2c0,.88.23,1,1.38,1.44s1.79.75,1.79,2.17A1.87,1.87,0,0,1,64,38.41,4.85,4.85,0,0,1,62,38l.11-.71A5.82,5.82,0,0,0,64,37.6c.85,0,1.26-.42,1.26-1.31" transform="translate(0)"/><path class="b" d="M71.77,35.7V30.76h.86V35.7c0,2-.85,2.71-2.34,2.71s-2.47-.78-2.47-2.71V30.76h.86V35.7c0,1.47.59,1.9,1.61,1.9.83,0,1.48-.36,1.48-1.9" transform="translate(0)"/><path class="b" d="M74.62,30.76h2.26c1.62,0,2.22.77,2.22,2v.39a1.68,1.68,0,0,1-1.36,1.88c.25.49.71,1.55,1.4,3.24h-.9c-.45-1-1.06-2.45-1.37-3.14H75.48V38.3h-.86Zm.86,3.61h1.39c.79,0,1.36-.27,1.36-1.18v-.44c0-.92-.54-1.2-1.42-1.2H75.48Z" transform="translate(0)"/><polygon class="b" points="85 38.3 80.96 38.3 80.96 30.76 85 30.76 85 31.55 81.83 31.55 81.83 34.01 84.54 34.01 84.54 34.8 81.83 34.8 81.83 37.51 85 37.51 85 38.3"/></g></svg>