<?xml version="1.0" encoding="UTF-8" standalone="no"?>
<svg
   xmlns:dc="http://purl.org/dc/elements/1.1/"
   xmlns:cc="http://creativecommons.org/ns#"
   xmlns:rdf="http://www.w3.org/1999/02/22-rdf-syntax-ns#"
   xmlns:svg="http://www.w3.org/2000/svg"
   xmlns="http://www.w3.org/2000/svg"
   xmlns:sodipodi="http://sodipodi.sourceforge.net/DTD/sodipodi-0.dtd"
   xmlns:inkscape="http://www.inkscape.org/namespaces/inkscape"
   width="210mm"
   height="297mm"
   viewBox="0 0 210 297"
   version="1.1"
   id="svg8"
   inkscape:version="1.0.1 (3bc2e813f5, 2020-09-07)"
   sodipodi:docname="B&amp;K.svg">
  <defs
     id="defs2">
    <style
       id="style10">.a{fill:none;}.b{fill:#231f20;}.c{clip-path:url(#a);}.d{fill:#005694;}</style>
    <clipPath
       id="a"
       transform="translate(0)">
      <rect
         class="a"
         width="181.42"
         height="38.41"
         id="rect12" />
    </clipPath>
  </defs>
  <sodipodi:namedview
     id="base"
     pagecolor="#ffffff"
     bordercolor="#666666"
     borderopacity="1.0"
     inkscape:pageopacity="0.0"
     inkscape:pageshadow="2"
     inkscape:zoom="3.959798"
     inkscape:cx="328.54238"
     inkscape:cy="472.80983"
     inkscape:document-units="mm"
     inkscape:current-layer="layer1"
     inkscape:document-rotation="0"
     showgrid="false"
     inkscape:window-width="1267"
     inkscape:window-height="1040"
     inkscape:window-x="3996"
     inkscape:window-y="0"
     inkscape:window-maximized="0" />
  <metadata
     id="metadata5">
    <rdf:RDF>
      <cc:Work
         rdf:about="">
        <dc:format>image/svg+xml</dc:format>
        <dc:type
           rdf:resource="http://purl.org/dc/dcmitype/StillImage" />
        <dc:title></dc:title>
      </cc:Work>
    </rdf:RDF>
  </metadata>
  <g
     inkscape:label="Layer 1"
     inkscape:groupmode="layer"
     id="layer1">
    <g
       id="g119"
       transform="matrix(0.26458333,0,0,0.26458333,68.225837,123.43058)">
      <rect
         class="b"
         x="81.589996"
         y="4.29"
         width="3.3900001"
         height="15.15"
         id="rect17" />
      <g
         class="c"
         clip-path="url(#a)"
         id="g77">
        <path
           class="b"
           d="M 0,4.29 H 8.09 C 12,4.29 13,6.61 13,8.16 a 3,3 0 0 1 -2,3.1 3.5,3.5 0 0 1 2.44,3.66 4.29,4.29 0 0 1 -1.33,3.08 c -0.91,0.85 -1.77,1.37 -5,1.37 H 0 Z m 3.32,12.5 h 4.31 c 1.61,0 2.53,-0.67 2.53,-2.21 0,-1.32 -1.19,-1.83 -2.38,-1.83 H 3.32 Z m 0,-6.59 H 7.45 C 8.75,10.2 9.79,9.72 9.79,8.52 9.79,7.32 8.86,6.9 7.36,6.9 h -4 z"
           id="path19" />
        <path
           class="b"
           d="M 28.93,6.33 H 26.11 V 3.88 h 2.82 z m 4.35,0 H 30.47 V 3.88 h 2.81 z M 35,19.4 h -3 v -1.6 0 a 4,4 0 0 1 -3.62,1.9 c -2.34,0 -4,-1.28 -4,-4.17 V 8.08 h 3.13 v 7 c 0,1.75 1.07,2.09 2,2.09 a 2.32,2.32 0 0 0 2.41,-2.58 V 8.08 H 35 Z"
           id="path21" />
        <path
           class="b"
           d="m 48.05,16.08 a 5.13,5.13 0 0 1 -5.22,3.62 c -3.35,0 -5.92,-1.53 -5.92,-6.19 0,-1.37 0.49,-5.73 5.69,-5.73 2.34,0 5.58,1.06 5.58,6.24 v 0.53 H 40 c 0.08,0.85 0.26,2.77 2.79,2.77 a 2,2 0 0 0 2,-1.24 z M 45,12.61 a 2.43,2.43 0 0 0 -4.85,0 z"
           id="path23" />
        <rect
           class="b"
           x="49.98"
           y="4.27"
           width="3.3299999"
           height="15.13"
           id="rect25" />
        <path
           class="b"
           d="m 75,19.4 h -3.74 l -1.09,-1.3 a 6,6 0 0 1 -4.58,1.71 c -3.05,0 -5,-2.07 -5,-4.35 0,-1.46 0.43,-2.91 3.08,-4.45 l 0.34,-0.19 A 4.92,4.92 0 0 1 62.56,7.63 c 0,-2.08 1.76,-3.51 4.26,-3.51 a 3.66,3.66 0 0 1 3.93,3.53 c 0,2.15 -2,3.28 -2.66,3.64 L 70.37,14 a 5.1,5.1 0 0 0 0.82,-2.51 H 74 a 7.76,7.76 0 0 1 -1.83,4.6 z m -8.32,-13 a 1.21,1.21 0 0 0 -1.3,1.24 3.33,3.33 0 0 0 1.16,1.92 c 0.85,-0.52 1.48,-1.11 1.48,-1.9 A 1.2,1.2 0 0 0 66.68,6.4 m -1.1,6.35 c -1.31,0.91 -1.89,1.34 -1.89,2.55 a 2.15,2.15 0 0 0 2.36,2 4,4 0 0 0 2.48,-1.06 z"
           id="path27" />
        <polygon
           class="b"
           points="84.96,11.43 84.96,11.49 91.2,19.4 95.56,19.4 89.14,11.46 95.26,4.29 91.06,4.29 "
           id="polygon29" />
        <path
           class="b"
           d="m 98,23.79 -1.82,-2.23 h 0.11 c 0.27,-0.08 0.52,-0.32 0.52,-1 V 8.08 H 100 v 12.51 c 0,2 -0.66,2.84 -1.82,3.17 z"
           id="path31" />
        <rect
           class="b"
           x="96.82"
           y="3.8800001"
           width="3.1199999"
           height="2.77"
           id="rect33" />
        <path
           class="b"
           d="m 120.1,16.08 a 5.13,5.13 0 0 1 -5.22,3.62 c -2.9,0 -3.77,-1 -4.45,-1.83 -0.75,1.15 -2.49,1.83 -4.48,1.83 -1.72,0 -4.22,-0.49 -4.22,-3.47 a 3.17,3.17 0 0 1 3,-3.23 l 2.92,-0.47 c 1.51,-0.21 1.6,-0.27 1.6,-1.11 0,-0.43 0,-1.26 -2.18,-1.26 -1.7,0 -1.88,1.09 -1.88,1.6 h -3 c 0.26,-3.34 2.94,-4 5.35,-4 a 5.48,5.48 0 0 1 3.63,1.24 5.38,5.38 0 0 1 3.48,-1.26 c 2.35,0 5.58,1.06 5.58,6.24 v 0.53 h -8.14 c 0.09,0.85 0.26,2.77 2.79,2.77 a 2,2 0 0 0 2,-1.24 z M 109.21,14.3 a 20.75,20.75 0 0 0 -2.32,0.25 c -1.22,0.19 -2,0.45 -2,1.7 0,0.87 0.69,1.32 1.76,1.32 a 2.55,2.55 0 0 0 2.59,-2.17 z M 117,12.61 a 2.35,2.35 0 0 0 -2.41,-2.38 2.32,2.32 0 0 0 -2.43,2.38 z"
           id="path35" />
        <path
           class="b"
           d="m 122.1,8.08 h 3 V 9.3 9.23 c 0.78,-0.84 1.37,-1.22 3.26,-1.22 h 0.93 v 2.44 h -1.19 c -2.43,0 -2.87,1.8 -2.87,3.05 v 5.9 h -3.13 z"
           id="path37" />
        <path
           class="b"
           d="m 15.47,8.08 h 3 V 9.3 9.23 C 19.28,8.39 19.86,8 21.76,8 h 0.93 v 2.44 h -1.22 c -2.43,0 -2.88,1.8 -2.88,3.05 v 5.9 h -3.12 z"
           id="path39" />
        <path
           class="d"
           d="m 141.63,12.55 a 4.76,4.76 0 0 1 -1.35,0.16 H 136.9 V 8.08 h 3.18 a 5.36,5.36 0 0 1 1.26,0.09 c 0.66,0.14 1.13,0.49 1.13,1.06 0,0.57 -0.49,0.92 -1.25,1.07 0.87,0.11 1.45,0.45 1.45,1.12 0,0.67 -0.45,0.95 -1,1.13 m -1.81,-3.72 h -1.37 V 10 h 1.31 c 0.54,0 1,-0.11 1,-0.59 0,-0.48 -0.47,-0.56 -1,-0.56 m 0.11,1.87 h -1.48 V 12 h 1.42 c 0.58,0 1.08,-0.12 1.08,-0.63 0,-0.51 -0.44,-0.63 -1,-0.63"
           id="path41" />
        <path
           class="d"
           d="m 175.46,11 h 1.75 v 4.64 h -1.75 z m 4,4.64 -2.21,-2.54 2,-2.1 h 1.89 l -2.19,2 2.5,2.59 z"
           id="path43" />
        <path
           class="d"
           d="m 166.94,19.37 c -0.42,-0.28 -0.86,-0.54 -1.31,-0.78 A 11.86,11.86 0 0 0 167,16 h -0.83 a 10.76,10.76 0 0 1 -1.24,2.22 15.11,15.11 0 0 0 -2.4,-0.83 A 11.85,11.85 0 0 0 163,16 h -0.79 c -0.12,0.42 -0.25,0.83 -0.39,1.22 a 15.91,15.91 0 0 0 -2.59,-0.28 V 16 h -0.77 v 1 a 14.89,14.89 0 0 0 -2.6,0.29 q -0.21,-0.6 -0.39,-1.23 h -0.79 a 12.64,12.64 0 0 0 0.43,1.4 13.35,13.35 0 0 0 -2.4,0.83 11.32,11.32 0 0 1 -1.29,-2.29 h -0.83 a 12,12 0 0 0 1.41,2.6 12.68,12.68 0 0 0 -1.32,0.78 11.5,11.5 0 0 1 -2.17,-3.38 h -0.83 a 11.88,11.88 0 0 0 22.22,0 h -0.82 a 11.15,11.15 0 0 1 -2.14,3.34 m -4.71,-1.23 a 14,14 0 0 1 2.21,0.74 11.3,11.3 0 0 1 -2.13,1.95 5.34,5.34 0 0 0 -1.27,-0.61 9.92,9.92 0 0 0 1.19,-2.08 m -3,-0.4 a 14.45,14.45 0 0 1 2.29,0.24 8.82,8.82 0 0 1 -1.25,2 7,7 0 0 0 -1,-0.12 z m -0.77,0 v 2.15 a 6,6 0 0 0 -1,0.13 9.11,9.11 0 0 1 -1.25,-2 14.58,14.58 0 0 1 2.3,-0.24 m -3.06,0.41 a 10.48,10.48 0 0 0 1.2,2.08 5.59,5.59 0 0 0 -1.28,0.6 11,11 0 0 1 -2.12,-1.95 13.84,13.84 0 0 1 2.2,-0.73 m -1.19,3.78 a 11.26,11.26 0 0 1 -3,-2 c 0.4,-0.26 0.81,-0.49 1.23,-0.71 a 11.71,11.71 0 0 0 2.22,2.11 3.39,3.39 0 0 0 -0.49,0.6 m 4.63,1 a 11.07,11.07 0 0 1 -3.91,-0.71 5.64,5.64 0 0 1 7.83,0 11.08,11.08 0 0 1 -3.92,0.71 m 4.64,-1 a 3,3 0 0 0 -0.49,-0.59 11.71,11.71 0 0 0 2.22,-2.11 12.62,12.62 0 0 1 1.23,0.71 11.07,11.07 0 0 1 -3,2"
           id="path45" />
        <path
           class="d"
           d="m 150.64,4.34 a 13.84,13.84 0 0 0 1.34,0.79 12.17,12.17 0 0 0 -1.36,2.54 h 0.83 a 11.09,11.09 0 0 1 1.24,-2.2 15,15 0 0 0 2.39,0.83 12.13,12.13 0 0 0 -0.43,1.37 h 0.79 c 0.12,-0.42 0.25,-0.82 0.4,-1.21 a 14.44,14.44 0 0 0 2.57,0.28 v 0.93 h 0.77 V 6.74 a 15.66,15.66 0 0 0 2.57,-0.27 c 0.14,0.38 0.27,0.79 0.39,1.2 h 0.79 a 12.13,12.13 0 0 0 -0.43,-1.37 14.63,14.63 0 0 0 2.39,-0.82 11,11 0 0 1 1.24,2.19 H 167 a 11.42,11.42 0 0 0 -1.36,-2.53 15.44,15.44 0 0 0 1.35,-0.8 11.37,11.37 0 0 1 2.12,3.33 h 0.83 a 11.87,11.87 0 0 0 -22.21,0 h 0.82 a 11.27,11.27 0 0 1 2.13,-3.33 m 4.73,1.24 a 14.8,14.8 0 0 1 -2.19,-0.73 11.25,11.25 0 0 1 2.13,-1.94 5.3,5.3 0 0 0 1.27,0.59 10,10 0 0 0 -1.21,2.08 m 3,0.39 a 14.2,14.2 0 0 1 -2.27,-0.23 8.84,8.84 0 0 1 1.26,-2 8.2,8.2 0 0 0 1,0.12 z m 0.77,0 V 3.83 a 8,8 0 0 0 1,-0.12 8.84,8.84 0 0 1 1.26,2 14.07,14.07 0 0 1 -2.26,0.23 m 3,-0.39 A 10.23,10.23 0 0 0 161,3.5 a 5.56,5.56 0 0 0 1.28,-0.59 10.9,10.9 0 0 1 2.12,1.94 13.72,13.72 0 0 1 -2.19,0.73 m 1.22,-3.79 a 10.87,10.87 0 0 1 3,2 14.33,14.33 0 0 1 -1.27,0.72 11.57,11.57 0 0 0 -2.21,-2.09 3.06,3.06 0 0 0 0.52,-0.63 m -4.64,-1 a 10.87,10.87 0 0 1 3.92,0.72 4.9,4.9 0 0 1 -3.91,1.58 4.9,4.9 0 0 1 -3.92,-1.59 11.07,11.07 0 0 1 3.91,-0.71 m -4.63,1 a 3.11,3.11 0 0 0 0.52,0.64 11.61,11.61 0 0 0 -2.22,2.09 11.18,11.18 0 0 1 -1.26,-0.73 11.18,11.18 0 0 1 3,-2"
           id="path47" />
        <path
           class="d"
           d="m 181.36,9.75 v -1.7 h -34.11 a 12.06,12.06 0 0 0 -0.42,1.7 h 0.27 c -0.07,0.41 -0.12,0.82 -0.15,1.24 h -0.27 a 8.51,8.51 0 0 0 0,0.88 c 0,0.27 0,0.55 0,0.82 H 147 c 0,0.42 0.08,0.83 0.15,1.24 H 136.9 v 1.69 h 33.43 a 12,12 0 0 0 0.43,-1.69 h -0.28 c 0.07,-0.41 0.12,-0.82 0.16,-1.24 h 0.27 c 0,-0.27 0,-0.55 0,-0.82 0,-0.27 0,-0.59 0,-0.88 h -0.27 c 0,-0.42 -0.09,-0.83 -0.16,-1.24 z m -14.59,0 A 10.29,10.29 0 0 1 167,11 h -3.52 c 0,-0.42 -0.05,-0.83 -0.1,-1.24 z m -4.22,0 c 0,0.41 0.09,0.82 0.11,1.24 h -3.48 V 9.75 Z m -4.14,0 V 11 h -3.49 c 0,-0.42 0.06,-0.83 0.11,-1.24 z m -4.16,0 c -0.05,0.41 -0.08,0.82 -0.1,1.24 h -3.52 c 0,-0.42 0.1,-0.83 0.18,-1.24 z m -6.36,0 H 150 c -0.07,0.41 -0.13,0.82 -0.16,1.24 h -2.14 a 10.27,10.27 0 0 1 0.17,-1.24 m 0,4.18 a 10.27,10.27 0 0 1 -0.17,-1.24 h 2.14 c 0,0.41 0.08,0.83 0.15,1.24 z m 2.9,0 c -0.07,-0.41 -0.13,-0.83 -0.16,-1.24 h 3.51 c 0,0.41 0.06,0.83 0.1,1.24 z m 4.23,0 c -0.05,-0.41 -0.09,-0.82 -0.11,-1.24 h 3.5 v 1.24 z m 4.16,0 v -1.24 h 3.48 c 0,0.42 0,0.83 -0.1,1.24 z m 4.15,0 c 0,-0.41 0.09,-0.83 0.11,-1.24 H 167 c 0,0.41 -0.09,0.83 -0.16,1.24 z m 6.37,0 h -2.13 c 0.07,-0.41 0.12,-0.83 0.15,-1.24 h 2.14 a 10.25,10.25 0 0 1 -0.16,1.24 m 0.16,-2.94 h -2.14 c 0,-0.42 -0.09,-0.83 -0.16,-1.24 h 2.14 a 10.25,10.25 0 0 1 0.16,1.24"
           id="path49" />
        <path
           class="b"
           d="m 0,38.3 v -7.54 h 2.35 c 1.56,0 2.22,0.73 2.22,1.93 v 0.16 a 1.4,1.4 0 0 1 -0.84,1.51 1.48,1.48 0 0 1 0.95,1.55 v 0.45 c 0,1.27 -0.64,1.94 -2.22,1.94 z M 0.87,34 H 2.4 c 0.79,0 1.3,-0.27 1.3,-1.14 V 32.7 c 0,-0.87 -0.55,-1.14 -1.43,-1.14 h -1.4 z m 0,3.52 h 1.5 c 0.87,0 1.44,-0.27 1.44,-1.15 V 35.93 C 3.81,35.08 3.27,34.8 2.46,34.8 H 0.87 Z"
           id="path51" />
        <polygon
           class="b"
           points="6.5,30.76 10.54,30.76 10.54,31.55 7.37,31.55 7.37,34.01 10.08,34.01 10.08,34.8 7.37,34.8 7.37,37.51 10.54,37.51 10.54,38.3 6.5,38.3 "
           id="polygon53" />
        <path
           class="b"
           d="M 16.14,30.76 H 17 a 49,49 0 0 1 -2.17,4.71 V 38.3 H 14 v -2.83 a 44.62,44.62 0 0 1 -2.18,-4.71 h 0.86 c 0.48,1.2 1.51,3.36 1.75,3.89 0.23,-0.53 1.27,-2.69 1.73,-3.89"
           id="path55" />
        <path
           class="b"
           d="m 18,33.46 c 0,-1.92 0.88,-2.81 2.51,-2.81 1.63,0 2.49,0.89 2.49,2.81 v 2.12 c 0,1.94 -0.78,2.83 -2.42,2.83 -1.64,0 -2.58,-0.89 -2.58,-2.83 z m 0.87,1.74 c 0,1.79 0.4,2.4 1.64,2.4 1,0 1.55,-0.53 1.55,-2 v -1.75 c 0,-1.75 -0.44,-2.39 -1.55,-2.39 -1.11,0 -1.64,0.57 -1.64,2 z"
           id="path57" />
        <path
           class="b"
           d="m 29.59,30.76 v 7.54 h -0.86 c -0.63,-1.23 -2.7,-5.21 -3,-5.86 V 38.3 H 24.9 v -7.54 h 0.87 c 0.58,1.06 2.66,5.12 3,5.83 v -5.83 z"
           id="path59" />
        <path
           class="b"
           d="M 31.64,30.76 H 34 c 1.69,0 2.44,0.89 2.44,2.81 v 1.9 c 0,1.94 -0.75,2.83 -2.44,2.83 h -2.36 z m 0.87,0.79 v 6 H 34 c 1,0 1.57,-0.56 1.57,-2 v -1.97 c 0,-1.45 -0.53,-2 -1.57,-2 z"
           id="path61" />
        <path
           class="b"
           d="m 44.24,36.43 c -0.45,-1.09 -1.56,-3.59 -1.71,-4.13 0,0.74 -0.09,4.5 -0.1,6 h -0.85 c 0.05,-2 0.17,-6 0.25,-7.54 h 0.81 c 0.26,0.52 1.7,3.84 2,4.79 0.33,-0.95 1.77,-4.27 2,-4.79 h 0.81 c 0.08,1.55 0.22,5.54 0.27,7.54 h -0.84 c 0,-1.5 -0.08,-5.29 -0.09,-6 -0.2,0.54 -1.3,3.05 -1.75,4.14 z"
           id="path63" />
        <polygon
           class="b"
           points="49.77,30.76 53.81,30.76 53.81,31.55 50.64,31.55 50.64,34.01 53.35,34.01 53.35,34.8 50.64,34.8 50.64,37.51 53.81,37.51 53.81,38.3 49.77,38.3 "
           id="polygon65" />
        <path
           class="b"
           d="m 60.73,38.3 h -0.87 c -0.15,-0.54 -0.32,-1.14 -0.48,-1.76 h -2.92 c -0.17,0.64 -0.33,1.25 -0.47,1.76 h -0.87 c 0.41,-1.59 1.83,-6.38 2.22,-7.54 h 1.16 c 0.4,1.16 1.81,5.95 2.23,7.54 m -4,-2.55 h 2.47 c -0.53,-1.81 -1.12,-3.89 -1.22,-4.27 -0.12,0.38 -0.73,2.46 -1.25,4.27"
           id="path67" />
        <path
           class="b"
           d="m 65.21,36.29 c 0,-0.89 -0.27,-1 -1.3,-1.43 C 62.49,34.32 62,34 62,32.68 a 1.92,1.92 0 0 1 2.07,-2 4.94,4.94 0 0 1 1.83,0.32 l -0.12,0.71 a 5.61,5.61 0 0 0 -1.65,-0.22 1.12,1.12 0 0 0 -1.25,1.2 c 0,0.88 0.23,1 1.38,1.44 1.15,0.44 1.79,0.75 1.79,2.17 A 1.87,1.87 0 0 1 64,38.41 4.85,4.85 0 0 1 62,38 l 0.11,-0.71 A 5.82,5.82 0 0 0 64,37.6 c 0.85,0 1.26,-0.42 1.26,-1.31"
           id="path69" />
        <path
           class="b"
           d="m 71.77,35.7 v -4.94 h 0.86 v 4.94 c 0,2 -0.85,2.71 -2.34,2.71 -1.49,0 -2.47,-0.78 -2.47,-2.71 v -4.94 h 0.86 v 4.94 c 0,1.47 0.59,1.9 1.61,1.9 0.83,0 1.48,-0.36 1.48,-1.9"
           id="path71" />
        <path
           class="b"
           d="m 74.62,30.76 h 2.26 c 1.62,0 2.22,0.77 2.22,2 v 0.39 a 1.68,1.68 0 0 1 -1.36,1.88 c 0.25,0.49 0.71,1.55 1.4,3.24 h -0.9 c -0.45,-1 -1.06,-2.45 -1.37,-3.14 h -1.39 v 3.17 h -0.86 z m 0.86,3.61 h 1.39 c 0.79,0 1.36,-0.27 1.36,-1.18 v -0.44 c 0,-0.92 -0.54,-1.2 -1.42,-1.2 h -1.33 z"
           id="path73" />
        <polygon
           class="b"
           points="80.96,30.76 85,30.76 85,31.55 81.83,31.55 81.83,34.01 84.54,34.01 84.54,34.8 81.83,34.8 81.83,37.51 85,37.51 85,38.3 80.96,38.3 "
           id="polygon75" />
      </g>
    </g>
    <path
       style="fill:#ffffff;stroke-width:0.0631345"
       d="m 307.87695,478.35952 v -7.54457 h 1.6415 1.6415 v 7.54457 7.54458 h -1.6415 -1.6415 z"
       id="path133"
       transform="scale(0.26458333)" />
    <path
       style="fill:#ffffff;stroke-width:0.0631345"
       d="m 299.19595,486.05513 c -2.36407,-0.42209 -3.76526,-1.81344 -4.23085,-4.20114 -0.15662,-0.8032 -0.19024,-2.17183 -0.0711,-2.89524 0.3722,-2.2604 1.5377,-3.70915 3.49684,-4.34669 0.64584,-0.21017 1.33252,-0.28104 2.37445,-0.24507 1.08567,0.0375 1.75628,0.19532 2.50783,0.59025 1.75501,0.92223 2.7087,2.80305 2.70957,5.34367 l 2.5e-4,0.74183 h -4.07945 -4.07945 l 0.0453,0.36223 c 0.20583,1.64741 1.09789,2.43168 2.77878,2.443 0.55635,0.004 0.67375,-0.0156 0.98839,-0.16314 0.39194,-0.18374 0.81433,-0.57766 0.93701,-0.87384 l 0.0787,-0.18989 h 1.60653 1.60652 l -0.0441,0.14206 c -0.0242,0.0781 -0.12947,0.31251 -0.23387,0.52086 -0.72452,1.44594 -2.00939,2.46043 -3.51813,2.7778 -0.57455,0.12086 -2.17967,0.11712 -2.87315,-0.007 z m 3.69337,-7.02605 c 0,-0.25672 -0.26395,-0.93678 -0.47415,-1.22163 -0.48186,-0.65299 -1.13498,-0.96398 -2.01966,-0.96169 -0.48032,0.001 -0.624,0.0274 -0.92888,0.16905 -0.49855,0.23164 -0.77215,0.4616 -1.06243,0.89294 -0.23241,0.34535 -0.30423,0.52784 -0.40763,1.03577 l -0.0418,0.20518 h 2.46726 c 2.37945,0 2.46726,-0.004 2.46726,-0.11962 z"
       id="path135"
       transform="scale(0.26458333)" />
    <path
       style="fill:#ffffff;stroke-width:0.0631345"
       d="m 285.03994,486.03533 c -0.93986,-0.23097 -1.76529,-0.8091 -2.18037,-1.52713 -0.26942,-0.46605 -0.47614,-1.17414 -0.54825,-1.878 -0.039,-0.38064 -0.067,-2.19422 -0.067,-4.3405 v -3.68668 h 1.5468 1.54679 v 3.65869 c 0,2.46602 0.0231,3.76776 0.0709,3.99326 0.21799,1.02844 0.87387,1.47533 2.09808,1.42956 0.50255,-0.0188 0.63673,-0.0493 0.99714,-0.22689 0.49377,-0.24328 0.88187,-0.63981 1.11689,-1.14115 l 0.16797,-0.3583 0.0177,-3.67759 0.0177,-3.67758 h 1.51328 1.51328 v 5.65054 5.65054 h -1.48366 -1.48366 l -0.003,-0.83653 c -0.003,-0.79613 -0.008,-0.82891 -0.10616,-0.6787 -0.0566,0.0868 -0.31788,0.3731 -0.58068,0.63621 -0.52121,0.5218 -1.10934,0.86005 -1.80114,1.03591 -0.52462,0.13335 -1.76015,0.11987 -2.35238,-0.0257 z"
       id="path137"
       transform="scale(0.26458333)" />
    <path
       style="fill:#ffffff;stroke-width:0.0631345"
       d="m 288.36838,471.63569 v -1.19955 h 1.35739 1.35739 v 1.19955 1.19956 h -1.35739 -1.35739 z"
       id="path139"
       transform="scale(0.26458333)" />
    <path
       style="fill:#ffffff;stroke-width:0.0631345"
       d="m 284.0121,471.63569 v -1.19955 h 1.38896 1.38896 v 1.19955 1.19956 h -1.38896 -1.38896 z"
       id="path141"
       transform="scale(0.26458333)" />
    <path
       style="fill:#ffffff;stroke-width:0.0631345"
       d="m 273.37393,480.25356 v -5.61898 h 1.45209 1.4521 v 0.56822 c 0,0.31251 0.0175,0.56821 0.0389,0.56821 0.0214,0 0.20472,-0.15351 0.40737,-0.34113 0.68262,-0.63199 1.27695,-0.81798 2.8525,-0.89268 l 0.93123,-0.0442 v 1.20719 1.20719 l -0.7734,0.001 c -1.5844,0.002 -2.44942,0.39773 -2.92732,1.33836 -0.36195,0.71242 -0.36021,0.69307 -0.38663,4.2953 l -0.0244,3.33035 h -1.51121 -1.51121 z"
       id="path143"
       transform="scale(0.26458333)" />
    <path
       style="fill:#ffffff;stroke-width:0.0631345"
       d="m 257.90597,478.35685 v -7.51567 l 4.65617,0.0201 c 4.59497,0.0198 4.66281,0.022 5.16125,0.16115 1.90407,0.5317 2.9682,1.7379 3.1014,3.51546 0.0486,0.64868 -0.0453,1.15021 -0.31956,1.70662 -0.26455,0.53671 -0.73963,1.02256 -1.28462,1.31374 l -0.39507,0.21108 0.52905,0.26216 c 1.27856,0.63354 2.01522,1.96021 1.91485,3.44846 -0.0503,0.74568 -0.17322,1.20895 -0.49545,1.8672 -0.36985,0.7555 -1.12281,1.50954 -1.88261,1.8853 -1.11189,0.54988 -2.14029,0.63954 -7.33939,0.63986 l -3.64602,2.2e-4 z m 8.23396,4.92466 c 0.90649,-0.13102 1.574,-0.61024 1.77018,-1.27086 0.33402,-1.12477 0.0608,-1.99746 -0.76098,-2.43072 -0.59718,-0.31485 -0.82475,-0.33652 -3.5326,-0.33652 h -2.4907 v 2.05187 2.05187 l 2.28862,-10e-4 c 1.25875,-6.9e-4 2.48521,-0.0297 2.72548,-0.0644 z m 0.41547,-6.71999 c 0.5024,-0.17834 0.9644,-0.65232 1.07167,-1.09945 0.16619,-0.69275 -0.056,-1.33749 -0.58244,-1.69031 -0.49437,-0.33131 -0.6813,-0.35245 -3.37764,-0.38189 l -2.47803,-0.0271 v 1.19458 c 0,0.65702 -0.0185,1.41316 -0.0411,1.68033 l -0.0411,0.48576 2.55066,-0.0194 c 2.33995,-0.0177 2.57934,-0.0295 2.8979,-0.1426 z"
       id="path145"
       transform="scale(0.26458333)" />
    <path
       style="fill:#ffffff;stroke-width:0.0631345"
       d="m 257.90597,501.01989 v -3.72987 l 1.53101,0.0248 c 1.7722,0.0287 1.95878,0.0703 2.45014,0.54682 0.37205,0.36081 0.5014,0.75119 0.5014,1.51325 0,0.67087 -0.14321,1.0073 -0.55117,1.29486 -0.24932,0.17573 -0.2671,0.20394 -0.16412,0.26032 0.0635,0.0348 0.24747,0.19112 0.40875,0.34744 0.38005,0.36837 0.45551,0.64232 0.41968,1.52373 -0.0347,0.85404 -0.22633,1.29769 -0.69611,1.61165 -0.43497,0.2907 -0.76674,0.33691 -2.41903,0.33691 h -1.48055 z m 3.27253,2.85588 c 0.41084,-0.21644 0.53322,-0.53874 0.50548,-1.3313 -0.0195,-0.55736 -0.0378,-0.63575 -0.19687,-0.84414 -0.26015,-0.34078 -0.60862,-0.42297 -1.79327,-0.42297 h -0.96712 v 1.3952 1.39521 l 1.08907,-0.0239 c 0.98571,-0.0217 1.11504,-0.0376 1.36271,-0.16808 z m -0.11807,-3.49808 c 0.39069,-0.20033 0.50734,-0.452 0.50734,-1.09453 0,-0.58723 -0.11872,-0.83733 -0.50529,-1.06441 -0.19412,-0.11404 -0.34838,-0.13223 -1.27826,-0.15079 l -1.0575,-0.0211 v 1.23645 1.23644 h 1.02834 c 0.94225,0 1.05153,-0.0119 1.30537,-0.14205 z"
       id="path147"
       transform="scale(0.26458333)" />
    <path
       style="fill:#ffffff;stroke-width:0.0631345"
       d="m 264.40882,501.02482 v -3.72494 h 1.98874 1.98874 v 0.37881 0.37881 h -1.57836 -1.57837 v 1.23112 1.23112 h 1.32583 1.32582 v 0.37881 0.37881 h -1.32582 -1.32583 v 1.38896 1.38896 h 1.57837 1.57836 v 0.34724 0.34724 h -1.98874 -1.98874 z"
       id="path149"
       transform="scale(0.26458333)" />
    <path
       style="fill:#ffffff;stroke-width:0.0631345"
       d="m 271.92183,503.39683 v -1.35292 l -0.64868,-1.31451 c -0.61311,-1.24243 -1.49789,-3.23135 -1.49789,-3.36716 0,-0.0343 0.16624,-0.0624 0.36942,-0.0624 h 0.36942 l 0.22083,0.52086 c 0.52269,1.23282 1.53773,3.38348 1.57776,3.34295 0.0503,-0.0509 1.27089,-2.73092 1.5441,-3.3903 l 0.18311,-0.44194 0.38876,-0.0187 0.38875,-0.0187 -0.37844,0.90257 c -0.20815,0.49641 -0.68919,1.5377 -1.06899,2.31397 l -0.69053,1.41139 v 1.41388 1.41387 h -0.37881 -0.37881 z"
       id="path151"
       transform="scale(0.26458333)" />
    <path
       style="fill:#ffffff;stroke-width:0.0631345"
       d="m 277.60394,504.78973 c -0.87361,-0.25426 -1.38691,-0.81531 -1.60945,-1.75918 -0.13246,-0.56183 -0.13246,-3.44963 0,-4.01146 0.19725,-0.8366 0.64246,-1.39118 1.33047,-1.65729 0.52049,-0.20133 1.54096,-0.20751 2.03775,-0.0124 0.74953,0.29444 1.12383,0.73072 1.33382,1.55469 0.11146,0.43736 0.12714,0.70006 0.12618,2.11501 -10e-4,2.12536 -0.12424,2.71532 -0.68109,3.27217 -0.38667,0.38667 -0.82605,0.54223 -1.59032,0.56304 -0.41328,0.0113 -0.77033,-0.0131 -0.94736,-0.0646 z m 1.39532,-0.74533 c 0.35008,-0.12074 0.55515,-0.31016 0.7373,-0.68104 l 0.17179,-0.3498 v -1.86247 c 0,-1.6434 -0.0137,-1.90316 -0.11651,-2.20842 -0.25047,-0.74374 -0.59259,-0.97794 -1.43028,-0.97912 -0.88294,-10e-4 -1.32073,0.2994 -1.54738,1.06263 -0.11718,0.39458 -0.13482,3.31562 -0.0232,3.84222 0.12924,0.60974 0.37734,0.96033 0.81342,1.14944 0.26679,0.11569 1.09093,0.13138 1.39487,0.0266 z"
       id="path153"
       transform="scale(0.26458333)" />
    <path
       style="fill:#ffffff;stroke-width:0.0631345"
       d="m 282.78097,501.02194 v -3.72783 l 0.41808,0.0187 0.41808,0.0187 0.51824,0.97858 c 0.28504,0.53823 0.96271,1.84511 1.50594,2.90419 l 0.98768,1.92561 0.002,-2.91998 0.002,-2.91997 h 0.37881 0.3788 v 3.72494 3.72494 l -0.39459,-5e-5 -0.39459,-4e-5 -1.40097,-2.73053 c -0.77053,-1.50178 -1.43564,-2.80865 -1.47801,-2.90414 -0.0424,-0.0955 -0.10089,-0.17362 -0.13004,-0.17362 -0.0292,0 -0.053,1.30688 -0.053,2.90419 v 2.90419 h -0.37881 -0.37881 z"
       id="path155"
       transform="scale(0.26458333)" />
    <path
       style="fill:#ffffff;stroke-width:0.0631345"
       d="m 289.53637,501.01908 v -3.73067 l 1.53101,0.0266 c 1.82843,0.0318 1.96863,0.0661 2.51945,0.61633 0.29133,0.29103 0.38337,0.43724 0.49975,0.79386 0.12886,0.39487 0.14531,0.59137 0.17008,2.03225 0.0378,2.19765 -0.0897,2.84009 -0.68071,3.43112 -0.48871,0.48872 -0.82366,0.56118 -2.59414,0.56118 h -1.44544 z m 3.06316,2.92447 c 0.33654,-0.17302 0.57058,-0.43016 0.7036,-0.77305 0.0918,-0.23662 0.11372,-0.55523 0.13333,-1.93673 0.0262,-1.84564 -0.0289,-2.25998 -0.35517,-2.6712 -0.32277,-0.40678 -0.54261,-0.47082 -1.69824,-0.49472 l -1.02593,-0.0212 v 3.04485 3.04484 l 0.9955,-0.0318 c 0.83849,-0.0268 1.03515,-0.0521 1.24691,-0.16101 z"
       id="path157"
       transform="scale(0.26458333)" />
    <path
       style="fill:#ffffff;stroke-width:0.0631345"
       d="m 299.50564,503.47128 c 0.0229,-0.70316 0.0689,-2.14499 0.10225,-3.20407 0.0333,-1.05909 0.0776,-2.16 0.0983,-2.44647 l 0.0377,-0.52086 h 0.36435 0.36436 l 0.22351,0.48929 c 0.48132,1.05364 1.59326,3.72657 1.76626,4.2458 0.0366,0.10986 -0.019,0.22968 0.67369,-1.45209 0.27889,-0.67712 0.70276,-1.68569 0.94193,-2.24128 l 0.43485,-1.01015 0.38778,-0.0188 c 0.33798,-0.0164 0.38783,-0.004 0.38823,0.0947 2.6e-4,0.0624 0.0412,1.15049 0.0909,2.41791 0.0497,1.26743 0.10983,2.89393 0.13351,3.61446 l 0.0431,1.31004 h -0.37644 -0.37644 l -0.0416,-1.43073 c -0.0229,-0.7869 -0.045,-2.04407 -0.0491,-2.79371 -0.004,-0.74963 -0.0261,-1.4482 -0.0489,-1.55237 l -0.0414,-0.18941 -0.11466,0.28411 c -0.0631,0.15626 -0.45748,1.08794 -0.87648,2.07041 l -0.76182,1.78631 -0.37382,-0.0185 -0.37383,-0.0185 -0.47449,-1.10486 c -0.26096,-0.60767 -0.63986,-1.51202 -0.84199,-2.00967 -0.20213,-0.49766 -0.37962,-0.91693 -0.39441,-0.93172 -0.0396,-0.0396 -0.10975,2.34485 -0.10994,3.73683 -9e-5,0.6632 -0.0185,1.42318 -0.041,1.68885 l -0.0408,0.48304 h -0.37759 -0.37759 z"
       id="path159"
       transform="scale(0.26458333)" />
    <path
       style="fill:#ffffff;stroke-width:0.0631345"
       d="m 307.68755,501.02482 v -3.72494 h 1.98873 1.98874 v 0.37881 0.37881 h -1.60993 -1.60993 v 1.23112 1.23112 h 1.35739 1.3574 v 0.37881 0.37881 h -1.3574 -1.35739 v 1.38896 1.38896 h 1.60993 1.60993 v 0.34724 0.34724 h -1.98874 -1.98873 z"
       id="path161"
       transform="scale(0.26458333)" />
    <path
       style="fill:#ffffff;stroke-width:0.0631345"
       d="m 313.08779,504.54773 c 0.0721,-0.33204 1.19117,-4.17239 1.68429,-5.77997 l 0.45026,-1.46788 h 0.55211 0.55212 l 0.19218,0.584 c 0.26296,0.79907 1.18616,3.90804 1.61699,5.44535 0.19463,0.69448 0.36582,1.2982 0.38042,1.34161 0.0194,0.0576 -0.0813,0.0789 -0.37321,0.0789 h -0.39978 l -0.16274,-0.584 c -0.0895,-0.32119 -0.19391,-0.70474 -0.23202,-0.85231 l -0.0693,-0.26833 h -1.49776 -1.49776 l -0.22022,0.83654 -0.22023,0.83653 -0.4003,0.0189 -0.4003,0.019 z m 3.99272,-2.33914 c -0.0152,-0.0434 -0.29249,-1.00936 -0.61625,-2.14657 -0.32376,-1.13721 -0.60677,-2.06766 -0.62892,-2.06766 -0.0306,0 -1.03415,3.34973 -1.2445,4.15411 l -0.0364,0.13904 h 1.27681 c 0.99408,0 1.2707,-0.0175 1.24922,-0.0789 z"
       id="path163"
       transform="scale(0.26458333)" />
    <path
       style="fill:#ffffff;stroke-width:0.0631345"
       d="m 320.95014,504.81051 c -0.15388,-0.0319 -0.45543,-0.11653 -0.67012,-0.18798 l -0.39035,-0.1299 0.0546,-0.2924 c 0.03,-0.16083 0.0648,-0.30254 0.0771,-0.31492 0.0124,-0.0124 0.18991,0.0233 0.39451,0.0794 0.20461,0.056 0.71294,0.11575 1.12963,0.13272 0.70343,0.0286 0.77767,0.0203 1.03806,-0.11612 0.40442,-0.21193 0.54365,-0.51188 0.52865,-1.13886 -0.0132,-0.55181 -0.1329,-0.87069 -0.39757,-1.05915 -0.095,-0.0676 -0.52657,-0.27437 -0.95911,-0.45942 -1.2926,-0.553 -1.56911,-0.76332 -1.76276,-1.34074 -0.13661,-0.40735 -0.10509,-1.27043 0.0589,-1.61187 0.21668,-0.45123 0.48612,-0.73125 0.90507,-0.94061 0.35035,-0.17506 0.44545,-0.19387 0.98034,-0.19387 0.57178,0 1.44199,0.13569 1.67707,0.2615 0.0907,0.0486 0.10607,0.10858 0.0753,0.29433 -0.0649,0.39104 -0.0456,0.37945 -0.48095,0.28857 -0.58682,-0.12248 -1.63169,-0.12251 -1.86851,-4e-5 -0.2492,0.12886 -0.49099,0.42184 -0.58618,0.71026 -0.092,0.27871 -0.0408,0.89316 0.0965,1.15871 0.0982,0.1898 0.60816,0.46796 1.57295,0.85787 1.01292,0.40937 1.33313,0.79569 1.4292,1.72428 0.0912,0.88166 -0.0687,1.40924 -0.56238,1.85524 -0.43871,0.39635 -0.59628,0.45016 -1.36574,0.46643 -0.38196,0.008 -0.82037,-0.0115 -0.97424,-0.0434 z"
       id="path165"
       transform="scale(0.26458333)" />
    <path
       style="fill:#ffffff;stroke-width:0.0631345"
       d="m 327.24201,504.75664 c -0.54987,-0.18162 -0.93447,-0.49922 -1.19338,-0.98547 -0.28778,-0.54048 -0.30307,-0.72549 -0.30386,-3.67758 l -7.5e-4,-2.79371 h 0.37881 0.37881 v 2.60849 c 0,1.58959 0.0266,2.75482 0.068,2.98311 0.15607,0.85972 0.61847,1.22805 1.53854,1.22555 0.85804,-0.002 1.25685,-0.2879 1.45282,-1.04028 0.0804,-0.30866 0.0974,-0.84479 0.0974,-3.07535 v -2.70152 h 0.41493 0.41493 l -0.0256,2.85684 c -0.0207,2.31456 -0.0437,2.91676 -0.12119,3.17251 -0.21591,0.71304 -0.54157,1.1196 -1.09343,1.36506 -0.45067,0.20045 -1.49005,0.23276 -2.00598,0.0623 z"
       id="path167"
       transform="scale(0.26458333)" />
    <path
       style="fill:#ffffff;stroke-width:0.0631345"
       d="m 332.49942,501.01981 v -3.72994 l 1.49944,0.0249 c 1.7496,0.0291 1.94053,0.0729 2.42371,0.55609 0.39435,0.39436 0.49627,0.73985 0.49627,1.68242 0,0.80161 -0.0906,1.09249 -0.45693,1.46719 -0.21115,0.21597 -0.60937,0.44626 -0.77168,0.44626 -0.0535,0 -0.0972,0.0198 -0.0972,0.0439 0,0.0242 0.28076,0.69891 0.62392,1.49945 0.34315,0.80053 0.64338,1.51944 0.66716,1.59756 0.0417,0.13694 0.0288,0.14206 -0.35738,0.14206 h -0.40064 l -0.68586,-1.57837 -0.68587,-1.57836 h -0.71708 -0.71709 v 1.57836 1.57837 h -0.41038 -0.41037 z m 3.08699,-0.2791 c 0.40008,-0.23565 0.47756,-0.40871 0.50219,-1.12162 0.0254,-0.73392 -0.042,-1.02654 -0.28899,-1.25574 -0.27505,-0.25521 -0.53035,-0.30585 -1.54185,-0.30585 h -0.93759 v 1.42596 1.42595 l 1.02593,-0.0212 c 0.88849,-0.0184 1.05466,-0.0381 1.24031,-0.14749 z"
       id="path169"
       transform="scale(0.26458333)" />
    <path
       style="fill:#ffffff;stroke-width:0.0631345"
       d="m 338.87601,501.02482 v -3.72494 h 1.98873 1.98874 v 0.37881 0.37881 h -1.60993 -1.60993 v 1.23112 1.23112 h 1.35739 1.3574 v 0.37881 0.37881 h -1.3574 -1.35739 v 1.38896 1.38896 h 1.60993 1.60993 v 0.34724 0.34724 h -1.98874 -1.98873 z"
       id="path171"
       transform="scale(0.26458333)" />
    <path
       style="fill:#ffffff;stroke-width:0.0631345"
       d="m 322.77074,486.24921 c -0.61656,-0.0721 -1.16763,-0.22662 -1.69307,-0.47479 -1.19922,-0.56643 -1.97379,-1.39767 -2.38914,-2.56396 -0.14478,-0.40653 -0.16525,-0.56333 -0.16759,-1.28384 -0.003,-0.93213 0.0784,-1.29289 0.45578,-2.0203 0.39125,-0.75408 1.36029,-1.62147 2.74411,-2.45628 l 0.17525,-0.10572 -0.35577,-0.45468 c -1.16334,-1.48681 -1.39176,-3.22237 -0.58877,-4.47371 0.46887,-0.73067 1.45199,-1.38058 2.43839,-1.61194 0.69631,-0.16332 2.12141,-0.16206 2.60663,0.002 1.1452,0.38794 1.99356,1.21318 2.37515,2.31043 0.40051,1.15166 0.17469,2.26394 -0.66429,3.27208 -0.31351,0.37672 -1.09523,1.00848 -1.53834,1.24323 -0.12961,0.0687 -0.23565,0.14328 -0.23565,0.16581 0,0.0848 2.21891,2.67667 2.29155,2.67667 0.0418,0 0.19471,-0.23862 0.33982,-0.53025 0.24819,-0.49885 0.40472,-1.01328 0.49661,-1.63211 l 0.0398,-0.26832 h 1.35185 1.35184 v 0.214 c 0,1.0164 -0.70608,2.86743 -1.49259,3.91293 l -0.32911,0.43748 0.54571,0.63777 c 0.63061,0.73699 2.01133,2.35353 2.14898,2.51602 0.0888,0.10484 4.4e-4,0.11033 -1.73131,0.10746 l -1.8249,-0.003 -0.40983,-0.50537 c -0.2254,-0.27795 -0.47371,-0.56539 -0.55179,-0.63874 l -0.14197,-0.13338 -0.30052,0.25107 c -1.39115,1.16223 -3.04032,1.63201 -4.94687,1.40913 z m 2.02627,-2.55935 c 0.44642,-0.13157 1.12843,-0.48834 1.42064,-0.74315 l 0.2286,-0.19934 -1.47175,-1.74777 c -0.80946,-0.96127 -1.49698,-1.74966 -1.52781,-1.75198 -0.10541,-0.008 -1.05357,0.71384 -1.33998,1.02004 -0.42714,0.45665 -0.55667,0.79142 -0.55638,1.43799 2e-4,0.45491 0.0264,0.59075 0.17225,0.89187 0.27736,0.57273 0.83232,1.027 1.46449,1.19877 0.27387,0.0744 1.20528,0.0128 1.60994,-0.10643 z m -0.0546,-7.79805 c 0.50391,-0.32336 0.98319,-0.89044 1.10469,-1.30705 0.26337,-0.90309 -0.31212,-1.71861 -1.21206,-1.71759 -0.6681,7.5e-4 -1.1292,0.27606 -1.32616,0.79178 -0.14346,0.37566 -0.0879,0.75822 0.1934,1.33126 0.20269,0.41294 0.75256,1.09647 0.88206,1.09647 0.0299,0 0.19104,-0.0877 0.35807,-0.19487 z"
       id="path173"
       transform="scale(0.26458333)" />
    <path
       style="fill:#ffffff;stroke-width:0.0631345"
       d="m 346.03576,482.00554 c -1.69028,-2.14421 -3.09815,-3.93034 -3.12862,-3.9692 -0.0364,-0.0464 0.98876,-1.29496 2.99172,-3.64359 l 3.0471,-3.57295 2.03982,-0.002 c 1.45848,-0.002 2.02768,0.0172 1.99722,0.0665 -0.0234,0.0379 -1.38948,1.64648 -3.03568,3.57461 -1.99469,2.3363 -2.97432,3.52951 -2.9368,3.5771 0.031,0.0393 1.44804,1.79338 3.14905,3.89801 1.70101,2.10462 3.11276,3.85898 3.13722,3.89855 0.033,0.0533 -0.50389,0.072 -2.07166,0.072 h -2.11614 z"
       id="path175"
       transform="scale(0.26458333)" />
    <path
       style="fill:#ffffff;stroke-width:0.0631345"
       d="m 339.50735,478.35952 v -7.54457 h 1.6415 1.6415 v 7.54457 7.54458 h -1.6415 -1.6415 z"
       id="path177"
       transform="scale(0.26458333)" />
    <path
       style="fill:#ffffff;stroke-width:0.0631345"
       d="m 355.02187,489.20825 -0.8616,-1.05973 0.21296,-0.17554 c 0.15948,-0.13145 0.23011,-0.25551 0.28125,-0.49397 0.0464,-0.21624 0.0683,-2.33358 0.0683,-6.59721 v -6.27878 h 1.5468 1.5468 l -10e-4,6.61334 c -10e-4,7.14047 0.002,7.07056 -0.33672,7.81004 -0.20517,0.44816 -0.53164,0.79582 -0.93701,0.99783 -0.64765,0.32276 -0.55214,0.37404 -1.51967,-0.81598 z"
       id="path179"
       transform="scale(0.26458333)" />
    <path
       style="fill:#ffffff;stroke-width:0.0631345"
       d="m 362.51989,486.06173 c -1.54662,-0.29225 -2.45303,-1.06272 -2.78361,-2.36614 -0.0767,-0.30249 -0.0967,-0.59387 -0.0767,-1.11758 0.026,-0.67949 0.0379,-0.73009 0.29051,-1.23994 0.20119,-0.40602 0.36102,-0.62288 0.67681,-0.91828 0.61717,-0.57734 1.03113,-0.75203 2.17707,-0.91875 1.23075,-0.17906 3.43879,-0.53879 3.73415,-0.60836 0.40793,-0.0961 0.54985,-0.26866 0.5973,-0.72632 0.10992,-1.06034 -0.47988,-1.49159 -2.05861,-1.50521 -0.78285,-0.007 -1.07014,0.0566 -1.46579,0.32333 -0.24594,0.1658 -0.55452,0.68907 -0.55452,0.94033 0,0.34872 0.039,0.34001 -1.52198,0.34001 -1.26022,0 -1.44534,-0.0125 -1.44534,-0.0974 0,-0.31712 0.23299,-1.144 0.44917,-1.59406 0.72852,-1.51677 2.28145,-2.24455 4.791,-2.24532 0.87792,-2.7e-4 1.12113,0.0215 1.54679,0.13831 0.60087,0.16493 1.27429,0.47456 1.78201,0.81934 l 0.36892,0.25053 0.5029,-0.33732 c 0.88178,-0.59144 1.9206,-0.9116 2.95792,-0.9116 2.48703,0 4.28153,1.13625 5.08519,3.21987 0.29072,0.75375 0.50922,2.10106 0.50939,3.14094 l 5e-5,0.33146 h -4.07217 -4.07218 l 10e-4,0.17361 c 0.002,0.31552 0.17681,1.00947 0.34259,1.35989 0.19386,0.4098 0.67831,0.88418 1.07783,1.05544 0.70308,0.30137 1.84485,0.33054 2.40097,0.0613 0.35817,-0.17338 0.78919,-0.58084 0.91493,-0.86491 l 0.0871,-0.19676 1.54943,0.035 c 0.85219,0.0192 1.55807,0.0421 1.56862,0.0509 0.0491,0.0408 -0.31868,0.82098 -0.5695,1.20828 -0.71506,1.10415 -1.92241,1.93269 -3.21772,2.20816 -0.6815,0.14493 -2.60403,0.0879 -3.30303,-0.0981 -0.95833,-0.2549 -1.54115,-0.60311 -2.20248,-1.31587 l -0.30844,-0.33243 -0.18043,0.24534 c -0.51323,0.69789 -1.82927,1.34094 -3.10842,1.51885 -0.65305,0.0908 -1.92174,0.0772 -2.47086,-0.0266 z m 2.45093,-1.98632 c 1.02414,-0.16772 1.90593,-0.97594 2.11122,-1.93506 0.0289,-0.13491 0.041,-0.49773 0.027,-0.80626 l -0.0255,-0.56097 -0.57716,0.0423 c -0.77096,0.0565 -2.22161,0.2689 -2.58658,0.37874 -0.81888,0.24645 -1.17888,0.70604 -1.17888,1.50501 0,0.82177 0.38837,1.23376 1.29426,1.37293 0.45474,0.0699 0.52788,0.0701 0.9357,0.003 z m 9.8804,-5.29509 c -0.0723,-0.99926 -0.88473,-1.83411 -1.9824,-2.03702 -1.38688,-0.25638 -2.73011,0.69698 -2.85035,2.02303 l -0.0347,0.38237 h 2.44704 2.44704 z"
       id="path181"
       transform="scale(0.26458333)" />
    <path
       style="fill:#ffffff;stroke-width:0.0631345"
       d="m 354.72277,471.79353 v -1.35739 h 1.51523 1.51523 v 1.35739 1.35739 h -1.51523 -1.51523 z"
       id="path183"
       transform="scale(0.26458333)" />
    <path
       style="fill:#ffffff;stroke-width:0.0631345"
       d="m 379.97659,480.25356 v -5.65054 h 1.48366 1.48366 v 0.56821 c 0,0.31251 0.0175,0.56821 0.0389,0.56821 0.0214,0 0.20373,-0.15259 0.40517,-0.33909 0.6681,-0.61854 1.21303,-0.78871 2.69686,-0.84218 l 1.02594,-0.037 v 1.2089 1.20889 h -0.81764 c -1.25149,0 -1.87275,0.18402 -2.39751,0.71014 -0.37132,0.37228 -0.55179,0.70227 -0.69913,1.27836 -0.1183,0.46254 -0.12633,0.70007 -0.12633,3.73528 v 3.24133 h -1.5468 -1.54679 z"
       id="path185"
       transform="scale(0.26458333)" />
    <path
       style="fill:#ffffff;stroke-width:0.0631345"
       d="m 394.7819,481.275 v -0.82075 h 5.1139 c 4.82826,0 5.1139,-0.006 5.11398,-0.11049 4e-5,-0.0608 -0.0327,-0.34487 -0.0727,-0.63134 -0.0676,-0.48387 -0.0833,-0.52086 -0.22105,-0.52086 -0.148,0 -0.14827,-10e-4 -0.14827,-0.82075 0,-0.77603 0.007,-0.82075 0.12506,-0.82075 0.14135,0 0.16445,-0.074 0.22515,-0.72126 0.0225,-0.24044 0.0554,-0.47483 0.0731,-0.52086 0.0204,-0.0532 -0.0164,-0.0837 -0.10091,-0.0837 -0.18754,0 -0.16884,-0.17615 0.129,-1.21534 l 0.12213,-0.42616 h 17.01209 17.01208 v 0.82075 0.82075 h -5.43641 -5.43642 l 0.0339,0.14205 c 0.0186,0.0781 0.0514,0.2841 0.0728,0.45772 0.0845,0.68649 0.0968,0.72605 0.22558,0.72605 0.1161,0 0.12341,0.0484 0.12341,0.81636 0,0.79852 -0.003,0.8168 -0.14205,0.83653 -0.12515,0.0178 -0.14732,0.069 -0.18633,0.43055 -0.0244,0.22571 -0.0612,0.50271 -0.0818,0.61556 -0.0323,0.17684 -0.0197,0.20519 0.0916,0.20519 0.0809,0 0.12907,0.0412 0.12897,0.11048 -1.3e-4,0.0921 -0.23356,1.03081 -0.35323,1.42053 -0.0322,0.10486 -0.88393,0.11049 -16.72876,0.11049 H 394.7819 Z m 13.06893,-0.93124 c 5e-5,-0.0608 -0.0327,-0.34487 -0.0727,-0.63134 l -0.0728,-0.52086 h -1.09815 -1.09815 l 0.0317,0.20519 c 0.0174,0.11285 0.0487,0.34724 0.0696,0.52086 0.07,0.58277 -0.0306,0.53664 1.17142,0.53664 0.97601,0 1.06904,-0.01 1.06911,-0.11049 z m 4.22994,-0.0378 c 0,-0.0816 -0.0184,-0.36568 -0.0408,-0.63135 l -0.0408,-0.48303 h -1.79127 -1.79127 l 0.029,0.14205 c 0.0159,0.0781 0.0465,0.29831 0.0679,0.48929 0.0214,0.19099 0.0546,0.41117 0.0738,0.4893 l 0.0349,0.14205 h 1.72935 1.72936 z m 4.23001,-0.48304 v -0.63134 h -1.80388 -1.80387 l 0.0383,0.36302 c 0.0211,0.19967 0.0533,0.48377 0.0716,0.63135 l 0.0332,0.26832 h 1.73233 1.73233 z m 4.13188,0.57377 c 0.0196,-0.0317 0.0539,-0.31578 0.0763,-0.63135 l 0.0407,-0.57376 h -1.77722 -1.77722 v 0.63134 0.63135 h 1.70091 c 0.95649,0 1.71648,-0.0252 1.73649,-0.0576 z m 4.36868,-0.38436 c 0.0397,-0.22571 0.0752,-0.50271 0.0789,-0.61556 l 0.007,-0.20519 h -1.82191 -1.82191 l -0.0406,0.38807 c -0.0223,0.21344 -0.0406,0.49798 -0.0406,0.63233 v 0.24426 l 1.78355,-0.0168 1.78355,-0.0168 z m 2.80699,0.15783 c 0.0228,-0.13889 0.0611,-0.41589 0.0851,-0.61556 l 0.0437,-0.36302 h -1.10223 -1.10223 l -0.0362,0.26832 c -0.0199,0.14758 -0.0549,0.43237 -0.0778,0.63287 l -0.0416,0.36455 1.09485,-0.0173 1.09484,-0.0173 z m -19.89385,-2.67865 c 0,-0.11515 0.13339,-1.04841 0.16534,-1.15677 0.0301,-0.10225 -0.0497,-0.11048 -1.07152,-0.11048 h -1.10409 l -0.0363,0.17362 c -0.0361,0.17267 -0.15946,1.01446 -0.16184,1.10485 -6.9e-4,0.026 0.49593,0.0473 1.1036,0.0473 0.63702,0 1.10485,-0.0248 1.10485,-0.0586 z m 4.31948,-0.0835 c 0.0158,-0.0781 0.0439,-0.37644 0.0624,-0.66291 l 0.0336,-0.52086 h -1.75654 -1.75654 l -0.0724,0.43832 c -0.0398,0.24107 -0.0724,0.53938 -0.0724,0.66291 v 0.22459 h 1.76656 1.76657 z m 4.26682,-0.52086 v -0.66291 h -1.72721 -1.7272 l -0.0406,0.38806 c -0.0223,0.21344 -0.0406,0.51175 -0.0406,0.66292 v 0.27484 h 1.76776 1.76777 z m 4.19917,0.11048 c -0.0232,-0.30383 -0.0561,-0.60214 -0.0731,-0.66291 -0.0284,-0.10172 -0.1657,-0.11048 -1.73125,-0.11048 h -1.70038 v 0.66291 0.66291 h 1.77343 1.77344 z m 4.35422,0.28411 c -0.0224,-0.14758 -0.075,-0.43879 -0.11691,-0.64713 l -0.0763,-0.37881 -1.72709,-0.0168 -1.72708,-0.0168 0.0403,0.42719 c 0.0222,0.23496 0.0405,0.53373 0.0408,0.66395 l 4.5e-4,0.23675 h 1.8032 1.8032 z m 2.84158,-0.12627 c -0.0246,-0.21702 -0.0637,-0.50823 -0.0868,-0.64713 l -0.042,-0.25254 -1.08738,-0.0173 c -0.84727,-0.0135 -1.08756,4.8e-4 -1.08821,0.0631 -4.4e-4,0.0442 0.0341,0.34321 0.0767,0.66441 l 0.0775,0.58399 h 1.09749 1.09749 z"
       id="path187"
       transform="scale(0.26458333)" />
    <path
       style="fill:#ffffff;stroke-width:0.0631345"
       d="m 405.68287,474.03031 c 0.13067,-0.38126 0.76347,-1.59225 1.09695,-2.09922 0.66367,-1.00895 1.62464,-2.07045 2.55459,-2.82184 1.3759,-1.1117 3.2859,-1.98935 5.15179,-2.36726 0.63059,-0.12772 0.90347,-0.14577 2.20339,-0.14577 1.30292,0 1.57211,0.0179 2.20971,0.14688 3.26539,0.6606 6.0003,2.52051 7.79284,5.29962 0.27015,0.41882 1.04499,1.93839 1.0457,2.05073 1.8e-4,0.026 -0.16433,0.0473 -0.36553,0.0473 h -0.36582 l -0.28131,-0.57974 c -0.38083,-0.78483 -0.86443,-1.54848 -1.40092,-2.21216 l -0.44662,-0.55252 -0.22704,0.13651 c -0.12487,0.0751 -0.29806,0.18386 -0.38487,0.24173 -0.0868,0.0579 -0.30344,0.18332 -0.48141,0.27876 l -0.32357,0.17352 0.3449,0.54669 c 0.34623,0.54878 0.96516,1.76515 0.96516,1.89681 0,0.0439 -0.14126,0.0704 -0.37482,0.0704 h -0.37482 l -0.28698,-0.584 c -0.35947,-0.73152 -0.89012,-1.56258 -0.99774,-1.56258 -0.0448,0 -0.33702,0.10065 -0.64929,0.22367 -0.31228,0.12302 -0.82348,0.29695 -1.13599,0.38653 -0.31252,0.0896 -0.57721,0.17074 -0.5882,0.18038 -0.011,0.01 0.0671,0.29625 0.17362,0.6369 0.10649,0.34066 0.19361,0.64323 0.19361,0.67239 0,0.0292 -0.1607,0.0445 -0.3571,0.0341 l -0.3571,-0.0189 -0.17326,-0.55666 c -0.0953,-0.30617 -0.18436,-0.56777 -0.19793,-0.58134 -0.0136,-0.0136 -0.2792,0.017 -0.59028,0.0678 -0.31109,0.0509 -0.89943,0.11087 -1.30744,0.13332 l -0.74183,0.0408 v 0.46381 0.46381 h -0.34724 -0.34724 v -0.47351 -0.47351 l -0.42616,-10e-4 c -0.38703,-0.001 -1.4434,-0.11864 -1.99264,-0.22168 l -0.21864,-0.041 -0.20172,0.60548 -0.20171,0.60547 h -0.34203 c -0.23118,0 -0.34204,-0.0255 -0.34204,-0.0788 0,-0.0433 0.0882,-0.34342 0.19594,-0.6669 0.10777,-0.32347 0.1859,-0.59707 0.17362,-0.60799 -0.0123,-0.0109 -0.28001,-0.0934 -0.59496,-0.18328 -0.31496,-0.0899 -0.85295,-0.27621 -1.19554,-0.41408 -0.57486,-0.23133 -0.62931,-0.24245 -0.70623,-0.14419 -0.17562,0.22433 -0.7116,1.13773 -0.94236,1.60591 l -0.24115,0.4893 h -0.36496 c -0.20073,0 -0.36497,-0.0147 -0.36497,-0.0326 0,-0.15692 0.76359,-1.59523 1.24372,-2.34268 0.0822,-0.12804 0.0558,-0.15165 -0.59278,-0.53002 l -0.67887,-0.39601 -0.30739,0.34061 c -0.44181,0.48957 -1.18633,1.62964 -1.53148,2.34513 l -0.29694,0.61557 h -0.36824 c -0.32304,0 -0.3636,-0.0136 -0.33038,-0.11049 z m 10.62791,-2.59727 v -1.06626 l -0.20519,-0.0353 c -0.11285,-0.0194 -0.36144,-0.0523 -0.55242,-0.0731 l -0.34724,-0.0378 -0.3259,0.46062 c -0.35846,0.50664 -0.80597,1.26851 -0.86886,1.47919 -0.0383,0.12827 -0.009,0.1383 0.60884,0.21014 0.35698,0.0415 0.70587,0.0836 0.77532,0.0935 0.0695,0.01 0.30383,0.0219 0.52086,0.0266 l 0.39459,0.009 z m 1.86247,0.96762 c 0.51785,-0.0401 1.10502,-0.13302 1.15465,-0.18265 0.0581,-0.0581 -0.57448,-1.11692 -1.039,-1.73902 l -0.21214,-0.2841 -0.53575,0.0595 -0.53575,0.0595 v 1.09728 1.09728 l 0.33146,-0.0343 c 0.1823,-0.0188 0.55874,-0.0519 0.83653,-0.0734 z m -4.58971,-0.87459 c 0.17211,-0.32693 0.44688,-0.79407 0.6106,-1.03809 0.28296,-0.42175 0.31837,-0.5772 0.13149,-0.5772 -0.046,0 -0.31072,-0.11364 -0.58822,-0.25254 -0.27751,-0.13889 -0.52658,-0.25253 -0.55349,-0.25253 -0.17646,0 -2.11331,1.78189 -2.11331,1.94423 0,0.0772 1.87767,0.74489 2.1575,0.76717 0.0234,0.002 0.18332,-0.26411 0.35543,-0.59104 z m 7.08352,0.43453 c 0.52786,-0.15467 1.31304,-0.43472 1.53222,-0.54649 0.0985,-0.0502 0.0725,-0.10143 -0.22018,-0.43398 -0.35271,-0.4007 -1.19856,-1.15866 -1.58937,-1.42422 l -0.23519,-0.15982 -0.52676,0.25735 c -0.28971,0.14154 -0.55083,0.25778 -0.58026,0.25831 -0.0294,5.3e-4 -0.0914,0.0249 -0.13759,0.0543 -0.0647,0.041 -0.012,0.1608 0.22875,0.51989 0.17205,0.25663 0.44455,0.7294 0.60556,1.0506 0.16101,0.32119 0.31377,0.58339 0.33946,0.58267 0.0257,-7.3e-4 0.28821,-0.0721 0.58336,-0.15857 z m -10.1775,-1.01447 c 0.10344,-0.18484 1.26405,-1.3147 1.67961,-1.63513 0.22518,-0.17362 0.41105,-0.33881 0.41304,-0.36709 0.002,-0.0283 -0.11518,-0.18935 -0.2604,-0.35794 l -0.26404,-0.30653 -0.48422,0.24346 c -0.64178,0.32268 -1.7073,1.04099 -2.16673,1.46068 l -0.36954,0.33758 0.62037,0.36302 c 0.34121,0.19966 0.65524,0.36302 0.69786,0.36302 0.0426,0 0.10294,-0.0455 0.13405,-0.10107 z m 13.21125,-0.25734 c 0.34543,-0.19713 0.62625,-0.37469 0.62403,-0.39459 -0.002,-0.0199 -0.17978,-0.1871 -0.39459,-0.37156 -0.50791,-0.43615 -1.45907,-1.06938 -2.09303,-1.39345 l -0.50291,-0.25707 -0.26766,0.29847 c -0.14721,0.16416 -0.26893,0.31487 -0.27049,0.33491 -0.002,0.02 0.29486,0.2839 0.65871,0.58635 0.36385,0.30246 0.85393,0.77376 1.08907,1.04733 0.23514,0.27357 0.45032,0.49979 0.47817,0.50271 0.0279,0.003 0.33327,-0.15597 0.6787,-0.3531 z m -6.09449,-1.09208 c 0.61252,-0.0796 1.37564,-0.33256 1.84631,-0.61191 0.50883,-0.30199 1.23824,-0.9069 1.17137,-0.97142 -0.0875,-0.0844 -0.83913,-0.31761 -1.5353,-0.47632 -1.52016,-0.34655 -3.28564,-0.34412 -4.82979,0.007 -0.81004,0.184 -1.48366,0.39824 -1.48366,0.47187 0,0.0963 0.70245,0.69429 1.06561,0.90713 0.64415,0.37753 1.19252,0.55969 2.09111,0.69465 0.31398,0.0472 1.24087,0.0357 1.67435,-0.0206 z"
       id="path189"
       transform="scale(0.26458333)" />
    <path
       style="fill:#ffffff;stroke-width:0.0631345"
       d="m 415.74781,490.11331 c -3.70444,-0.32087 -7.0104,-2.28084 -9.01184,-5.34274 -0.31653,-0.48425 -0.83781,-1.47144 -1.05405,-1.99613 l -0.0976,-0.23675 h 0.36864 0.36863 l 0.34333,0.6813 c 0.18883,0.37472 0.50232,0.92162 0.69665,1.21534 0.3923,0.59297 1.02299,1.37713 1.14539,1.4241 0.0436,0.0167 0.34551,-0.127 0.67103,-0.31935 0.32552,-0.19236 0.61462,-0.34974 0.64244,-0.34974 0.10101,0 0.0436,-0.1242 -0.33745,-0.73052 -0.37773,-0.60099 -0.93778,-1.70554 -0.93778,-1.84952 0,-0.0447 0.13028,-0.0716 0.34667,-0.0716 h 0.34666 l 0.32446,0.64713 c 0.3583,0.71464 0.92155,1.62571 1.00506,1.62571 0.0294,0 0.3037,-0.10107 0.60948,-0.22461 0.43458,-0.17558 1.72057,-0.59614 1.82286,-0.59614 0.0106,0 -0.0595,-0.23438 -0.15595,-0.52086 -0.0964,-0.28647 -0.1946,-0.59899 -0.21817,-0.69448 l -0.0429,-0.17362 0.36422,7e-4 0.36423,6.9e-4 0.18591,0.60591 0.18591,0.60591 0.25603,-0.0349 c 1.05785,-0.14442 1.82068,-0.22759 2.10272,-0.22927 l 0.33145,-0.002 v -0.50507 -0.50508 h 0.34724 0.34724 v 0.47351 0.47351 l 0.29989,0.002 c 0.27167,0.002 1.29699,0.11357 2.04416,0.22287 l 0.29218,0.0427 0.20232,-0.6073 0.20232,-0.6073 h 0.34204 c 0.18812,0 0.34203,0.0231 0.34203,0.0513 0,0.0492 -0.31869,1.00264 -0.4089,1.22333 -0.0346,0.0846 0.009,0.12075 0.21077,0.17512 0.43441,0.11698 1.20432,0.37707 1.72361,0.58227 0.27342,0.10805 0.50834,0.18513 0.52206,0.17129 0.12038,-0.12143 0.75043,-1.2144 0.95135,-1.65033 l 0.25254,-0.54791 0.36302,-0.003 c 0.24998,-0.002 0.36285,0.022 0.36245,0.0764 -9.8e-4,0.13338 -0.66897,1.47026 -0.96111,1.92352 -0.1518,0.23553 -0.29502,0.45972 -0.31826,0.4982 -0.0258,0.0427 0.2182,0.22319 0.62528,0.46268 l 0.66753,0.39274 0.15785,-0.14702 c 0.4734,-0.44093 1.45882,-1.93555 1.85558,-2.81445 l 0.17814,-0.39459 h 0.34988 c 0.20752,0 0.34988,0.0276 0.34988,0.0679 0,0.0373 -0.15379,0.39143 -0.34175,0.78685 -1.68582,3.5466 -5.09789,6.06729 -8.96173,6.62053 -0.86019,0.12317 -1.90074,0.16296 -2.62371,0.10034 z m 2.80425,-0.78596 c 0.60624,-0.10714 1.90228,-0.44689 2.0478,-0.53683 0.11494,-0.071 -0.10724,-0.27539 -0.78511,-0.72212 -0.9276,-0.6113 -1.70125,-0.85444 -2.87726,-0.90423 -1.17081,-0.0496 -2.14652,0.18428 -3.09006,0.74061 -0.40387,0.23813 -1.07218,0.75385 -1.07218,0.82738 0,0.12175 1.75451,0.56665 2.68527,0.68091 0.68594,0.0842 2.39872,0.0367 3.09154,-0.0857 z m -6.19457,-1.17722 c 0.1323,-0.17721 0.2165,-0.3421 0.1871,-0.36642 -0.0294,-0.0243 -0.26151,-0.21098 -0.5158,-0.41479 -0.25429,-0.20381 -0.73965,-0.6632 -1.07859,-1.02086 l -0.61625,-0.65029 -0.5923,0.33907 c -0.32577,0.18648 -0.60208,0.36838 -0.61402,0.4042 -0.0253,0.0759 0.6446,0.64092 1.28007,1.07963 0.39179,0.27047 1.58651,0.94849 1.67537,0.95079 0.0186,4.8e-4 0.14212,-0.14412 0.27442,-0.32133 z m 9.49475,0.0762 c 0.82767,-0.41725 2.47663,-1.59123 2.47663,-1.76324 0,-0.0271 -0.27569,-0.20925 -0.61264,-0.4048 l -0.61263,-0.35554 -0.62225,0.65663 c -0.34224,0.36114 -0.84074,0.83177 -1.10778,1.04584 -0.26705,0.21408 -0.4949,0.41357 -0.50634,0.44333 -0.0171,0.0445 0.42323,0.61484 0.47993,0.62167 0.009,0.001 0.23674,-0.10861 0.50508,-0.24389 z m -7.76317,-1.27508 c 0.23231,-0.0991 0.41594,-0.20742 0.40807,-0.24061 -0.008,-0.0332 -0.1678,-0.29674 -0.35541,-0.58566 -0.18762,-0.28892 -0.44731,-0.73838 -0.5771,-0.99881 -0.12979,-0.26043 -0.24101,-0.47951 -0.24716,-0.48684 -0.0496,-0.0591 -2.07221,0.62384 -2.20933,0.74597 -0.0723,0.0645 1.18534,1.3186 1.72165,1.7168 l 0.40178,0.29832 0.21756,-0.13446 c 0.11966,-0.074 0.40763,-0.21557 0.63994,-0.31471 z m 6.62121,-0.004 c 0.49988,-0.39323 1.59828,-1.46551 1.59828,-1.56026 0,-0.0284 -0.0781,-0.0883 -0.17362,-0.13321 -0.29303,-0.13772 -1.60244,-0.56987 -1.84179,-0.60785 l -0.22587,-0.0358 -0.24358,0.49457 c -0.13398,0.27201 -0.39678,0.72993 -0.584,1.0176 -0.18722,0.28766 -0.3404,0.54485 -0.3404,0.57152 0,0.0267 0.13495,0.0971 0.29989,0.15657 0.16493,0.0594 0.44194,0.19148 0.61556,0.2934 0.17362,0.10192 0.33512,0.18674 0.35888,0.18849 0.0238,0.002 0.26526,-0.17149 0.53665,-0.38498 z m -4.62047,-0.53446 0.2841,-0.0387 v -1.07561 -1.07561 l -0.64126,0.042 c -0.61184,0.0401 -1.44573,0.14324 -1.6173,0.20005 -0.14146,0.0468 0.28892,0.82321 1.09058,1.96731 0.0635,0.0907 0.0789,0.0903 0.88388,-0.0194 z m 2.41689,-0.38972 c 0.3716,-0.50118 0.93551,-1.51192 0.87647,-1.57096 -0.0487,-0.0487 -1.06562,-0.18917 -1.73078,-0.23908 l -0.584,-0.0438 v 1.08001 c 0,0.80934 0.0198,1.08591 0.0789,1.10358 0.0434,0.013 0.27779,0.0504 0.52086,0.0832 0.24307,0.0328 0.44917,0.0639 0.45799,0.0691 0.009,0.005 0.18007,-0.21171 0.38054,-0.48209 z"
       id="path191"
       transform="scale(0.26458333)" />
    <path
       style="fill:#ffffff;stroke-width:0.0631345"
       d="m 394.7819,476.92478 v -2.27688 l 1.72042,-0.0168 c 0.94623,-0.009 1.95331,0.003 2.23796,0.0274 0.89189,0.0761 1.44736,0.4146 1.51563,0.92356 0.0807,0.60163 -0.1826,0.88256 -1.11772,1.1926 -0.0521,0.0173 0.0758,0.0799 0.2841,0.13922 0.48762,0.13879 0.76355,0.28586 0.88548,0.47194 0.42937,0.65531 0.10447,1.33495 -0.77768,1.62677 -0.39705,0.13135 -0.55837,0.14162 -2.58583,0.1646 l -2.16236,0.0245 z m 3.70729,1.4892 c 0.32352,-0.17123 0.4204,-0.47746 0.26144,-0.82634 -0.13659,-0.29979 -0.42739,-0.37302 -1.50588,-0.3792 l -0.97918,-0.006 -0.018,0.68616 -0.018,0.68617 1.02815,-0.0268 c 0.80902,-0.0211 1.07148,-0.0497 1.23147,-0.13439 z m -0.28437,-1.93994 c 0.39271,-0.10906 0.57147,-0.40457 0.45247,-0.74796 -0.10693,-0.30854 -0.39219,-0.38552 -1.42892,-0.38563 l -0.93124,-10e-5 v 0.59978 0.59978 l 0.83654,-3.6e-4 c 0.46009,-1.9e-4 0.94211,-0.0297 1.07115,-0.0655 z"
       id="path193"
       transform="scale(0.26458333)" />
    <path
       style="fill:#ffffff;stroke-width:0.0631345"
       d="m 433.3571,479.8229 v -2.30441 h 0.85232 0.85232 v 2.30441 2.30441 h -0.85232 -0.85232 z"
       id="path195"
       transform="scale(0.26458333)" />
    <path
       style="fill:#ffffff;stroke-width:0.0631345"
       d="m 436.28679,480.89943 c -0.58578,-0.67534 -1.07165,-1.25065 -1.07972,-1.27847 -0.008,-0.0278 0.43182,-0.51394 0.97751,-1.08024 l 0.99216,-1.02965 0.8653,0.0195 0.86529,0.0195 -1.07276,0.9741 -1.07277,0.9741 0.30218,0.32016 c 0.16619,0.17609 0.71412,0.74582 1.21762,1.26608 l 0.91545,0.94593 -0.53664,0.0422 c -0.29516,0.0232 -0.71033,0.045 -0.92261,0.0484 l -0.38596,0.006 z"
       id="path197"
       transform="scale(0.26458333)" />
  </g>
</svg>
