<svg id="Layer_1" data-name="Layer 1" xmlns="http://www.w3.org/2000/svg" viewBox="0 0 101.44 75.32"><defs><style>.cls-1{fill:#fff;}</style></defs><path class="cls-1" d="M60.31,41.39H46.74c-11.82,0-23.64-.13-35.46.06C7,41.52,4.79,39.8,3.76,35.83c-.92-3.54-2.2-7-3.18-10.51C-1,19.49.68,17.13,6.7,17.11c18.82,0,37.63-.22,56.44.12,5.18.09,8.23-1.17,9.22-6.42C72.66,9.2,73.54,7.7,74,6.1,75.22,1.5,78.14-.28,82.87,0c4.31.29,8.65.09,13,0,3.28,0,5.67,1.09,5.59,4.78-.08,3.34-2.26,4.56-5.36,4.51-.34,0-.67,0-1,0C82,9.64,82,9.64,77.5,22.17c-3.64,10.18-7.42,20.31-10.91,30.55-1.38,4.05-3.62,5.82-8,5.74-13.15-.21-26.3-.1-39.46-.05-3.43,0-6.83-.41-6.86-4.62s3.28-4.74,6.78-4.72c11.32.07,22.65-.22,34,.14C58.17,49.37,60.31,47.39,60.31,41.39ZM11.19,26.75c-.35,3.95,1.16,5.42,4.85,5.39Q38.5,32,61,32.14c3.71,0,5.12-1.56,4.86-5.39Z"/><path class="cls-1" d="M20.42,68.91c.12-4,3-7.1,6.35-6.71A6.56,6.56,0,0,1,33,68.78c.21,3.43-3.45,7-6.76,6.49C22.49,74.72,20.44,72.37,20.42,68.91Z"/><path class="cls-1" d="M69.3,68.65c-.18,3.92-2.37,6.42-6.07,6.55S57.08,73,56.78,69.11c-.27-3.52,3-7.22,6.27-6.9C66.77,62.56,69,64.78,69.3,68.65Z"/></svg>